<?xml version="1.0" encoding="utf-8" standalone="no"?>
<!DOCTYPE svg PUBLIC "-//W3C//DTD SVG 1.1//EN"
  "http://www.w3.org/Graphics/SVG/1.1/DTD/svg11.dtd">
<svg height="345.6pt" version="1.1" viewBox="0 0 460.8 345.6" width="460.8pt" xmlns="http://www.w3.org/2000/svg" xmlns:xlink="http://www.w3.org/1999/xlink">
 <metadata>
  <rdf:RDF xmlns:cc="http://creativecommons.org/ns#" xmlns:dc="http://purl.org/dc/elements/1.1/" xmlns:rdf="http://www.w3.org/1999/02/22-rdf-syntax-ns#">
   <cc:Work>
    <dc:type rdf:resource="http://purl.org/dc/dcmitype/StillImage"/>
    <dc:date>2021-04-19T18:59:40.370819</dc:date>
    <dc:format>image/svg+xml</dc:format>
    <dc:creator>
     <cc:Agent>
      <dc:title>Matplotlib v3.4.0, https://matplotlib.org/</dc:title>
     </cc:Agent>
    </dc:creator>
   </cc:Work>
  </rdf:RDF>
 </metadata>
 <defs>
  <style type="text/css">*{stroke-linecap:butt;stroke-linejoin:round;}</style>
 </defs>
 <g id="figure_1">
  <g id="patch_1">
   <path d="M 0 345.6 
L 460.8 345.6 
L 460.8 0 
L 0 0 
z
" style="fill:#ffffff;"/>
  </g>
  <g id="axes_1">
   <g id="patch_2">
    <path d="M 57.6 307.584 
L 414.72 307.584 
L 414.72 41.472 
L 57.6 41.472 
z
" style="fill:#ffffff;"/>
   </g>
   <g id="matplotlib.axis_1">
    <g id="xtick_1">
     <g id="line2d_1">
      <path clip-path="url(#p94742d2c75)" d="M 73.832727 307.584 
L 73.832727 41.472 
" style="fill:none;stroke:#cccccc;stroke-linecap:round;"/>
     </g>
     <g id="text_1">
      <!-- 0 -->
      <g style="fill:#262626;" transform="translate(70.774212 324.957594)scale(0.11 -0.11)">
       <defs>
        <path d="M 266 2259 
Q 266 3072 433 3567 
Q 600 4063 929 4331 
Q 1259 4600 1759 4600 
Q 2128 4600 2406 4451 
Q 2684 4303 2865 4023 
Q 3047 3744 3150 3342 
Q 3253 2941 3253 2259 
Q 3253 1453 3087 958 
Q 2922 463 2592 192 
Q 2263 -78 1759 -78 
Q 1097 -78 719 397 
Q 266 969 266 2259 
z
M 844 2259 
Q 844 1131 1108 757 
Q 1372 384 1759 384 
Q 2147 384 2411 759 
Q 2675 1134 2675 2259 
Q 2675 3391 2411 3762 
Q 2147 4134 1753 4134 
Q 1366 4134 1134 3806 
Q 844 3388 844 2259 
z
" id="ArialMT-30" transform="scale(0.015625)"/>
       </defs>
       <use xlink:href="#ArialMT-30"/>
      </g>
     </g>
    </g>
    <g id="xtick_2">
     <g id="line2d_2">
      <path clip-path="url(#p94742d2c75)" d="M 140.428531 307.584 
L 140.428531 41.472 
" style="fill:none;stroke:#cccccc;stroke-linecap:round;"/>
     </g>
     <g id="text_2">
      <!-- 1000 -->
      <g style="fill:#262626;" transform="translate(128.194469 324.957594)scale(0.11 -0.11)">
       <defs>
        <path d="M 2384 0 
L 1822 0 
L 1822 3584 
Q 1619 3391 1289 3197 
Q 959 3003 697 2906 
L 697 3450 
Q 1169 3672 1522 3987 
Q 1875 4303 2022 4600 
L 2384 4600 
L 2384 0 
z
" id="ArialMT-31" transform="scale(0.015625)"/>
       </defs>
       <use xlink:href="#ArialMT-31"/>
       <use x="55.615234" xlink:href="#ArialMT-30"/>
       <use x="111.230469" xlink:href="#ArialMT-30"/>
       <use x="166.845703" xlink:href="#ArialMT-30"/>
      </g>
     </g>
    </g>
    <g id="xtick_3">
     <g id="line2d_3">
      <path clip-path="url(#p94742d2c75)" d="M 207.024336 307.584 
L 207.024336 41.472 
" style="fill:none;stroke:#cccccc;stroke-linecap:round;"/>
     </g>
     <g id="text_3">
      <!-- 2000 -->
      <g style="fill:#262626;" transform="translate(194.790273 324.957594)scale(0.11 -0.11)">
       <defs>
        <path d="M 3222 541 
L 3222 0 
L 194 0 
Q 188 203 259 391 
Q 375 700 629 1000 
Q 884 1300 1366 1694 
Q 2113 2306 2375 2664 
Q 2638 3022 2638 3341 
Q 2638 3675 2398 3904 
Q 2159 4134 1775 4134 
Q 1369 4134 1125 3890 
Q 881 3647 878 3216 
L 300 3275 
Q 359 3922 746 4261 
Q 1134 4600 1788 4600 
Q 2447 4600 2831 4234 
Q 3216 3869 3216 3328 
Q 3216 3053 3103 2787 
Q 2991 2522 2730 2228 
Q 2469 1934 1863 1422 
Q 1356 997 1212 845 
Q 1069 694 975 541 
L 3222 541 
z
" id="ArialMT-32" transform="scale(0.015625)"/>
       </defs>
       <use xlink:href="#ArialMT-32"/>
       <use x="55.615234" xlink:href="#ArialMT-30"/>
       <use x="111.230469" xlink:href="#ArialMT-30"/>
       <use x="166.845703" xlink:href="#ArialMT-30"/>
      </g>
     </g>
    </g>
    <g id="xtick_4">
     <g id="line2d_4">
      <path clip-path="url(#p94742d2c75)" d="M 273.62014 307.584 
L 273.62014 41.472 
" style="fill:none;stroke:#cccccc;stroke-linecap:round;"/>
     </g>
     <g id="text_4">
      <!-- 3000 -->
      <g style="fill:#262626;" transform="translate(261.386077 324.957594)scale(0.11 -0.11)">
       <defs>
        <path d="M 269 1209 
L 831 1284 
Q 928 806 1161 595 
Q 1394 384 1728 384 
Q 2125 384 2398 659 
Q 2672 934 2672 1341 
Q 2672 1728 2419 1979 
Q 2166 2231 1775 2231 
Q 1616 2231 1378 2169 
L 1441 2663 
Q 1497 2656 1531 2656 
Q 1891 2656 2178 2843 
Q 2466 3031 2466 3422 
Q 2466 3731 2256 3934 
Q 2047 4138 1716 4138 
Q 1388 4138 1169 3931 
Q 950 3725 888 3313 
L 325 3413 
Q 428 3978 793 4289 
Q 1159 4600 1703 4600 
Q 2078 4600 2393 4439 
Q 2709 4278 2876 4000 
Q 3044 3722 3044 3409 
Q 3044 3113 2884 2869 
Q 2725 2625 2413 2481 
Q 2819 2388 3044 2092 
Q 3269 1797 3269 1353 
Q 3269 753 2831 336 
Q 2394 -81 1725 -81 
Q 1122 -81 723 278 
Q 325 638 269 1209 
z
" id="ArialMT-33" transform="scale(0.015625)"/>
       </defs>
       <use xlink:href="#ArialMT-33"/>
       <use x="55.615234" xlink:href="#ArialMT-30"/>
       <use x="111.230469" xlink:href="#ArialMT-30"/>
       <use x="166.845703" xlink:href="#ArialMT-30"/>
      </g>
     </g>
    </g>
    <g id="xtick_5">
     <g id="line2d_5">
      <path clip-path="url(#p94742d2c75)" d="M 340.215944 307.584 
L 340.215944 41.472 
" style="fill:none;stroke:#cccccc;stroke-linecap:round;"/>
     </g>
     <g id="text_5">
      <!-- 4000 -->
      <g style="fill:#262626;" transform="translate(327.981882 324.957594)scale(0.11 -0.11)">
       <defs>
        <path d="M 2069 0 
L 2069 1097 
L 81 1097 
L 81 1613 
L 2172 4581 
L 2631 4581 
L 2631 1613 
L 3250 1613 
L 3250 1097 
L 2631 1097 
L 2631 0 
L 2069 0 
z
M 2069 1613 
L 2069 3678 
L 634 1613 
L 2069 1613 
z
" id="ArialMT-34" transform="scale(0.015625)"/>
       </defs>
       <use xlink:href="#ArialMT-34"/>
       <use x="55.615234" xlink:href="#ArialMT-30"/>
       <use x="111.230469" xlink:href="#ArialMT-30"/>
       <use x="166.845703" xlink:href="#ArialMT-30"/>
      </g>
     </g>
    </g>
    <g id="xtick_6">
     <g id="line2d_6">
      <path clip-path="url(#p94742d2c75)" d="M 406.811748 307.584 
L 406.811748 41.472 
" style="fill:none;stroke:#cccccc;stroke-linecap:round;"/>
     </g>
     <g id="text_6">
      <!-- 5000 -->
      <g style="fill:#262626;" transform="translate(394.577686 324.957594)scale(0.11 -0.11)">
       <defs>
        <path d="M 266 1200 
L 856 1250 
Q 922 819 1161 601 
Q 1400 384 1738 384 
Q 2144 384 2425 690 
Q 2706 997 2706 1503 
Q 2706 1984 2436 2262 
Q 2166 2541 1728 2541 
Q 1456 2541 1237 2417 
Q 1019 2294 894 2097 
L 366 2166 
L 809 4519 
L 3088 4519 
L 3088 3981 
L 1259 3981 
L 1013 2750 
Q 1425 3038 1878 3038 
Q 2478 3038 2890 2622 
Q 3303 2206 3303 1553 
Q 3303 931 2941 478 
Q 2500 -78 1738 -78 
Q 1113 -78 717 272 
Q 322 622 266 1200 
z
" id="ArialMT-35" transform="scale(0.015625)"/>
       </defs>
       <use xlink:href="#ArialMT-35"/>
       <use x="55.615234" xlink:href="#ArialMT-30"/>
       <use x="111.230469" xlink:href="#ArialMT-30"/>
       <use x="166.845703" xlink:href="#ArialMT-30"/>
      </g>
     </g>
    </g>
    <g id="text_7">
     <!-- Step -->
     <g style="fill:#262626;" transform="translate(223.817813 339.879469)scale(0.12 -0.12)">
      <defs>
       <path d="M 288 1472 
L 859 1522 
Q 900 1178 1048 958 
Q 1197 738 1509 602 
Q 1822 466 2213 466 
Q 2559 466 2825 569 
Q 3091 672 3220 851 
Q 3350 1031 3350 1244 
Q 3350 1459 3225 1620 
Q 3100 1781 2813 1891 
Q 2628 1963 1997 2114 
Q 1366 2266 1113 2400 
Q 784 2572 623 2826 
Q 463 3081 463 3397 
Q 463 3744 659 4045 
Q 856 4347 1234 4503 
Q 1613 4659 2075 4659 
Q 2584 4659 2973 4495 
Q 3363 4331 3572 4012 
Q 3781 3694 3797 3291 
L 3216 3247 
Q 3169 3681 2898 3903 
Q 2628 4125 2100 4125 
Q 1550 4125 1298 3923 
Q 1047 3722 1047 3438 
Q 1047 3191 1225 3031 
Q 1400 2872 2139 2705 
Q 2878 2538 3153 2413 
Q 3553 2228 3743 1945 
Q 3934 1663 3934 1294 
Q 3934 928 3725 604 
Q 3516 281 3123 101 
Q 2731 -78 2241 -78 
Q 1619 -78 1198 103 
Q 778 284 539 648 
Q 300 1013 288 1472 
z
" id="ArialMT-53" transform="scale(0.015625)"/>
       <path d="M 1650 503 
L 1731 6 
Q 1494 -44 1306 -44 
Q 1000 -44 831 53 
Q 663 150 594 308 
Q 525 466 525 972 
L 525 2881 
L 113 2881 
L 113 3319 
L 525 3319 
L 525 4141 
L 1084 4478 
L 1084 3319 
L 1650 3319 
L 1650 2881 
L 1084 2881 
L 1084 941 
Q 1084 700 1114 631 
Q 1144 563 1211 522 
Q 1278 481 1403 481 
Q 1497 481 1650 503 
z
" id="ArialMT-74" transform="scale(0.015625)"/>
       <path d="M 2694 1069 
L 3275 997 
Q 3138 488 2766 206 
Q 2394 -75 1816 -75 
Q 1088 -75 661 373 
Q 234 822 234 1631 
Q 234 2469 665 2931 
Q 1097 3394 1784 3394 
Q 2450 3394 2872 2941 
Q 3294 2488 3294 1666 
Q 3294 1616 3291 1516 
L 816 1516 
Q 847 969 1125 678 
Q 1403 388 1819 388 
Q 2128 388 2347 550 
Q 2566 713 2694 1069 
z
M 847 1978 
L 2700 1978 
Q 2663 2397 2488 2606 
Q 2219 2931 1791 2931 
Q 1403 2931 1139 2672 
Q 875 2413 847 1978 
z
" id="ArialMT-65" transform="scale(0.015625)"/>
       <path d="M 422 -1272 
L 422 3319 
L 934 3319 
L 934 2888 
Q 1116 3141 1344 3267 
Q 1572 3394 1897 3394 
Q 2322 3394 2647 3175 
Q 2972 2956 3137 2557 
Q 3303 2159 3303 1684 
Q 3303 1175 3120 767 
Q 2938 359 2589 142 
Q 2241 -75 1856 -75 
Q 1575 -75 1351 44 
Q 1128 163 984 344 
L 984 -1272 
L 422 -1272 
z
M 931 1641 
Q 931 1000 1190 694 
Q 1450 388 1819 388 
Q 2194 388 2461 705 
Q 2728 1022 2728 1688 
Q 2728 2322 2467 2637 
Q 2206 2953 1844 2953 
Q 1484 2953 1207 2617 
Q 931 2281 931 1641 
z
" id="ArialMT-70" transform="scale(0.015625)"/>
      </defs>
      <use xlink:href="#ArialMT-53"/>
      <use x="66.699219" xlink:href="#ArialMT-74"/>
      <use x="94.482422" xlink:href="#ArialMT-65"/>
      <use x="150.097656" xlink:href="#ArialMT-70"/>
     </g>
    </g>
   </g>
   <g id="matplotlib.axis_2">
    <g id="ytick_1">
     <g id="line2d_7">
      <path clip-path="url(#p94742d2c75)" d="M 57.6 304.597959 
L 414.72 304.597959 
" style="fill:none;stroke:#cccccc;stroke-linecap:round;"/>
     </g>
     <g id="text_8">
      <!-- 0.0 -->
      <g style="fill:#262626;" transform="translate(32.81 308.534755)scale(0.11 -0.11)">
       <defs>
        <path d="M 581 0 
L 581 641 
L 1222 641 
L 1222 0 
L 581 0 
z
" id="ArialMT-2e" transform="scale(0.015625)"/>
       </defs>
       <use xlink:href="#ArialMT-30"/>
       <use x="55.615234" xlink:href="#ArialMT-2e"/>
       <use x="83.398438" xlink:href="#ArialMT-30"/>
      </g>
     </g>
    </g>
    <g id="ytick_2">
     <g id="line2d_8">
      <path clip-path="url(#p94742d2c75)" d="M 57.6 252.974862 
L 414.72 252.974862 
" style="fill:none;stroke:#cccccc;stroke-linecap:round;"/>
     </g>
     <g id="text_9">
      <!-- 0.2 -->
      <g style="fill:#262626;" transform="translate(32.81 256.911659)scale(0.11 -0.11)">
       <use xlink:href="#ArialMT-30"/>
       <use x="55.615234" xlink:href="#ArialMT-2e"/>
       <use x="83.398438" xlink:href="#ArialMT-32"/>
      </g>
     </g>
    </g>
    <g id="ytick_3">
     <g id="line2d_9">
      <path clip-path="url(#p94742d2c75)" d="M 57.6 201.351766 
L 414.72 201.351766 
" style="fill:none;stroke:#cccccc;stroke-linecap:round;"/>
     </g>
     <g id="text_10">
      <!-- 0.4 -->
      <g style="fill:#262626;" transform="translate(32.81 205.288563)scale(0.11 -0.11)">
       <use xlink:href="#ArialMT-30"/>
       <use x="55.615234" xlink:href="#ArialMT-2e"/>
       <use x="83.398438" xlink:href="#ArialMT-34"/>
      </g>
     </g>
    </g>
    <g id="ytick_4">
     <g id="line2d_10">
      <path clip-path="url(#p94742d2c75)" d="M 57.6 149.72867 
L 414.72 149.72867 
" style="fill:none;stroke:#cccccc;stroke-linecap:round;"/>
     </g>
     <g id="text_11">
      <!-- 0.6 -->
      <g style="fill:#262626;" transform="translate(32.81 153.665467)scale(0.11 -0.11)">
       <defs>
        <path d="M 3184 3459 
L 2625 3416 
Q 2550 3747 2413 3897 
Q 2184 4138 1850 4138 
Q 1581 4138 1378 3988 
Q 1113 3794 959 3422 
Q 806 3050 800 2363 
Q 1003 2672 1297 2822 
Q 1591 2972 1913 2972 
Q 2475 2972 2870 2558 
Q 3266 2144 3266 1488 
Q 3266 1056 3080 686 
Q 2894 316 2569 119 
Q 2244 -78 1831 -78 
Q 1128 -78 684 439 
Q 241 956 241 2144 
Q 241 3472 731 4075 
Q 1159 4600 1884 4600 
Q 2425 4600 2770 4297 
Q 3116 3994 3184 3459 
z
M 888 1484 
Q 888 1194 1011 928 
Q 1134 663 1356 523 
Q 1578 384 1822 384 
Q 2178 384 2434 671 
Q 2691 959 2691 1453 
Q 2691 1928 2437 2201 
Q 2184 2475 1800 2475 
Q 1419 2475 1153 2201 
Q 888 1928 888 1484 
z
" id="ArialMT-36" transform="scale(0.015625)"/>
       </defs>
       <use xlink:href="#ArialMT-30"/>
       <use x="55.615234" xlink:href="#ArialMT-2e"/>
       <use x="83.398438" xlink:href="#ArialMT-36"/>
      </g>
     </g>
    </g>
    <g id="ytick_5">
     <g id="line2d_11">
      <path clip-path="url(#p94742d2c75)" d="M 57.6 98.105574 
L 414.72 98.105574 
" style="fill:none;stroke:#cccccc;stroke-linecap:round;"/>
     </g>
     <g id="text_12">
      <!-- 0.8 -->
      <g style="fill:#262626;" transform="translate(32.81 102.042371)scale(0.11 -0.11)">
       <defs>
        <path d="M 1131 2484 
Q 781 2613 612 2850 
Q 444 3088 444 3419 
Q 444 3919 803 4259 
Q 1163 4600 1759 4600 
Q 2359 4600 2725 4251 
Q 3091 3903 3091 3403 
Q 3091 3084 2923 2848 
Q 2756 2613 2416 2484 
Q 2838 2347 3058 2040 
Q 3278 1734 3278 1309 
Q 3278 722 2862 322 
Q 2447 -78 1769 -78 
Q 1091 -78 675 323 
Q 259 725 259 1325 
Q 259 1772 486 2073 
Q 713 2375 1131 2484 
z
M 1019 3438 
Q 1019 3113 1228 2906 
Q 1438 2700 1772 2700 
Q 2097 2700 2305 2904 
Q 2513 3109 2513 3406 
Q 2513 3716 2298 3927 
Q 2084 4138 1766 4138 
Q 1444 4138 1231 3931 
Q 1019 3725 1019 3438 
z
M 838 1322 
Q 838 1081 952 856 
Q 1066 631 1291 507 
Q 1516 384 1775 384 
Q 2178 384 2440 643 
Q 2703 903 2703 1303 
Q 2703 1709 2433 1975 
Q 2163 2241 1756 2241 
Q 1359 2241 1098 1978 
Q 838 1716 838 1322 
z
" id="ArialMT-38" transform="scale(0.015625)"/>
       </defs>
       <use xlink:href="#ArialMT-30"/>
       <use x="55.615234" xlink:href="#ArialMT-2e"/>
       <use x="83.398438" xlink:href="#ArialMT-38"/>
      </g>
     </g>
    </g>
    <g id="ytick_6">
     <g id="line2d_12">
      <path clip-path="url(#p94742d2c75)" d="M 57.6 46.482477 
L 414.72 46.482477 
" style="fill:none;stroke:#cccccc;stroke-linecap:round;"/>
     </g>
     <g id="text_13">
      <!-- 1.0 -->
      <g style="fill:#262626;" transform="translate(32.81 50.419274)scale(0.11 -0.11)">
       <use xlink:href="#ArialMT-31"/>
       <use x="55.615234" xlink:href="#ArialMT-2e"/>
       <use x="83.398438" xlink:href="#ArialMT-30"/>
      </g>
     </g>
    </g>
    <g id="text_14">
     <!-- Accuracy -->
     <g style="fill:#262626;" transform="translate(26.284375 199.201125)rotate(-90)scale(0.12 -0.12)">
      <defs>
       <path d="M -9 0 
L 1750 4581 
L 2403 4581 
L 4278 0 
L 3588 0 
L 3053 1388 
L 1138 1388 
L 634 0 
L -9 0 
z
M 1313 1881 
L 2866 1881 
L 2388 3150 
Q 2169 3728 2063 4100 
Q 1975 3659 1816 3225 
L 1313 1881 
z
" id="ArialMT-41" transform="scale(0.015625)"/>
       <path d="M 2588 1216 
L 3141 1144 
Q 3050 572 2676 248 
Q 2303 -75 1759 -75 
Q 1078 -75 664 370 
Q 250 816 250 1647 
Q 250 2184 428 2587 
Q 606 2991 970 3192 
Q 1334 3394 1763 3394 
Q 2303 3394 2647 3120 
Q 2991 2847 3088 2344 
L 2541 2259 
Q 2463 2594 2264 2762 
Q 2066 2931 1784 2931 
Q 1359 2931 1093 2626 
Q 828 2322 828 1663 
Q 828 994 1084 691 
Q 1341 388 1753 388 
Q 2084 388 2306 591 
Q 2528 794 2588 1216 
z
" id="ArialMT-63" transform="scale(0.015625)"/>
       <path d="M 2597 0 
L 2597 488 
Q 2209 -75 1544 -75 
Q 1250 -75 995 37 
Q 741 150 617 320 
Q 494 491 444 738 
Q 409 903 409 1263 
L 409 3319 
L 972 3319 
L 972 1478 
Q 972 1038 1006 884 
Q 1059 663 1231 536 
Q 1403 409 1656 409 
Q 1909 409 2131 539 
Q 2353 669 2445 892 
Q 2538 1116 2538 1541 
L 2538 3319 
L 3100 3319 
L 3100 0 
L 2597 0 
z
" id="ArialMT-75" transform="scale(0.015625)"/>
       <path d="M 416 0 
L 416 3319 
L 922 3319 
L 922 2816 
Q 1116 3169 1280 3281 
Q 1444 3394 1641 3394 
Q 1925 3394 2219 3213 
L 2025 2691 
Q 1819 2813 1613 2813 
Q 1428 2813 1281 2702 
Q 1134 2591 1072 2394 
Q 978 2094 978 1738 
L 978 0 
L 416 0 
z
" id="ArialMT-72" transform="scale(0.015625)"/>
       <path d="M 2588 409 
Q 2275 144 1986 34 
Q 1697 -75 1366 -75 
Q 819 -75 525 192 
Q 231 459 231 875 
Q 231 1119 342 1320 
Q 453 1522 633 1644 
Q 813 1766 1038 1828 
Q 1203 1872 1538 1913 
Q 2219 1994 2541 2106 
Q 2544 2222 2544 2253 
Q 2544 2597 2384 2738 
Q 2169 2928 1744 2928 
Q 1347 2928 1158 2789 
Q 969 2650 878 2297 
L 328 2372 
Q 403 2725 575 2942 
Q 747 3159 1072 3276 
Q 1397 3394 1825 3394 
Q 2250 3394 2515 3294 
Q 2781 3194 2906 3042 
Q 3031 2891 3081 2659 
Q 3109 2516 3109 2141 
L 3109 1391 
Q 3109 606 3145 398 
Q 3181 191 3288 0 
L 2700 0 
Q 2613 175 2588 409 
z
M 2541 1666 
Q 2234 1541 1622 1453 
Q 1275 1403 1131 1340 
Q 988 1278 909 1158 
Q 831 1038 831 891 
Q 831 666 1001 516 
Q 1172 366 1500 366 
Q 1825 366 2078 508 
Q 2331 650 2450 897 
Q 2541 1088 2541 1459 
L 2541 1666 
z
" id="ArialMT-61" transform="scale(0.015625)"/>
       <path d="M 397 -1278 
L 334 -750 
Q 519 -800 656 -800 
Q 844 -800 956 -737 
Q 1069 -675 1141 -563 
Q 1194 -478 1313 -144 
Q 1328 -97 1363 -6 
L 103 3319 
L 709 3319 
L 1400 1397 
Q 1534 1031 1641 628 
Q 1738 1016 1872 1384 
L 2581 3319 
L 3144 3319 
L 1881 -56 
Q 1678 -603 1566 -809 
Q 1416 -1088 1222 -1217 
Q 1028 -1347 759 -1347 
Q 597 -1347 397 -1278 
z
" id="ArialMT-79" transform="scale(0.015625)"/>
      </defs>
      <use xlink:href="#ArialMT-41"/>
      <use x="66.699219" xlink:href="#ArialMT-63"/>
      <use x="116.699219" xlink:href="#ArialMT-63"/>
      <use x="166.699219" xlink:href="#ArialMT-75"/>
      <use x="222.314453" xlink:href="#ArialMT-72"/>
      <use x="255.615234" xlink:href="#ArialMT-61"/>
      <use x="311.230469" xlink:href="#ArialMT-63"/>
      <use x="361.230469" xlink:href="#ArialMT-79"/>
     </g>
    </g>
   </g>
   <g id="PolyCollection_1">
    <defs>
     <path d="M 73.832727 -106.290079 
L 73.832727 -52.642544 
L 82.157203 -253.061618 
L 90.481678 -274.824302 
L 98.806154 -277.354838 
L 107.130629 -278.873172 
L 115.455105 -278.367056 
L 123.77958 -276.342621 
L 132.104056 -279.379273 
L 140.428531 -280.897607 
L 148.753007 -280.897607 
L 157.077483 -281.909825 
L 165.401958 -280.391491 
L 173.726434 -274.318186 
L 182.050909 -282.415926 
L 190.375385 -277.354838 
L 198.69986 -285.958695 
L 207.024336 -282.922042 
L 215.348811 -281.909825 
L 223.673287 -284.440361 
L 231.997762 -281.403708 
L 240.322238 -280.897607 
L 248.646713 -279.88539 
L 256.971189 -279.379273 
L 265.295664 -285.452578 
L 273.62014 -278.367056 
L 281.944615 -283.428143 
L 290.269091 -282.415926 
L 298.593566 -285.958695 
L 306.918042 -284.440361 
L 315.242517 -285.958695 
L 323.566993 -284.440361 
L 331.891469 -287.477013 
L 340.215944 -283.048562 
L 348.54042 -286.464796 
L 356.864895 -285.452578 
L 365.189371 -284.946477 
L 373.513846 -283.93426 
L 381.838322 -280.897607 
L 390.162797 -283.428143 
L 398.487273 -283.93426 
L 398.487273 -286.464796 
L 398.487273 -286.464796 
L 390.162797 -287.98313 
L 381.838322 -286.464796 
L 373.513846 -288.995347 
L 365.189371 -286.970912 
L 356.864895 -286.464796 
L 348.54042 -287.477013 
L 340.215944 -286.970912 
L 331.891469 -290.513666 
L 323.566993 -285.958695 
L 315.242517 -287.98313 
L 306.918042 -292.032 
L 298.593566 -288.995347 
L 290.269091 -286.464796 
L 281.944615 -289.501449 
L 273.62014 -291.525884 
L 265.295664 -288.995347 
L 256.971189 -286.970912 
L 248.646713 -290.513666 
L 240.322238 -288.489231 
L 231.997762 -290.007565 
L 223.673287 -287.477013 
L 215.348811 -284.946477 
L 207.024336 -290.513666 
L 198.69986 -288.489231 
L 190.375385 -287.477013 
L 182.050909 -286.464796 
L 173.726434 -287.477013 
L 165.401958 -285.452578 
L 157.077483 -288.995347 
L 148.753007 -285.452578 
L 140.428531 -282.922042 
L 132.104056 -284.946477 
L 123.77958 -283.93426 
L 115.455105 -283.428143 
L 107.130629 -284.440361 
L 98.806154 -284.946477 
L 90.481678 -279.88539 
L 82.157203 -273.305968 
L 73.832727 -106.290079 
z
" id="md2977d6e96" style="stroke:#4c72b0;stroke-opacity:0.2;"/>
    </defs>
    <g clip-path="url(#p94742d2c75)">
     <use style="fill:#4c72b0;fill-opacity:0.2;stroke:#4c72b0;stroke-opacity:0.2;" x="0" xlink:href="#md2977d6e96" y="345.6"/>
    </g>
   </g>
   <g id="PolyCollection_2">
    <defs>
     <path d="M 73.832727 -68.331916 
L 73.832727 -50.112 
L 82.157203 -265.714345 
L 90.481678 -273.812085 
L 98.806154 -279.379273 
L 107.130629 -275.83652 
L 115.455105 -281.403708 
L 123.77958 -273.812085 
L 132.104056 -279.88539 
L 140.428531 -277.860955 
L 148.753007 -279.379273 
L 157.077483 -276.848737 
L 165.401958 -282.415926 
L 173.726434 -275.83652 
L 182.050909 -276.342621 
L 190.375385 -281.403708 
L 198.69986 -285.452578 
L 207.024336 -278.873172 
L 215.348811 -281.909825 
L 223.673287 -279.88539 
L 231.997762 -280.391491 
L 240.322238 -279.379273 
L 248.646713 -281.909825 
L 256.971189 -282.922042 
L 265.295664 -284.440361 
L 273.62014 -281.909825 
L 281.944615 -280.897607 
L 290.269091 -283.93426 
L 298.593566 -283.428143 
L 306.918042 -283.93426 
L 315.242517 -281.403708 
L 323.566993 -281.036785 
L 331.891469 -284.440361 
L 340.215944 -286.970912 
L 348.54042 -284.440361 
L 356.864895 -281.403708 
L 365.189371 -282.922042 
L 373.513846 -282.922042 
L 381.838322 -283.93426 
L 390.162797 -280.897607 
L 398.487273 -283.428143 
L 398.487273 -290.513666 
L 398.487273 -290.513666 
L 390.162797 -285.452578 
L 381.838322 -286.970912 
L 373.513846 -284.946477 
L 365.189371 -287.98313 
L 356.864895 -286.464796 
L 348.54042 -284.946477 
L 340.215944 -290.007565 
L 331.891469 -284.946477 
L 323.566993 -287.477013 
L 315.242517 -288.489231 
L 306.918042 -291.525884 
L 298.593566 -285.958695 
L 290.269091 -285.958695 
L 281.944615 -284.946477 
L 273.62014 -284.946477 
L 265.295664 -288.489231 
L 256.971189 -285.452578 
L 248.646713 -284.946477 
L 240.322238 -287.98313 
L 231.997762 -290.007565 
L 223.673287 -284.946477 
L 215.348811 -285.958695 
L 207.024336 -282.922042 
L 198.69986 -286.464796 
L 190.375385 -286.970912 
L 182.050909 -284.440361 
L 173.726434 -282.415926 
L 165.401958 -285.452578 
L 157.077483 -284.440361 
L 148.753007 -285.958695 
L 140.428531 -285.958695 
L 132.104056 -283.428143 
L 123.77958 -284.946477 
L 115.455105 -284.440361 
L 107.130629 -284.440361 
L 98.806154 -281.403708 
L 90.481678 -280.391491 
L 82.157203 -269.257098 
L 73.832727 -68.331916 
z
" id="m70baf7bc66" style="stroke:#dd8452;stroke-opacity:0.2;"/>
    </defs>
    <g clip-path="url(#p94742d2c75)">
     <use style="fill:#dd8452;fill-opacity:0.2;stroke:#dd8452;stroke-opacity:0.2;" x="0" xlink:href="#m70baf7bc66" y="345.6"/>
    </g>
   </g>
   <g id="PolyCollection_3">
    <defs>
     <path d="M 73.832727 -74.911332 
L 73.832727 -55.679196 
L 82.157203 -261.665475 
L 90.481678 -275.330403 
L 98.806154 -274.318186 
L 107.130629 -273.305968 
L 115.455105 -279.379273 
L 123.77958 -276.342621 
L 132.104056 -279.88539 
L 140.428531 -280.897607 
L 148.753007 -276.342621 
L 157.077483 -279.88539 
L 165.401958 -281.909825 
L 173.726434 -279.88539 
L 182.050909 -280.897607 
L 190.375385 -282.415926 
L 198.69986 -280.897607 
L 207.024336 -280.897607 
L 215.348811 -281.403708 
L 223.673287 -281.909825 
L 231.997762 -280.391491 
L 240.322238 -281.909825 
L 248.646713 -281.403708 
L 256.971189 -284.946477 
L 265.295664 -282.415926 
L 273.62014 -283.93426 
L 281.944615 -281.909825 
L 290.269091 -282.415926 
L 298.593566 -279.88539 
L 306.918042 -280.897607 
L 315.242517 -279.379273 
L 323.566993 -282.922042 
L 331.891469 -280.391491 
L 340.215944 -287.98313 
L 348.54042 -279.379273 
L 356.864895 -280.897607 
L 365.189371 -282.922042 
L 373.513846 -283.93426 
L 381.838322 -281.909825 
L 390.162797 -280.897607 
L 398.487273 -283.93426 
L 398.487273 -286.970912 
L 398.487273 -286.970912 
L 390.162797 -288.995347 
L 381.838322 -286.970912 
L 373.513846 -291.019782 
L 365.189371 -284.946477 
L 356.864895 -288.489231 
L 348.54042 -282.922042 
L 340.215944 -287.98313 
L 331.891469 -286.464796 
L 323.566993 -287.98313 
L 315.242517 -286.970912 
L 306.918042 -285.452578 
L 298.593566 -287.98313 
L 290.269091 -284.946477 
L 281.944615 -288.489231 
L 273.62014 -283.93426 
L 265.295664 -287.98313 
L 256.971189 -286.464796 
L 248.646713 -286.464796 
L 240.322238 -285.958695 
L 231.997762 -282.922042 
L 223.673287 -287.477013 
L 215.348811 -282.922042 
L 207.024336 -284.946477 
L 198.69986 -283.93426 
L 190.375385 -284.440361 
L 182.050909 -287.477013 
L 173.726434 -285.958695 
L 165.401958 -284.440361 
L 157.077483 -281.909825 
L 148.753007 -285.958695 
L 140.428531 -282.922042 
L 132.104056 -283.428143 
L 123.77958 -280.897607 
L 115.455105 -280.897607 
L 107.130629 -281.403708 
L 98.806154 -280.391491 
L 90.481678 -280.391491 
L 82.157203 -271.281533 
L 73.832727 -74.911332 
z
" id="mdaa91810a1" style="stroke:#55a868;stroke-opacity:0.2;"/>
    </defs>
    <g clip-path="url(#p94742d2c75)">
     <use style="fill:#55a868;fill-opacity:0.2;stroke:#55a868;stroke-opacity:0.2;" x="0" xlink:href="#mdaa91810a1" y="345.6"/>
    </g>
   </g>
   <g id="PolyCollection_4">
    <defs>
     <path d="M 73.832727 -66.307481 
L 73.832727 -64.789155 
L 82.157203 -214.091252 
L 90.481678 -249.518864 
L 98.806154 -248.00053 
L 107.130629 -260.653257 
L 115.455105 -259.134923 
L 123.77958 -264.196011 
L 132.104056 -266.220446 
L 140.428531 -259.64104 
L 148.753007 -265.714345 
L 157.077483 -270.775432 
L 165.401958 -266.726562 
L 173.726434 -271.78765 
L 182.050909 -265.208228 
L 190.375385 -267.232663 
L 198.69986 -270.269316 
L 207.024336 -271.281533 
L 215.348811 -269.257098 
L 223.673287 -271.281533 
L 231.997762 -265.714345 
L 240.322238 -272.293751 
L 248.646713 -268.750997 
L 256.971189 -266.726562 
L 265.295664 -274.318186 
L 273.62014 -268.244881 
L 281.944615 -269.763215 
L 290.269091 -268.244881 
L 298.593566 -270.269316 
L 306.918042 -269.257098 
L 315.242517 -269.257098 
L 323.566993 -270.269316 
L 331.891469 -269.763215 
L 340.215944 -268.750997 
L 348.54042 -274.318186 
L 356.864895 -269.257098 
L 365.189371 -270.269316 
L 373.513846 -267.73878 
L 381.838322 -269.763215 
L 390.162797 -271.281533 
L 398.487273 -266.220446 
L 398.487273 -274.824302 
L 398.487273 -274.824302 
L 390.162797 -274.824302 
L 381.838322 -277.354838 
L 373.513846 -275.83652 
L 365.189371 -272.293751 
L 356.864895 -274.318186 
L 348.54042 -277.860955 
L 340.215944 -276.342621 
L 331.891469 -276.342621 
L 323.566993 -275.83652 
L 315.242517 -278.873172 
L 306.918042 -274.318186 
L 298.593566 -275.330403 
L 290.269091 -275.83652 
L 281.944615 -279.88539 
L 273.62014 -271.281533 
L 265.295664 -279.379273 
L 256.971189 -271.281533 
L 248.646713 -272.293751 
L 240.322238 -276.848737 
L 231.997762 -274.318186 
L 223.673287 -273.137268 
L 215.348811 -272.799867 
L 207.024336 -274.824302 
L 198.69986 -274.318186 
L 190.375385 -269.763215 
L 182.050909 -267.73878 
L 173.726434 -277.354838 
L 165.401958 -275.330403 
L 157.077483 -271.281533 
L 148.753007 -274.318186 
L 140.428531 -273.812085 
L 132.104056 -270.775432 
L 123.77958 -268.244881 
L 115.455105 -266.220446 
L 107.130629 -273.812085 
L 98.806154 -266.726562 
L 90.481678 -252.555517 
L 82.157203 -226.237862 
L 73.832727 -66.307481 
z
" id="md938da1c6a" style="stroke:#c44e52;stroke-opacity:0.2;"/>
    </defs>
    <g clip-path="url(#p94742d2c75)">
     <use style="fill:#c44e52;fill-opacity:0.2;stroke:#c44e52;stroke-opacity:0.2;" x="0" xlink:href="#md938da1c6a" y="345.6"/>
    </g>
   </g>
   <g id="line2d_13">
    <path clip-path="url(#p94742d2c75)" d="M 73.832727 265.458877 
L 82.157203 80.054366 
L 90.481678 67.739045 
L 98.806154 63.352774 
L 107.130629 64.702398 
L 115.455105 64.702398 
L 123.77958 65.377209 
L 132.104056 63.015369 
L 140.428531 63.858881 
L 148.753007 62.509257 
L 157.077483 60.990928 
L 165.401958 62.677963 
L 173.726434 63.858886 
L 182.050909 61.665745 
L 190.375385 62.171857 
L 198.69986 57.954281 
L 207.024336 59.978716 
L 215.348811 62.340552 
L 223.673287 59.135204 
L 231.997762 58.966499 
L 240.322238 62.003151 
L 248.646713 59.810011 
L 256.971189 61.49704 
L 265.295664 58.797793 
L 273.62014 59.47261 
L 281.944615 59.303904 
L 290.269091 61.497045 
L 298.593566 57.61687 
L 306.918042 57.785576 
L 315.242517 58.460387 
L 323.566993 60.484822 
L 331.891469 56.604658 
L 340.215944 60.653528 
L 348.54042 58.629093 
L 356.864895 59.64131 
L 365.189371 59.641305 
L 373.513846 59.472605 
L 381.838322 61.834446 
L 390.162797 59.978716 
L 398.487273 60.484822 
" style="fill:none;stroke:#4c72b0;stroke-linecap:round;stroke-width:1.5;"/>
    <defs>
     <path d="M 0 3 
C 0.795609 3 1.55874 2.683901 2.12132 2.12132 
C 2.683901 1.55874 3 0.795609 3 0 
C 3 -0.795609 2.683901 -1.55874 2.12132 -2.12132 
C 1.55874 -2.683901 0.795609 -3 0 -3 
C -0.795609 -3 -1.55874 -2.683901 -2.12132 -2.12132 
C -2.683901 -1.55874 -3 -0.795609 -3 0 
C -3 0.795609 -2.683901 1.55874 -2.12132 2.12132 
C -1.55874 2.683901 -0.795609 3 0 3 
z
" id="mf820f5b528" style="stroke:#ffffff;stroke-width:0.75;"/>
    </defs>
    <g clip-path="url(#p94742d2c75)">
     <use style="fill:#4c72b0;stroke:#ffffff;stroke-width:0.75;" x="73.832727" xlink:href="#mf820f5b528" y="265.458877"/>
     <use style="fill:#4c72b0;stroke:#ffffff;stroke-width:0.75;" x="82.157203" xlink:href="#mf820f5b528" y="80.054366"/>
     <use style="fill:#4c72b0;stroke:#ffffff;stroke-width:0.75;" x="90.481678" xlink:href="#mf820f5b528" y="67.739045"/>
     <use style="fill:#4c72b0;stroke:#ffffff;stroke-width:0.75;" x="98.806154" xlink:href="#mf820f5b528" y="63.352774"/>
     <use style="fill:#4c72b0;stroke:#ffffff;stroke-width:0.75;" x="107.130629" xlink:href="#mf820f5b528" y="64.702398"/>
     <use style="fill:#4c72b0;stroke:#ffffff;stroke-width:0.75;" x="115.455105" xlink:href="#mf820f5b528" y="64.702398"/>
     <use style="fill:#4c72b0;stroke:#ffffff;stroke-width:0.75;" x="123.77958" xlink:href="#mf820f5b528" y="65.377209"/>
     <use style="fill:#4c72b0;stroke:#ffffff;stroke-width:0.75;" x="132.104056" xlink:href="#mf820f5b528" y="63.015369"/>
     <use style="fill:#4c72b0;stroke:#ffffff;stroke-width:0.75;" x="140.428531" xlink:href="#mf820f5b528" y="63.858881"/>
     <use style="fill:#4c72b0;stroke:#ffffff;stroke-width:0.75;" x="148.753007" xlink:href="#mf820f5b528" y="62.509257"/>
     <use style="fill:#4c72b0;stroke:#ffffff;stroke-width:0.75;" x="157.077483" xlink:href="#mf820f5b528" y="60.990928"/>
     <use style="fill:#4c72b0;stroke:#ffffff;stroke-width:0.75;" x="165.401958" xlink:href="#mf820f5b528" y="62.677963"/>
     <use style="fill:#4c72b0;stroke:#ffffff;stroke-width:0.75;" x="173.726434" xlink:href="#mf820f5b528" y="63.858886"/>
     <use style="fill:#4c72b0;stroke:#ffffff;stroke-width:0.75;" x="182.050909" xlink:href="#mf820f5b528" y="61.665745"/>
     <use style="fill:#4c72b0;stroke:#ffffff;stroke-width:0.75;" x="190.375385" xlink:href="#mf820f5b528" y="62.171857"/>
     <use style="fill:#4c72b0;stroke:#ffffff;stroke-width:0.75;" x="198.69986" xlink:href="#mf820f5b528" y="57.954281"/>
     <use style="fill:#4c72b0;stroke:#ffffff;stroke-width:0.75;" x="207.024336" xlink:href="#mf820f5b528" y="59.978716"/>
     <use style="fill:#4c72b0;stroke:#ffffff;stroke-width:0.75;" x="215.348811" xlink:href="#mf820f5b528" y="62.340552"/>
     <use style="fill:#4c72b0;stroke:#ffffff;stroke-width:0.75;" x="223.673287" xlink:href="#mf820f5b528" y="59.135204"/>
     <use style="fill:#4c72b0;stroke:#ffffff;stroke-width:0.75;" x="231.997762" xlink:href="#mf820f5b528" y="58.966499"/>
     <use style="fill:#4c72b0;stroke:#ffffff;stroke-width:0.75;" x="240.322238" xlink:href="#mf820f5b528" y="62.003151"/>
     <use style="fill:#4c72b0;stroke:#ffffff;stroke-width:0.75;" x="248.646713" xlink:href="#mf820f5b528" y="59.810011"/>
     <use style="fill:#4c72b0;stroke:#ffffff;stroke-width:0.75;" x="256.971189" xlink:href="#mf820f5b528" y="61.49704"/>
     <use style="fill:#4c72b0;stroke:#ffffff;stroke-width:0.75;" x="265.295664" xlink:href="#mf820f5b528" y="58.797793"/>
     <use style="fill:#4c72b0;stroke:#ffffff;stroke-width:0.75;" x="273.62014" xlink:href="#mf820f5b528" y="59.47261"/>
     <use style="fill:#4c72b0;stroke:#ffffff;stroke-width:0.75;" x="281.944615" xlink:href="#mf820f5b528" y="59.303904"/>
     <use style="fill:#4c72b0;stroke:#ffffff;stroke-width:0.75;" x="290.269091" xlink:href="#mf820f5b528" y="61.497045"/>
     <use style="fill:#4c72b0;stroke:#ffffff;stroke-width:0.75;" x="298.593566" xlink:href="#mf820f5b528" y="57.61687"/>
     <use style="fill:#4c72b0;stroke:#ffffff;stroke-width:0.75;" x="306.918042" xlink:href="#mf820f5b528" y="57.785576"/>
     <use style="fill:#4c72b0;stroke:#ffffff;stroke-width:0.75;" x="315.242517" xlink:href="#mf820f5b528" y="58.460387"/>
     <use style="fill:#4c72b0;stroke:#ffffff;stroke-width:0.75;" x="323.566993" xlink:href="#mf820f5b528" y="60.484822"/>
     <use style="fill:#4c72b0;stroke:#ffffff;stroke-width:0.75;" x="331.891469" xlink:href="#mf820f5b528" y="56.604658"/>
     <use style="fill:#4c72b0;stroke:#ffffff;stroke-width:0.75;" x="340.215944" xlink:href="#mf820f5b528" y="60.653528"/>
     <use style="fill:#4c72b0;stroke:#ffffff;stroke-width:0.75;" x="348.54042" xlink:href="#mf820f5b528" y="58.629093"/>
     <use style="fill:#4c72b0;stroke:#ffffff;stroke-width:0.75;" x="356.864895" xlink:href="#mf820f5b528" y="59.64131"/>
     <use style="fill:#4c72b0;stroke:#ffffff;stroke-width:0.75;" x="365.189371" xlink:href="#mf820f5b528" y="59.641305"/>
     <use style="fill:#4c72b0;stroke:#ffffff;stroke-width:0.75;" x="373.513846" xlink:href="#mf820f5b528" y="59.472605"/>
     <use style="fill:#4c72b0;stroke:#ffffff;stroke-width:0.75;" x="381.838322" xlink:href="#mf820f5b528" y="61.834446"/>
     <use style="fill:#4c72b0;stroke:#ffffff;stroke-width:0.75;" x="390.162797" xlink:href="#mf820f5b528" y="59.978716"/>
     <use style="fill:#4c72b0;stroke:#ffffff;stroke-width:0.75;" x="398.487273" xlink:href="#mf820f5b528" y="60.484822"/>
    </g>
   </g>
   <g id="line2d_14">
    <path clip-path="url(#p94742d2c75)" d="M 73.832727 285.197121 
L 82.157203 78.536037 
L 90.481678 67.570345 
L 98.806154 65.545915 
L 107.130629 65.54591 
L 115.455105 63.015369 
L 123.77958 64.533692 
L 132.104056 64.196286 
L 140.428531 63.521475 
L 148.753007 63.352774 
L 157.077483 64.871098 
L 165.401958 61.328339 
L 173.726434 66.558127 
L 182.050909 63.858886 
L 190.375385 62.171851 
L 198.69986 59.810016 
L 207.024336 64.027581 
L 215.348811 61.49704 
L 223.673287 63.690175 
L 231.997762 61.328339 
L 240.322238 61.834446 
L 248.646713 61.66574 
L 256.971189 61.328339 
L 265.295664 58.797798 
L 273.62014 62.171851 
L 281.944615 63.184069 
L 290.269091 60.822228 
L 298.593566 60.484822 
L 306.918042 58.122981 
L 315.242517 60.316122 
L 323.566993 62.003151 
L 331.891469 60.822228 
L 340.215944 57.44817 
L 348.54042 60.990934 
L 356.864895 62.340557 
L 365.189371 60.316117 
L 373.513846 61.66574 
L 381.838322 60.147416 
L 390.162797 62.171851 
L 398.487273 59.47261 
" style="fill:none;stroke:#dd8452;stroke-linecap:round;stroke-width:1.5;"/>
    <defs>
     <path d="M -1.5 3 
L 0 1.5 
L 1.5 3 
L 3 1.5 
L 1.5 0 
L 3 -1.5 
L 1.5 -3 
L 0 -1.5 
L -1.5 -3 
L -3 -1.5 
L -1.5 0 
L -3 1.5 
z
" id="mf88761c39b" style="stroke:#ffffff;stroke-linejoin:miter;stroke-width:0.75;"/>
    </defs>
    <g clip-path="url(#p94742d2c75)">
     <use style="fill:#dd8452;stroke:#ffffff;stroke-linejoin:miter;stroke-width:0.75;" x="73.832727" xlink:href="#mf88761c39b" y="285.197121"/>
     <use style="fill:#dd8452;stroke:#ffffff;stroke-linejoin:miter;stroke-width:0.75;" x="82.157203" xlink:href="#mf88761c39b" y="78.536037"/>
     <use style="fill:#dd8452;stroke:#ffffff;stroke-linejoin:miter;stroke-width:0.75;" x="90.481678" xlink:href="#mf88761c39b" y="67.570345"/>
     <use style="fill:#dd8452;stroke:#ffffff;stroke-linejoin:miter;stroke-width:0.75;" x="98.806154" xlink:href="#mf88761c39b" y="65.545915"/>
     <use style="fill:#dd8452;stroke:#ffffff;stroke-linejoin:miter;stroke-width:0.75;" x="107.130629" xlink:href="#mf88761c39b" y="65.54591"/>
     <use style="fill:#dd8452;stroke:#ffffff;stroke-linejoin:miter;stroke-width:0.75;" x="115.455105" xlink:href="#mf88761c39b" y="63.015369"/>
     <use style="fill:#dd8452;stroke:#ffffff;stroke-linejoin:miter;stroke-width:0.75;" x="123.77958" xlink:href="#mf88761c39b" y="64.533692"/>
     <use style="fill:#dd8452;stroke:#ffffff;stroke-linejoin:miter;stroke-width:0.75;" x="132.104056" xlink:href="#mf88761c39b" y="64.196286"/>
     <use style="fill:#dd8452;stroke:#ffffff;stroke-linejoin:miter;stroke-width:0.75;" x="140.428531" xlink:href="#mf88761c39b" y="63.521475"/>
     <use style="fill:#dd8452;stroke:#ffffff;stroke-linejoin:miter;stroke-width:0.75;" x="148.753007" xlink:href="#mf88761c39b" y="63.352774"/>
     <use style="fill:#dd8452;stroke:#ffffff;stroke-linejoin:miter;stroke-width:0.75;" x="157.077483" xlink:href="#mf88761c39b" y="64.871098"/>
     <use style="fill:#dd8452;stroke:#ffffff;stroke-linejoin:miter;stroke-width:0.75;" x="165.401958" xlink:href="#mf88761c39b" y="61.328339"/>
     <use style="fill:#dd8452;stroke:#ffffff;stroke-linejoin:miter;stroke-width:0.75;" x="173.726434" xlink:href="#mf88761c39b" y="66.558127"/>
     <use style="fill:#dd8452;stroke:#ffffff;stroke-linejoin:miter;stroke-width:0.75;" x="182.050909" xlink:href="#mf88761c39b" y="63.858886"/>
     <use style="fill:#dd8452;stroke:#ffffff;stroke-linejoin:miter;stroke-width:0.75;" x="190.375385" xlink:href="#mf88761c39b" y="62.171851"/>
     <use style="fill:#dd8452;stroke:#ffffff;stroke-linejoin:miter;stroke-width:0.75;" x="198.69986" xlink:href="#mf88761c39b" y="59.810016"/>
     <use style="fill:#dd8452;stroke:#ffffff;stroke-linejoin:miter;stroke-width:0.75;" x="207.024336" xlink:href="#mf88761c39b" y="64.027581"/>
     <use style="fill:#dd8452;stroke:#ffffff;stroke-linejoin:miter;stroke-width:0.75;" x="215.348811" xlink:href="#mf88761c39b" y="61.49704"/>
     <use style="fill:#dd8452;stroke:#ffffff;stroke-linejoin:miter;stroke-width:0.75;" x="223.673287" xlink:href="#mf88761c39b" y="63.690175"/>
     <use style="fill:#dd8452;stroke:#ffffff;stroke-linejoin:miter;stroke-width:0.75;" x="231.997762" xlink:href="#mf88761c39b" y="61.328339"/>
     <use style="fill:#dd8452;stroke:#ffffff;stroke-linejoin:miter;stroke-width:0.75;" x="240.322238" xlink:href="#mf88761c39b" y="61.834446"/>
     <use style="fill:#dd8452;stroke:#ffffff;stroke-linejoin:miter;stroke-width:0.75;" x="248.646713" xlink:href="#mf88761c39b" y="61.66574"/>
     <use style="fill:#dd8452;stroke:#ffffff;stroke-linejoin:miter;stroke-width:0.75;" x="256.971189" xlink:href="#mf88761c39b" y="61.328339"/>
     <use style="fill:#dd8452;stroke:#ffffff;stroke-linejoin:miter;stroke-width:0.75;" x="265.295664" xlink:href="#mf88761c39b" y="58.797798"/>
     <use style="fill:#dd8452;stroke:#ffffff;stroke-linejoin:miter;stroke-width:0.75;" x="273.62014" xlink:href="#mf88761c39b" y="62.171851"/>
     <use style="fill:#dd8452;stroke:#ffffff;stroke-linejoin:miter;stroke-width:0.75;" x="281.944615" xlink:href="#mf88761c39b" y="63.184069"/>
     <use style="fill:#dd8452;stroke:#ffffff;stroke-linejoin:miter;stroke-width:0.75;" x="290.269091" xlink:href="#mf88761c39b" y="60.822228"/>
     <use style="fill:#dd8452;stroke:#ffffff;stroke-linejoin:miter;stroke-width:0.75;" x="298.593566" xlink:href="#mf88761c39b" y="60.484822"/>
     <use style="fill:#dd8452;stroke:#ffffff;stroke-linejoin:miter;stroke-width:0.75;" x="306.918042" xlink:href="#mf88761c39b" y="58.122981"/>
     <use style="fill:#dd8452;stroke:#ffffff;stroke-linejoin:miter;stroke-width:0.75;" x="315.242517" xlink:href="#mf88761c39b" y="60.316122"/>
     <use style="fill:#dd8452;stroke:#ffffff;stroke-linejoin:miter;stroke-width:0.75;" x="323.566993" xlink:href="#mf88761c39b" y="62.003151"/>
     <use style="fill:#dd8452;stroke:#ffffff;stroke-linejoin:miter;stroke-width:0.75;" x="331.891469" xlink:href="#mf88761c39b" y="60.822228"/>
     <use style="fill:#dd8452;stroke:#ffffff;stroke-linejoin:miter;stroke-width:0.75;" x="340.215944" xlink:href="#mf88761c39b" y="57.44817"/>
     <use style="fill:#dd8452;stroke:#ffffff;stroke-linejoin:miter;stroke-width:0.75;" x="348.54042" xlink:href="#mf88761c39b" y="60.990934"/>
     <use style="fill:#dd8452;stroke:#ffffff;stroke-linejoin:miter;stroke-width:0.75;" x="356.864895" xlink:href="#mf88761c39b" y="62.340557"/>
     <use style="fill:#dd8452;stroke:#ffffff;stroke-linejoin:miter;stroke-width:0.75;" x="365.189371" xlink:href="#mf88761c39b" y="60.316117"/>
     <use style="fill:#dd8452;stroke:#ffffff;stroke-linejoin:miter;stroke-width:0.75;" x="373.513846" xlink:href="#mf88761c39b" y="61.66574"/>
     <use style="fill:#dd8452;stroke:#ffffff;stroke-linejoin:miter;stroke-width:0.75;" x="381.838322" xlink:href="#mf88761c39b" y="60.147416"/>
     <use style="fill:#dd8452;stroke:#ffffff;stroke-linejoin:miter;stroke-width:0.75;" x="390.162797" xlink:href="#mf88761c39b" y="62.171851"/>
     <use style="fill:#dd8452;stroke:#ffffff;stroke-linejoin:miter;stroke-width:0.75;" x="398.487273" xlink:href="#mf88761c39b" y="59.47261"/>
    </g>
   </g>
   <g id="line2d_15">
    <path clip-path="url(#p94742d2c75)" d="M 73.832727 280.473439 
L 82.157203 80.729172 
L 90.481678 68.413862 
L 98.806154 68.919973 
L 107.130629 67.907756 
L 115.455105 65.377209 
L 123.77958 66.220721 
L 132.104056 64.196286 
L 140.428531 63.521475 
L 148.753007 63.184069 
L 157.077483 65.039798 
L 165.401958 62.509257 
L 173.726434 61.834446 
L 182.050909 61.834446 
L 190.375385 62.340557 
L 198.69986 63.184069 
L 207.024336 62.171851 
L 215.348811 63.184069 
L 223.673287 60.990934 
L 231.997762 63.858881 
L 240.322238 62.003146 
L 248.646713 61.497045 
L 256.971189 59.978716 
L 265.295664 61.159634 
L 273.62014 61.66574 
L 281.944615 61.328339 
L 290.269091 62.003151 
L 298.593566 62.677958 
L 306.918042 63.184069 
L 315.242517 61.328339 
L 323.566993 60.316117 
L 331.891469 61.834451 
L 340.215944 57.61687 
L 348.54042 64.364992 
L 356.864895 61.328339 
L 365.189371 61.834446 
L 373.513846 58.291682 
L 381.838322 60.990928 
L 390.162797 61.49704 
L 398.487273 59.810011 
" style="fill:none;stroke:#55a868;stroke-linecap:round;stroke-width:1.5;"/>
    <defs>
     <path d="M -2.12132 -2.12132 
L -2.12132 2.12132 
L 2.12132 2.12132 
L 2.12132 -2.12132 
z
" id="m7b5be3b877" style="stroke:#ffffff;stroke-linejoin:miter;stroke-width:0.75;"/>
    </defs>
    <g clip-path="url(#p94742d2c75)">
     <use style="fill:#55a868;stroke:#ffffff;stroke-linejoin:miter;stroke-width:0.75;" x="73.832727" xlink:href="#m7b5be3b877" y="280.473439"/>
     <use style="fill:#55a868;stroke:#ffffff;stroke-linejoin:miter;stroke-width:0.75;" x="82.157203" xlink:href="#m7b5be3b877" y="80.729172"/>
     <use style="fill:#55a868;stroke:#ffffff;stroke-linejoin:miter;stroke-width:0.75;" x="90.481678" xlink:href="#m7b5be3b877" y="68.413862"/>
     <use style="fill:#55a868;stroke:#ffffff;stroke-linejoin:miter;stroke-width:0.75;" x="98.806154" xlink:href="#m7b5be3b877" y="68.919973"/>
     <use style="fill:#55a868;stroke:#ffffff;stroke-linejoin:miter;stroke-width:0.75;" x="107.130629" xlink:href="#m7b5be3b877" y="67.907756"/>
     <use style="fill:#55a868;stroke:#ffffff;stroke-linejoin:miter;stroke-width:0.75;" x="115.455105" xlink:href="#m7b5be3b877" y="65.377209"/>
     <use style="fill:#55a868;stroke:#ffffff;stroke-linejoin:miter;stroke-width:0.75;" x="123.77958" xlink:href="#m7b5be3b877" y="66.220721"/>
     <use style="fill:#55a868;stroke:#ffffff;stroke-linejoin:miter;stroke-width:0.75;" x="132.104056" xlink:href="#m7b5be3b877" y="64.196286"/>
     <use style="fill:#55a868;stroke:#ffffff;stroke-linejoin:miter;stroke-width:0.75;" x="140.428531" xlink:href="#m7b5be3b877" y="63.521475"/>
     <use style="fill:#55a868;stroke:#ffffff;stroke-linejoin:miter;stroke-width:0.75;" x="148.753007" xlink:href="#m7b5be3b877" y="63.184069"/>
     <use style="fill:#55a868;stroke:#ffffff;stroke-linejoin:miter;stroke-width:0.75;" x="157.077483" xlink:href="#m7b5be3b877" y="65.039798"/>
     <use style="fill:#55a868;stroke:#ffffff;stroke-linejoin:miter;stroke-width:0.75;" x="165.401958" xlink:href="#m7b5be3b877" y="62.509257"/>
     <use style="fill:#55a868;stroke:#ffffff;stroke-linejoin:miter;stroke-width:0.75;" x="173.726434" xlink:href="#m7b5be3b877" y="61.834446"/>
     <use style="fill:#55a868;stroke:#ffffff;stroke-linejoin:miter;stroke-width:0.75;" x="182.050909" xlink:href="#m7b5be3b877" y="61.834446"/>
     <use style="fill:#55a868;stroke:#ffffff;stroke-linejoin:miter;stroke-width:0.75;" x="190.375385" xlink:href="#m7b5be3b877" y="62.340557"/>
     <use style="fill:#55a868;stroke:#ffffff;stroke-linejoin:miter;stroke-width:0.75;" x="198.69986" xlink:href="#m7b5be3b877" y="63.184069"/>
     <use style="fill:#55a868;stroke:#ffffff;stroke-linejoin:miter;stroke-width:0.75;" x="207.024336" xlink:href="#m7b5be3b877" y="62.171851"/>
     <use style="fill:#55a868;stroke:#ffffff;stroke-linejoin:miter;stroke-width:0.75;" x="215.348811" xlink:href="#m7b5be3b877" y="63.184069"/>
     <use style="fill:#55a868;stroke:#ffffff;stroke-linejoin:miter;stroke-width:0.75;" x="223.673287" xlink:href="#m7b5be3b877" y="60.990934"/>
     <use style="fill:#55a868;stroke:#ffffff;stroke-linejoin:miter;stroke-width:0.75;" x="231.997762" xlink:href="#m7b5be3b877" y="63.858881"/>
     <use style="fill:#55a868;stroke:#ffffff;stroke-linejoin:miter;stroke-width:0.75;" x="240.322238" xlink:href="#m7b5be3b877" y="62.003146"/>
     <use style="fill:#55a868;stroke:#ffffff;stroke-linejoin:miter;stroke-width:0.75;" x="248.646713" xlink:href="#m7b5be3b877" y="61.497045"/>
     <use style="fill:#55a868;stroke:#ffffff;stroke-linejoin:miter;stroke-width:0.75;" x="256.971189" xlink:href="#m7b5be3b877" y="59.978716"/>
     <use style="fill:#55a868;stroke:#ffffff;stroke-linejoin:miter;stroke-width:0.75;" x="265.295664" xlink:href="#m7b5be3b877" y="61.159634"/>
     <use style="fill:#55a868;stroke:#ffffff;stroke-linejoin:miter;stroke-width:0.75;" x="273.62014" xlink:href="#m7b5be3b877" y="61.66574"/>
     <use style="fill:#55a868;stroke:#ffffff;stroke-linejoin:miter;stroke-width:0.75;" x="281.944615" xlink:href="#m7b5be3b877" y="61.328339"/>
     <use style="fill:#55a868;stroke:#ffffff;stroke-linejoin:miter;stroke-width:0.75;" x="290.269091" xlink:href="#m7b5be3b877" y="62.003151"/>
     <use style="fill:#55a868;stroke:#ffffff;stroke-linejoin:miter;stroke-width:0.75;" x="298.593566" xlink:href="#m7b5be3b877" y="62.677958"/>
     <use style="fill:#55a868;stroke:#ffffff;stroke-linejoin:miter;stroke-width:0.75;" x="306.918042" xlink:href="#m7b5be3b877" y="63.184069"/>
     <use style="fill:#55a868;stroke:#ffffff;stroke-linejoin:miter;stroke-width:0.75;" x="315.242517" xlink:href="#m7b5be3b877" y="61.328339"/>
     <use style="fill:#55a868;stroke:#ffffff;stroke-linejoin:miter;stroke-width:0.75;" x="323.566993" xlink:href="#m7b5be3b877" y="60.316117"/>
     <use style="fill:#55a868;stroke:#ffffff;stroke-linejoin:miter;stroke-width:0.75;" x="331.891469" xlink:href="#m7b5be3b877" y="61.834451"/>
     <use style="fill:#55a868;stroke:#ffffff;stroke-linejoin:miter;stroke-width:0.75;" x="340.215944" xlink:href="#m7b5be3b877" y="57.61687"/>
     <use style="fill:#55a868;stroke:#ffffff;stroke-linejoin:miter;stroke-width:0.75;" x="348.54042" xlink:href="#m7b5be3b877" y="64.364992"/>
     <use style="fill:#55a868;stroke:#ffffff;stroke-linejoin:miter;stroke-width:0.75;" x="356.864895" xlink:href="#m7b5be3b877" y="61.328339"/>
     <use style="fill:#55a868;stroke:#ffffff;stroke-linejoin:miter;stroke-width:0.75;" x="365.189371" xlink:href="#m7b5be3b877" y="61.834446"/>
     <use style="fill:#55a868;stroke:#ffffff;stroke-linejoin:miter;stroke-width:0.75;" x="373.513846" xlink:href="#m7b5be3b877" y="58.291682"/>
     <use style="fill:#55a868;stroke:#ffffff;stroke-linejoin:miter;stroke-width:0.75;" x="381.838322" xlink:href="#m7b5be3b877" y="60.990928"/>
     <use style="fill:#55a868;stroke:#ffffff;stroke-linejoin:miter;stroke-width:0.75;" x="390.162797" xlink:href="#m7b5be3b877" y="61.49704"/>
     <use style="fill:#55a868;stroke:#ffffff;stroke-linejoin:miter;stroke-width:0.75;" x="398.487273" xlink:href="#m7b5be3b877" y="59.810011"/>
    </g>
   </g>
   <g id="line2d_16">
    <path clip-path="url(#p94742d2c75)" d="M 73.832727 279.798628 
L 82.157203 125.266743 
L 90.481678 94.731512 
L 98.806154 88.995618 
L 107.130629 80.223061 
L 115.455105 82.584907 
L 123.77958 79.379554 
L 132.104056 76.511602 
L 140.428531 77.523814 
L 148.753007 74.487167 
L 157.077483 74.655867 
L 165.401958 74.824573 
L 173.726434 70.944403 
L 182.050909 79.210849 
L 190.375385 77.186414 
L 198.69986 72.968843 
L 207.024336 72.462732 
L 215.348811 74.318462 
L 223.673287 73.137544 
L 231.997762 76.511602 
L 240.322238 71.281809 
L 248.646713 74.487167 
L 256.971189 76.342897 
L 265.295664 69.088674 
L 273.62014 75.499385 
L 281.944615 71.956621 
L 290.269091 74.149761 
L 298.593566 72.968843 
L 306.918042 73.643655 
L 315.242517 71.956621 
L 323.566993 72.125326 
L 331.891469 72.800138 
L 340.215944 71.956621 
L 348.54042 69.426079 
L 356.864895 74.149761 
L 365.189371 74.487167 
L 373.513846 73.81235 
L 381.838322 71.956621 
L 390.162797 72.800138 
L 398.487273 76.174196 
" style="fill:none;stroke:#c44e52;stroke-linecap:round;stroke-width:1.5;"/>
    <defs>
     <path d="M -1 3 
L 1 3 
L 1 1 
L 3 1 
L 3 -1 
L 1 -1 
L 1 -3 
L -1 -3 
L -1 -1 
L -3 -1 
L -3 1 
L -1 1 
z
" id="mdf62c146fd" style="stroke:#ffffff;stroke-linejoin:miter;stroke-width:0.75;"/>
    </defs>
    <g clip-path="url(#p94742d2c75)">
     <use style="fill:#c44e52;stroke:#ffffff;stroke-linejoin:miter;stroke-width:0.75;" x="73.832727" xlink:href="#mdf62c146fd" y="279.798628"/>
     <use style="fill:#c44e52;stroke:#ffffff;stroke-linejoin:miter;stroke-width:0.75;" x="82.157203" xlink:href="#mdf62c146fd" y="125.266743"/>
     <use style="fill:#c44e52;stroke:#ffffff;stroke-linejoin:miter;stroke-width:0.75;" x="90.481678" xlink:href="#mdf62c146fd" y="94.731512"/>
     <use style="fill:#c44e52;stroke:#ffffff;stroke-linejoin:miter;stroke-width:0.75;" x="98.806154" xlink:href="#mdf62c146fd" y="88.995618"/>
     <use style="fill:#c44e52;stroke:#ffffff;stroke-linejoin:miter;stroke-width:0.75;" x="107.130629" xlink:href="#mdf62c146fd" y="80.223061"/>
     <use style="fill:#c44e52;stroke:#ffffff;stroke-linejoin:miter;stroke-width:0.75;" x="115.455105" xlink:href="#mdf62c146fd" y="82.584907"/>
     <use style="fill:#c44e52;stroke:#ffffff;stroke-linejoin:miter;stroke-width:0.75;" x="123.77958" xlink:href="#mdf62c146fd" y="79.379554"/>
     <use style="fill:#c44e52;stroke:#ffffff;stroke-linejoin:miter;stroke-width:0.75;" x="132.104056" xlink:href="#mdf62c146fd" y="76.511602"/>
     <use style="fill:#c44e52;stroke:#ffffff;stroke-linejoin:miter;stroke-width:0.75;" x="140.428531" xlink:href="#mdf62c146fd" y="77.523814"/>
     <use style="fill:#c44e52;stroke:#ffffff;stroke-linejoin:miter;stroke-width:0.75;" x="148.753007" xlink:href="#mdf62c146fd" y="74.487167"/>
     <use style="fill:#c44e52;stroke:#ffffff;stroke-linejoin:miter;stroke-width:0.75;" x="157.077483" xlink:href="#mdf62c146fd" y="74.655867"/>
     <use style="fill:#c44e52;stroke:#ffffff;stroke-linejoin:miter;stroke-width:0.75;" x="165.401958" xlink:href="#mdf62c146fd" y="74.824573"/>
     <use style="fill:#c44e52;stroke:#ffffff;stroke-linejoin:miter;stroke-width:0.75;" x="173.726434" xlink:href="#mdf62c146fd" y="70.944403"/>
     <use style="fill:#c44e52;stroke:#ffffff;stroke-linejoin:miter;stroke-width:0.75;" x="182.050909" xlink:href="#mdf62c146fd" y="79.210849"/>
     <use style="fill:#c44e52;stroke:#ffffff;stroke-linejoin:miter;stroke-width:0.75;" x="190.375385" xlink:href="#mdf62c146fd" y="77.186414"/>
     <use style="fill:#c44e52;stroke:#ffffff;stroke-linejoin:miter;stroke-width:0.75;" x="198.69986" xlink:href="#mdf62c146fd" y="72.968843"/>
     <use style="fill:#c44e52;stroke:#ffffff;stroke-linejoin:miter;stroke-width:0.75;" x="207.024336" xlink:href="#mdf62c146fd" y="72.462732"/>
     <use style="fill:#c44e52;stroke:#ffffff;stroke-linejoin:miter;stroke-width:0.75;" x="215.348811" xlink:href="#mdf62c146fd" y="74.318462"/>
     <use style="fill:#c44e52;stroke:#ffffff;stroke-linejoin:miter;stroke-width:0.75;" x="223.673287" xlink:href="#mdf62c146fd" y="73.137544"/>
     <use style="fill:#c44e52;stroke:#ffffff;stroke-linejoin:miter;stroke-width:0.75;" x="231.997762" xlink:href="#mdf62c146fd" y="76.511602"/>
     <use style="fill:#c44e52;stroke:#ffffff;stroke-linejoin:miter;stroke-width:0.75;" x="240.322238" xlink:href="#mdf62c146fd" y="71.281809"/>
     <use style="fill:#c44e52;stroke:#ffffff;stroke-linejoin:miter;stroke-width:0.75;" x="248.646713" xlink:href="#mdf62c146fd" y="74.487167"/>
     <use style="fill:#c44e52;stroke:#ffffff;stroke-linejoin:miter;stroke-width:0.75;" x="256.971189" xlink:href="#mdf62c146fd" y="76.342897"/>
     <use style="fill:#c44e52;stroke:#ffffff;stroke-linejoin:miter;stroke-width:0.75;" x="265.295664" xlink:href="#mdf62c146fd" y="69.088674"/>
     <use style="fill:#c44e52;stroke:#ffffff;stroke-linejoin:miter;stroke-width:0.75;" x="273.62014" xlink:href="#mdf62c146fd" y="75.499385"/>
     <use style="fill:#c44e52;stroke:#ffffff;stroke-linejoin:miter;stroke-width:0.75;" x="281.944615" xlink:href="#mdf62c146fd" y="71.956621"/>
     <use style="fill:#c44e52;stroke:#ffffff;stroke-linejoin:miter;stroke-width:0.75;" x="290.269091" xlink:href="#mdf62c146fd" y="74.149761"/>
     <use style="fill:#c44e52;stroke:#ffffff;stroke-linejoin:miter;stroke-width:0.75;" x="298.593566" xlink:href="#mdf62c146fd" y="72.968843"/>
     <use style="fill:#c44e52;stroke:#ffffff;stroke-linejoin:miter;stroke-width:0.75;" x="306.918042" xlink:href="#mdf62c146fd" y="73.643655"/>
     <use style="fill:#c44e52;stroke:#ffffff;stroke-linejoin:miter;stroke-width:0.75;" x="315.242517" xlink:href="#mdf62c146fd" y="71.956621"/>
     <use style="fill:#c44e52;stroke:#ffffff;stroke-linejoin:miter;stroke-width:0.75;" x="323.566993" xlink:href="#mdf62c146fd" y="72.125326"/>
     <use style="fill:#c44e52;stroke:#ffffff;stroke-linejoin:miter;stroke-width:0.75;" x="331.891469" xlink:href="#mdf62c146fd" y="72.800138"/>
     <use style="fill:#c44e52;stroke:#ffffff;stroke-linejoin:miter;stroke-width:0.75;" x="340.215944" xlink:href="#mdf62c146fd" y="71.956621"/>
     <use style="fill:#c44e52;stroke:#ffffff;stroke-linejoin:miter;stroke-width:0.75;" x="348.54042" xlink:href="#mdf62c146fd" y="69.426079"/>
     <use style="fill:#c44e52;stroke:#ffffff;stroke-linejoin:miter;stroke-width:0.75;" x="356.864895" xlink:href="#mdf62c146fd" y="74.149761"/>
     <use style="fill:#c44e52;stroke:#ffffff;stroke-linejoin:miter;stroke-width:0.75;" x="365.189371" xlink:href="#mdf62c146fd" y="74.487167"/>
     <use style="fill:#c44e52;stroke:#ffffff;stroke-linejoin:miter;stroke-width:0.75;" x="373.513846" xlink:href="#mdf62c146fd" y="73.81235"/>
     <use style="fill:#c44e52;stroke:#ffffff;stroke-linejoin:miter;stroke-width:0.75;" x="381.838322" xlink:href="#mdf62c146fd" y="71.956621"/>
     <use style="fill:#c44e52;stroke:#ffffff;stroke-linejoin:miter;stroke-width:0.75;" x="390.162797" xlink:href="#mdf62c146fd" y="72.800138"/>
     <use style="fill:#c44e52;stroke:#ffffff;stroke-linejoin:miter;stroke-width:0.75;" x="398.487273" xlink:href="#mdf62c146fd" y="76.174196"/>
    </g>
   </g>
   <g id="line2d_17"/>
   <g id="line2d_18"/>
   <g id="line2d_19"/>
   <g id="line2d_20"/>
   <g id="patch_3">
    <path d="M 57.6 307.584 
L 57.6 41.472 
" style="fill:none;stroke:#cccccc;stroke-linecap:square;stroke-linejoin:miter;stroke-width:1.25;"/>
   </g>
   <g id="patch_4">
    <path d="M 414.72 307.584 
L 414.72 41.472 
" style="fill:none;stroke:#cccccc;stroke-linecap:square;stroke-linejoin:miter;stroke-width:1.25;"/>
   </g>
   <g id="patch_5">
    <path d="M 57.6 307.584 
L 414.72 307.584 
" style="fill:none;stroke:#cccccc;stroke-linecap:square;stroke-linejoin:miter;stroke-width:1.25;"/>
   </g>
   <g id="patch_6">
    <path d="M 57.6 41.472 
L 414.72 41.472 
" style="fill:none;stroke:#cccccc;stroke-linecap:square;stroke-linejoin:miter;stroke-width:1.25;"/>
   </g>
   <g id="legend_1">
    <g id="patch_7">
     <path d="M 330.846719 302.084 
L 407.02 302.084 
Q 409.22 302.084 409.22 299.884 
L 409.22 222.129625 
Q 409.22 219.929625 407.02 219.929625 
L 330.846719 219.929625 
Q 328.646719 219.929625 328.646719 222.129625 
L 328.646719 299.884 
Q 328.646719 302.084 330.846719 302.084 
z
" style="fill:#ffffff;opacity:0.8;stroke:#cccccc;stroke-linejoin:miter;"/>
    </g>
    <g id="text_15">
     <!-- Agent -->
     <g style="fill:#262626;" transform="translate(353.254609 232.919)scale(0.12 -0.12)">
      <defs>
       <path d="M 319 -275 
L 866 -356 
Q 900 -609 1056 -725 
Q 1266 -881 1628 -881 
Q 2019 -881 2231 -725 
Q 2444 -569 2519 -288 
Q 2563 -116 2559 434 
Q 2191 0 1641 0 
Q 956 0 581 494 
Q 206 988 206 1678 
Q 206 2153 378 2554 
Q 550 2956 876 3175 
Q 1203 3394 1644 3394 
Q 2231 3394 2613 2919 
L 2613 3319 
L 3131 3319 
L 3131 450 
Q 3131 -325 2973 -648 
Q 2816 -972 2473 -1159 
Q 2131 -1347 1631 -1347 
Q 1038 -1347 672 -1080 
Q 306 -813 319 -275 
z
M 784 1719 
Q 784 1066 1043 766 
Q 1303 466 1694 466 
Q 2081 466 2343 764 
Q 2606 1063 2606 1700 
Q 2606 2309 2336 2618 
Q 2066 2928 1684 2928 
Q 1309 2928 1046 2623 
Q 784 2319 784 1719 
z
" id="ArialMT-67" transform="scale(0.015625)"/>
       <path d="M 422 0 
L 422 3319 
L 928 3319 
L 928 2847 
Q 1294 3394 1984 3394 
Q 2284 3394 2536 3286 
Q 2788 3178 2913 3003 
Q 3038 2828 3088 2588 
Q 3119 2431 3119 2041 
L 3119 0 
L 2556 0 
L 2556 2019 
Q 2556 2363 2490 2533 
Q 2425 2703 2258 2804 
Q 2091 2906 1866 2906 
Q 1506 2906 1245 2678 
Q 984 2450 984 1813 
L 984 0 
L 422 0 
z
" id="ArialMT-6e" transform="scale(0.015625)"/>
      </defs>
      <use xlink:href="#ArialMT-41"/>
      <use x="66.699219" xlink:href="#ArialMT-67"/>
      <use x="122.314453" xlink:href="#ArialMT-65"/>
      <use x="177.929688" xlink:href="#ArialMT-6e"/>
      <use x="233.544922" xlink:href="#ArialMT-74"/>
     </g>
    </g>
    <g id="line2d_21">
     <path d="M 333.046719 244.968219 
L 355.046719 244.968219 
" style="fill:none;stroke:#4c72b0;stroke-linecap:round;stroke-width:1.5;"/>
    </g>
    <g id="line2d_22">
     <defs>
      <path d="M 0 3 
C 0.795609 3 1.55874 2.683901 2.12132 2.12132 
C 2.683901 1.55874 3 0.795609 3 0 
C 3 -0.795609 2.683901 -1.55874 2.12132 -2.12132 
C 1.55874 -2.683901 0.795609 -3 0 -3 
C -0.795609 -3 -1.55874 -2.683901 -2.12132 -2.12132 
C -2.683901 -1.55874 -3 -0.795609 -3 0 
C -3 0.795609 -2.683901 1.55874 -2.12132 2.12132 
C -1.55874 2.683901 -0.795609 3 0 3 
z
" id="m51491d4fb5" style="stroke:#4c72b0;"/>
     </defs>
     <g>
      <use style="fill:#4c72b0;stroke:#4c72b0;" x="344.046719" xlink:href="#m51491d4fb5" y="244.968219"/>
     </g>
    </g>
    <g id="text_16">
     <!-- A -->
     <g style="fill:#262626;" transform="translate(363.846719 248.818219)scale(0.11 -0.11)">
      <use xlink:href="#ArialMT-41"/>
     </g>
    </g>
    <g id="line2d_23">
     <path d="M 333.046719 260.528062 
L 355.046719 260.528062 
" style="fill:none;stroke:#dd8452;stroke-linecap:round;stroke-width:1.5;"/>
    </g>
    <g id="line2d_24">
     <defs>
      <path d="M -1.5 3 
L 0 1.5 
L 1.5 3 
L 3 1.5 
L 1.5 0 
L 3 -1.5 
L 1.5 -3 
L 0 -1.5 
L -1.5 -3 
L -3 -1.5 
L -1.5 0 
L -3 1.5 
z
" id="m79ada10314" style="stroke:#dd8452;stroke-linejoin:miter;"/>
     </defs>
     <g>
      <use style="fill:#dd8452;stroke:#dd8452;stroke-linejoin:miter;" x="344.046719" xlink:href="#m79ada10314" y="260.528062"/>
     </g>
    </g>
    <g id="text_17">
     <!-- B -->
     <g style="fill:#262626;" transform="translate(363.846719 264.378062)scale(0.11 -0.11)">
      <defs>
       <path d="M 469 0 
L 469 4581 
L 2188 4581 
Q 2713 4581 3030 4442 
Q 3347 4303 3526 4014 
Q 3706 3725 3706 3409 
Q 3706 3116 3547 2856 
Q 3388 2597 3066 2438 
Q 3481 2316 3704 2022 
Q 3928 1728 3928 1328 
Q 3928 1006 3792 729 
Q 3656 453 3456 303 
Q 3256 153 2954 76 
Q 2653 0 2216 0 
L 469 0 
z
M 1075 2656 
L 2066 2656 
Q 2469 2656 2644 2709 
Q 2875 2778 2992 2937 
Q 3109 3097 3109 3338 
Q 3109 3566 3000 3739 
Q 2891 3913 2687 3977 
Q 2484 4041 1991 4041 
L 1075 4041 
L 1075 2656 
z
M 1075 541 
L 2216 541 
Q 2509 541 2628 563 
Q 2838 600 2978 687 
Q 3119 775 3209 942 
Q 3300 1109 3300 1328 
Q 3300 1584 3169 1773 
Q 3038 1963 2805 2039 
Q 2572 2116 2134 2116 
L 1075 2116 
L 1075 541 
z
" id="ArialMT-42" transform="scale(0.015625)"/>
      </defs>
      <use xlink:href="#ArialMT-42"/>
     </g>
    </g>
    <g id="line2d_25">
     <path d="M 333.046719 276.087906 
L 355.046719 276.087906 
" style="fill:none;stroke:#55a868;stroke-linecap:round;stroke-width:1.5;"/>
    </g>
    <g id="line2d_26">
     <defs>
      <path d="M -2.12132 -2.12132 
L -2.12132 2.12132 
L 2.12132 2.12132 
L 2.12132 -2.12132 
z
" id="m816920345c" style="stroke:#55a868;stroke-linejoin:miter;"/>
     </defs>
     <g>
      <use style="fill:#55a868;stroke:#55a868;stroke-linejoin:miter;" x="344.046719" xlink:href="#m816920345c" y="276.087906"/>
     </g>
    </g>
    <g id="text_18">
     <!-- C -->
     <g style="fill:#262626;" transform="translate(363.846719 279.937906)scale(0.11 -0.11)">
      <defs>
       <path d="M 3763 1606 
L 4369 1453 
Q 4178 706 3683 314 
Q 3188 -78 2472 -78 
Q 1731 -78 1267 223 
Q 803 525 561 1097 
Q 319 1669 319 2325 
Q 319 3041 592 3573 
Q 866 4106 1370 4382 
Q 1875 4659 2481 4659 
Q 3169 4659 3637 4309 
Q 4106 3959 4291 3325 
L 3694 3184 
Q 3534 3684 3231 3912 
Q 2928 4141 2469 4141 
Q 1941 4141 1586 3887 
Q 1231 3634 1087 3207 
Q 944 2781 944 2328 
Q 944 1744 1114 1308 
Q 1284 872 1643 656 
Q 2003 441 2422 441 
Q 2931 441 3284 734 
Q 3638 1028 3763 1606 
z
" id="ArialMT-43" transform="scale(0.015625)"/>
      </defs>
      <use xlink:href="#ArialMT-43"/>
     </g>
    </g>
    <g id="line2d_27">
     <path d="M 333.046719 291.64775 
L 355.046719 291.64775 
" style="fill:none;stroke:#c44e52;stroke-linecap:round;stroke-width:1.5;"/>
    </g>
    <g id="line2d_28">
     <defs>
      <path d="M -1 3 
L 1 3 
L 1 1 
L 3 1 
L 3 -1 
L 1 -1 
L 1 -3 
L -1 -3 
L -1 -1 
L -3 -1 
L -3 1 
L -1 1 
z
" id="mfea7802ad1" style="stroke:#c44e52;stroke-linejoin:miter;"/>
     </defs>
     <g>
      <use style="fill:#c44e52;stroke:#c44e52;stroke-linejoin:miter;" x="344.046719" xlink:href="#mfea7802ad1" y="291.64775"/>
     </g>
    </g>
    <g id="text_19">
     <!-- baseline -->
     <g style="fill:#262626;" transform="translate(363.846719 295.49775)scale(0.11 -0.11)">
      <defs>
       <path d="M 941 0 
L 419 0 
L 419 4581 
L 981 4581 
L 981 2947 
Q 1338 3394 1891 3394 
Q 2197 3394 2470 3270 
Q 2744 3147 2920 2923 
Q 3097 2700 3197 2384 
Q 3297 2069 3297 1709 
Q 3297 856 2875 390 
Q 2453 -75 1863 -75 
Q 1275 -75 941 416 
L 941 0 
z
M 934 1684 
Q 934 1088 1097 822 
Q 1363 388 1816 388 
Q 2184 388 2453 708 
Q 2722 1028 2722 1663 
Q 2722 2313 2464 2622 
Q 2206 2931 1841 2931 
Q 1472 2931 1203 2611 
Q 934 2291 934 1684 
z
" id="ArialMT-62" transform="scale(0.015625)"/>
       <path d="M 197 991 
L 753 1078 
Q 800 744 1014 566 
Q 1228 388 1613 388 
Q 2000 388 2187 545 
Q 2375 703 2375 916 
Q 2375 1106 2209 1216 
Q 2094 1291 1634 1406 
Q 1016 1563 777 1677 
Q 538 1791 414 1992 
Q 291 2194 291 2438 
Q 291 2659 392 2848 
Q 494 3038 669 3163 
Q 800 3259 1026 3326 
Q 1253 3394 1513 3394 
Q 1903 3394 2198 3281 
Q 2494 3169 2634 2976 
Q 2775 2784 2828 2463 
L 2278 2388 
Q 2241 2644 2061 2787 
Q 1881 2931 1553 2931 
Q 1166 2931 1000 2803 
Q 834 2675 834 2503 
Q 834 2394 903 2306 
Q 972 2216 1119 2156 
Q 1203 2125 1616 2013 
Q 2213 1853 2448 1751 
Q 2684 1650 2818 1456 
Q 2953 1263 2953 975 
Q 2953 694 2789 445 
Q 2625 197 2315 61 
Q 2006 -75 1616 -75 
Q 969 -75 630 194 
Q 291 463 197 991 
z
" id="ArialMT-73" transform="scale(0.015625)"/>
       <path d="M 409 0 
L 409 4581 
L 972 4581 
L 972 0 
L 409 0 
z
" id="ArialMT-6c" transform="scale(0.015625)"/>
       <path d="M 425 3934 
L 425 4581 
L 988 4581 
L 988 3934 
L 425 3934 
z
M 425 0 
L 425 3319 
L 988 3319 
L 988 0 
L 425 0 
z
" id="ArialMT-69" transform="scale(0.015625)"/>
      </defs>
      <use xlink:href="#ArialMT-62"/>
      <use x="55.615234" xlink:href="#ArialMT-61"/>
      <use x="111.230469" xlink:href="#ArialMT-73"/>
      <use x="161.230469" xlink:href="#ArialMT-65"/>
      <use x="216.845703" xlink:href="#ArialMT-6c"/>
      <use x="239.0625" xlink:href="#ArialMT-69"/>
      <use x="261.279297" xlink:href="#ArialMT-6e"/>
      <use x="316.894531" xlink:href="#ArialMT-65"/>
     </g>
    </g>
   </g>
  </g>
 </g>
 <defs>
  <clipPath id="p94742d2c75">
   <rect height="266.112" width="357.12" x="57.6" y="41.472"/>
  </clipPath>
 </defs>
</svg>
