<?xml version="1.0" encoding="utf-8" standalone="no"?>
<!DOCTYPE svg PUBLIC "-//W3C//DTD SVG 1.1//EN"
  "http://www.w3.org/Graphics/SVG/1.1/DTD/svg11.dtd">
<svg height="345.6pt" version="1.1" viewBox="0 0 460.8 345.6" width="460.8pt" xmlns="http://www.w3.org/2000/svg" xmlns:xlink="http://www.w3.org/1999/xlink">
 <metadata>
  <rdf:RDF xmlns:cc="http://creativecommons.org/ns#" xmlns:dc="http://purl.org/dc/elements/1.1/" xmlns:rdf="http://www.w3.org/1999/02/22-rdf-syntax-ns#">
   <cc:Work>
    <dc:type rdf:resource="http://purl.org/dc/dcmitype/StillImage"/>
    <dc:date>2021-04-19T13:23:32.981186</dc:date>
    <dc:format>image/svg+xml</dc:format>
    <dc:creator>
     <cc:Agent>
      <dc:title>Matplotlib v3.4.0, https://matplotlib.org/</dc:title>
     </cc:Agent>
    </dc:creator>
   </cc:Work>
  </rdf:RDF>
 </metadata>
 <defs>
  <style type="text/css">*{stroke-linecap:butt;stroke-linejoin:round;}</style>
 </defs>
 <g id="figure_1">
  <g id="patch_1">
   <path d="M 0 345.6 
L 460.8 345.6 
L 460.8 0 
L 0 0 
z
" style="fill:#ffffff;"/>
  </g>
  <g id="axes_1">
   <g id="patch_2">
    <path d="M 57.6 307.584 
L 414.72 307.584 
L 414.72 41.472 
L 57.6 41.472 
z
" style="fill:#ffffff;"/>
   </g>
   <g id="PolyCollection_1">
    <defs>
     <path d="M 73.832727 -118.167529 
L 73.832727 -50.112 
L 90.919809 -113.696728 
L 108.00689 -187.216569 
L 125.093971 -259.742892 
L 142.181053 -273.652049 
L 159.268134 -274.148797 
L 176.355215 -275.142309 
L 193.442297 -275.142309 
L 210.529378 -276.13582 
L 227.616459 -273.652049 
L 244.703541 -275.142309 
L 261.790622 -281.765717 
L 278.877703 -281.600139 
L 295.964785 -283.587162 
L 313.051866 -279.116354 
L 330.138947 -281.103376 
L 347.226029 -280.109865 
L 364.31311 -282.096887 
L 381.400191 -280.606628 
L 398.487273 -282.759228 
L 398.487273 -291.038489 
L 398.487273 -291.038489 
L 381.400191 -292.032 
L 364.31311 -287.064444 
L 347.226029 -289.051466 
L 330.138947 -287.561207 
L 313.051866 -283.090399 
L 295.964785 -286.070932 
L 278.877703 -287.064444 
L 261.790622 -286.567696 
L 244.703541 -287.561207 
L 227.616459 -289.051466 
L 210.529378 -282.593651 
L 193.442297 -282.928956 
L 176.355215 -283.587162 
L 159.268134 -283.587162 
L 142.181053 -283.090399 
L 125.093971 -271.665027 
L 108.00689 -246.827245 
L 90.919809 -199.138704 
L 73.832727 -118.167529 
z
" id="mdd7c350636" style="stroke:#1f77b4;stroke-opacity:0.2;"/>
    </defs>
    <g clip-path="url(#pb8ce521cd2)">
     <use style="fill:#1f77b4;fill-opacity:0.2;stroke:#1f77b4;stroke-opacity:0.2;" x="0" xlink:href="#mdd7c350636" y="345.6"/>
    </g>
   </g>
   <g id="PolyCollection_2">
    <defs>
     <path d="M 73.832727 -155.424201 
L 73.832727 -69.485472 
L 90.919809 -217.518655 
L 108.00689 -272.658538 
L 125.093971 -282.262475 
L 142.181053 -279.116354 
L 159.268134 -282.096887 
L 176.355215 -285.077421 
L 193.442297 -282.096887 
L 210.529378 -282.593651 
L 227.616459 -281.103376 
L 244.703541 -283.090399 
L 261.790622 -280.109865 
L 278.877703 -284.580673 
L 295.964785 -276.632583 
L 313.051866 -284.580673 
L 330.138947 -280.606628 
L 347.226029 -285.574184 
L 364.31311 -281.600139 
L 381.400191 -285.077421 
L 398.487273 -281.600139 
L 398.487273 -283.090399 
L 398.487273 -283.090399 
L 381.400191 -289.051466 
L 364.31311 -287.561207 
L 347.226029 -287.561207 
L 330.138947 -286.070932 
L 313.051866 -288.554718 
L 295.964785 -288.057955 
L 278.877703 -288.057955 
L 261.790622 -290.541741 
L 244.703541 -288.554718 
L 227.616459 -286.567696 
L 210.529378 -286.567696 
L 193.442297 -285.574184 
L 176.355215 -286.070932 
L 159.268134 -287.561207 
L 142.181053 -287.561207 
L 125.093971 -284.08391 
L 108.00689 -280.606628 
L 90.919809 -234.408347 
L 73.832727 -155.424201 
z
" id="m1fd713f75b" style="stroke:#ff7f0e;stroke-opacity:0.2;"/>
    </defs>
    <g clip-path="url(#pb8ce521cd2)">
     <use style="fill:#ff7f0e;fill-opacity:0.2;stroke:#ff7f0e;stroke-opacity:0.2;" x="0" xlink:href="#m1fd713f75b" y="345.6"/>
    </g>
   </g>
   <g id="PolyCollection_3">
    <defs>
     <path d="M 73.832727 -122.63833 
L 73.832727 -50.112 
L 90.919809 -133.566954 
L 108.00689 -239.375903 
L 125.093971 -275.142309 
L 142.181053 -277.129331 
L 159.268134 -281.103376 
L 176.355215 -275.639072 
L 193.442297 -275.639072 
L 210.529378 -282.593651 
L 227.616459 -277.626094 
L 244.703541 -279.116354 
L 261.790622 -280.109865 
L 278.877703 -279.116354 
L 295.964785 -279.116354 
L 313.051866 -280.606628 
L 330.138947 -280.109865 
L 347.226029 -276.13582 
L 364.31311 -278.619606 
L 381.400191 -282.096887 
L 398.487273 -280.109865 
L 398.487273 -285.574184 
L 398.487273 -285.574184 
L 381.400191 -286.567696 
L 364.31311 -287.561207 
L 347.226029 -284.08391 
L 330.138947 -284.08391 
L 313.051866 -288.554718 
L 295.964785 -283.090399 
L 278.877703 -284.580673 
L 261.790622 -287.064444 
L 244.703541 -285.574184 
L 227.616459 -282.096887 
L 210.529378 -283.587162 
L 193.442297 -286.070932 
L 176.355215 -287.064444 
L 159.268134 -285.077421 
L 142.181053 -282.096887 
L 125.093971 -281.600139 
L 108.00689 -269.678004 
L 90.919809 -247.323993 
L 73.832727 -122.63833 
z
" id="m0015caeadc" style="stroke:#2ca02c;stroke-opacity:0.2;"/>
    </defs>
    <g clip-path="url(#pb8ce521cd2)">
     <use style="fill:#2ca02c;fill-opacity:0.2;stroke:#2ca02c;stroke-opacity:0.2;" x="0" xlink:href="#m0015caeadc" y="345.6"/>
    </g>
   </g>
   <g id="PolyCollection_4">
    <defs>
     <path d="M 73.832727 -111.212946 
L 73.832727 -57.066579 
L 90.919809 -144.495577 
L 108.00689 -226.95702 
L 125.093971 -242.356437 
L 142.181053 -246.330482 
L 159.268134 -267.194218 
L 176.355215 -271.168263 
L 193.442297 -271.168263 
L 210.529378 -265.703959 
L 227.616459 -273.652049 
L 244.703541 -279.116354 
L 261.790622 -277.129331 
L 278.877703 -272.658538 
L 295.964785 -273.155286 
L 313.051866 -273.652049 
L 330.138947 -275.639072 
L 347.226029 -277.626094 
L 364.31311 -277.626094 
L 381.400191 -278.122842 
L 398.487273 -283.090399 
L 398.487273 -287.561207 
L 398.487273 -287.561207 
L 381.400191 -282.593651 
L 364.31311 -284.580673 
L 347.226029 -283.090399 
L 330.138947 -279.613117 
L 313.051866 -284.580673 
L 295.964785 -276.13582 
L 278.877703 -277.626094 
L 261.790622 -287.064444 
L 244.703541 -280.109865 
L 227.616459 -279.613117 
L 210.529378 -278.619606 
L 193.442297 -278.122842 
L 176.355215 -276.13582 
L 159.268134 -271.665027 
L 142.181053 -268.684493 
L 125.093971 -257.259106 
L 108.00689 -237.388881 
L 90.919809 -174.797671 
L 73.832727 -111.212946 
z
" id="m4c400ed3cc" style="stroke:#d62728;stroke-opacity:0.2;"/>
    </defs>
    <g clip-path="url(#pb8ce521cd2)">
     <use style="fill:#d62728;fill-opacity:0.2;stroke:#d62728;stroke-opacity:0.2;" x="0" xlink:href="#m4c400ed3cc" y="345.6"/>
    </g>
   </g>
   <g id="matplotlib.axis_1">
    <g id="xtick_1">
     <g id="line2d_1">
      <defs>
       <path d="M 0 0 
L 0 3.5 
" id="m90c147a2cb" style="stroke:#000000;stroke-width:0.8;"/>
      </defs>
      <g>
       <use style="stroke:#000000;stroke-width:0.8;" x="73.832727" xlink:href="#m90c147a2cb" y="307.584"/>
      </g>
     </g>
     <g id="text_1">
      <!-- 0 -->
      <g transform="translate(70.651477 322.182437)scale(0.1 -0.1)">
       <defs>
        <path d="M 2034 4250 
Q 1547 4250 1301 3770 
Q 1056 3291 1056 2328 
Q 1056 1369 1301 889 
Q 1547 409 2034 409 
Q 2525 409 2770 889 
Q 3016 1369 3016 2328 
Q 3016 3291 2770 3770 
Q 2525 4250 2034 4250 
z
M 2034 4750 
Q 2819 4750 3233 4129 
Q 3647 3509 3647 2328 
Q 3647 1150 3233 529 
Q 2819 -91 2034 -91 
Q 1250 -91 836 529 
Q 422 1150 422 2328 
Q 422 3509 836 4129 
Q 1250 4750 2034 4750 
z
" id="DejaVuSans-30" transform="scale(0.015625)"/>
       </defs>
       <use xlink:href="#DejaVuSans-30"/>
      </g>
     </g>
    </g>
    <g id="xtick_2">
     <g id="line2d_2">
      <g>
       <use style="stroke:#000000;stroke-width:0.8;" x="142.181053" xlink:href="#m90c147a2cb" y="307.584"/>
      </g>
     </g>
     <g id="text_2">
      <!-- 200 -->
      <g transform="translate(132.637303 322.182437)scale(0.1 -0.1)">
       <defs>
        <path d="M 1228 531 
L 3431 531 
L 3431 0 
L 469 0 
L 469 531 
Q 828 903 1448 1529 
Q 2069 2156 2228 2338 
Q 2531 2678 2651 2914 
Q 2772 3150 2772 3378 
Q 2772 3750 2511 3984 
Q 2250 4219 1831 4219 
Q 1534 4219 1204 4116 
Q 875 4013 500 3803 
L 500 4441 
Q 881 4594 1212 4672 
Q 1544 4750 1819 4750 
Q 2544 4750 2975 4387 
Q 3406 4025 3406 3419 
Q 3406 3131 3298 2873 
Q 3191 2616 2906 2266 
Q 2828 2175 2409 1742 
Q 1991 1309 1228 531 
z
" id="DejaVuSans-32" transform="scale(0.015625)"/>
       </defs>
       <use xlink:href="#DejaVuSans-32"/>
       <use x="63.623047" xlink:href="#DejaVuSans-30"/>
       <use x="127.246094" xlink:href="#DejaVuSans-30"/>
      </g>
     </g>
    </g>
    <g id="xtick_3">
     <g id="line2d_3">
      <g>
       <use style="stroke:#000000;stroke-width:0.8;" x="210.529378" xlink:href="#m90c147a2cb" y="307.584"/>
      </g>
     </g>
     <g id="text_3">
      <!-- 400 -->
      <g transform="translate(200.985628 322.182437)scale(0.1 -0.1)">
       <defs>
        <path d="M 2419 4116 
L 825 1625 
L 2419 1625 
L 2419 4116 
z
M 2253 4666 
L 3047 4666 
L 3047 1625 
L 3713 1625 
L 3713 1100 
L 3047 1100 
L 3047 0 
L 2419 0 
L 2419 1100 
L 313 1100 
L 313 1709 
L 2253 4666 
z
" id="DejaVuSans-34" transform="scale(0.015625)"/>
       </defs>
       <use xlink:href="#DejaVuSans-34"/>
       <use x="63.623047" xlink:href="#DejaVuSans-30"/>
       <use x="127.246094" xlink:href="#DejaVuSans-30"/>
      </g>
     </g>
    </g>
    <g id="xtick_4">
     <g id="line2d_4">
      <g>
       <use style="stroke:#000000;stroke-width:0.8;" x="278.877703" xlink:href="#m90c147a2cb" y="307.584"/>
      </g>
     </g>
     <g id="text_4">
      <!-- 600 -->
      <g transform="translate(269.333953 322.182437)scale(0.1 -0.1)">
       <defs>
        <path d="M 2113 2584 
Q 1688 2584 1439 2293 
Q 1191 2003 1191 1497 
Q 1191 994 1439 701 
Q 1688 409 2113 409 
Q 2538 409 2786 701 
Q 3034 994 3034 1497 
Q 3034 2003 2786 2293 
Q 2538 2584 2113 2584 
z
M 3366 4563 
L 3366 3988 
Q 3128 4100 2886 4159 
Q 2644 4219 2406 4219 
Q 1781 4219 1451 3797 
Q 1122 3375 1075 2522 
Q 1259 2794 1537 2939 
Q 1816 3084 2150 3084 
Q 2853 3084 3261 2657 
Q 3669 2231 3669 1497 
Q 3669 778 3244 343 
Q 2819 -91 2113 -91 
Q 1303 -91 875 529 
Q 447 1150 447 2328 
Q 447 3434 972 4092 
Q 1497 4750 2381 4750 
Q 2619 4750 2861 4703 
Q 3103 4656 3366 4563 
z
" id="DejaVuSans-36" transform="scale(0.015625)"/>
       </defs>
       <use xlink:href="#DejaVuSans-36"/>
       <use x="63.623047" xlink:href="#DejaVuSans-30"/>
       <use x="127.246094" xlink:href="#DejaVuSans-30"/>
      </g>
     </g>
    </g>
    <g id="xtick_5">
     <g id="line2d_5">
      <g>
       <use style="stroke:#000000;stroke-width:0.8;" x="347.226029" xlink:href="#m90c147a2cb" y="307.584"/>
      </g>
     </g>
     <g id="text_5">
      <!-- 800 -->
      <g transform="translate(337.682279 322.182437)scale(0.1 -0.1)">
       <defs>
        <path d="M 2034 2216 
Q 1584 2216 1326 1975 
Q 1069 1734 1069 1313 
Q 1069 891 1326 650 
Q 1584 409 2034 409 
Q 2484 409 2743 651 
Q 3003 894 3003 1313 
Q 3003 1734 2745 1975 
Q 2488 2216 2034 2216 
z
M 1403 2484 
Q 997 2584 770 2862 
Q 544 3141 544 3541 
Q 544 4100 942 4425 
Q 1341 4750 2034 4750 
Q 2731 4750 3128 4425 
Q 3525 4100 3525 3541 
Q 3525 3141 3298 2862 
Q 3072 2584 2669 2484 
Q 3125 2378 3379 2068 
Q 3634 1759 3634 1313 
Q 3634 634 3220 271 
Q 2806 -91 2034 -91 
Q 1263 -91 848 271 
Q 434 634 434 1313 
Q 434 1759 690 2068 
Q 947 2378 1403 2484 
z
M 1172 3481 
Q 1172 3119 1398 2916 
Q 1625 2713 2034 2713 
Q 2441 2713 2670 2916 
Q 2900 3119 2900 3481 
Q 2900 3844 2670 4047 
Q 2441 4250 2034 4250 
Q 1625 4250 1398 4047 
Q 1172 3844 1172 3481 
z
" id="DejaVuSans-38" transform="scale(0.015625)"/>
       </defs>
       <use xlink:href="#DejaVuSans-38"/>
       <use x="63.623047" xlink:href="#DejaVuSans-30"/>
       <use x="127.246094" xlink:href="#DejaVuSans-30"/>
      </g>
     </g>
    </g>
    <g id="text_6">
     <!-- Step -->
     <g transform="translate(224.774844 335.860562)scale(0.1 -0.1)">
      <defs>
       <path d="M 3425 4513 
L 3425 3897 
Q 3066 4069 2747 4153 
Q 2428 4238 2131 4238 
Q 1616 4238 1336 4038 
Q 1056 3838 1056 3469 
Q 1056 3159 1242 3001 
Q 1428 2844 1947 2747 
L 2328 2669 
Q 3034 2534 3370 2195 
Q 3706 1856 3706 1288 
Q 3706 609 3251 259 
Q 2797 -91 1919 -91 
Q 1588 -91 1214 -16 
Q 841 59 441 206 
L 441 856 
Q 825 641 1194 531 
Q 1563 422 1919 422 
Q 2459 422 2753 634 
Q 3047 847 3047 1241 
Q 3047 1584 2836 1778 
Q 2625 1972 2144 2069 
L 1759 2144 
Q 1053 2284 737 2584 
Q 422 2884 422 3419 
Q 422 4038 858 4394 
Q 1294 4750 2059 4750 
Q 2388 4750 2728 4690 
Q 3069 4631 3425 4513 
z
" id="DejaVuSans-53" transform="scale(0.015625)"/>
       <path d="M 1172 4494 
L 1172 3500 
L 2356 3500 
L 2356 3053 
L 1172 3053 
L 1172 1153 
Q 1172 725 1289 603 
Q 1406 481 1766 481 
L 2356 481 
L 2356 0 
L 1766 0 
Q 1100 0 847 248 
Q 594 497 594 1153 
L 594 3053 
L 172 3053 
L 172 3500 
L 594 3500 
L 594 4494 
L 1172 4494 
z
" id="DejaVuSans-74" transform="scale(0.015625)"/>
       <path d="M 3597 1894 
L 3597 1613 
L 953 1613 
Q 991 1019 1311 708 
Q 1631 397 2203 397 
Q 2534 397 2845 478 
Q 3156 559 3463 722 
L 3463 178 
Q 3153 47 2828 -22 
Q 2503 -91 2169 -91 
Q 1331 -91 842 396 
Q 353 884 353 1716 
Q 353 2575 817 3079 
Q 1281 3584 2069 3584 
Q 2775 3584 3186 3129 
Q 3597 2675 3597 1894 
z
M 3022 2063 
Q 3016 2534 2758 2815 
Q 2500 3097 2075 3097 
Q 1594 3097 1305 2825 
Q 1016 2553 972 2059 
L 3022 2063 
z
" id="DejaVuSans-65" transform="scale(0.015625)"/>
       <path d="M 1159 525 
L 1159 -1331 
L 581 -1331 
L 581 3500 
L 1159 3500 
L 1159 2969 
Q 1341 3281 1617 3432 
Q 1894 3584 2278 3584 
Q 2916 3584 3314 3078 
Q 3713 2572 3713 1747 
Q 3713 922 3314 415 
Q 2916 -91 2278 -91 
Q 1894 -91 1617 61 
Q 1341 213 1159 525 
z
M 3116 1747 
Q 3116 2381 2855 2742 
Q 2594 3103 2138 3103 
Q 1681 3103 1420 2742 
Q 1159 2381 1159 1747 
Q 1159 1113 1420 752 
Q 1681 391 2138 391 
Q 2594 391 2855 752 
Q 3116 1113 3116 1747 
z
" id="DejaVuSans-70" transform="scale(0.015625)"/>
      </defs>
      <use xlink:href="#DejaVuSans-53"/>
      <use x="63.476562" xlink:href="#DejaVuSans-74"/>
      <use x="102.685547" xlink:href="#DejaVuSans-65"/>
      <use x="164.208984" xlink:href="#DejaVuSans-70"/>
     </g>
    </g>
   </g>
   <g id="matplotlib.axis_2">
    <g id="ytick_1">
     <g id="line2d_6">
      <defs>
       <path d="M 0 0 
L -3.5 0 
" id="mf4e0d3bcff" style="stroke:#000000;stroke-width:0.8;"/>
      </defs>
      <g>
       <use style="stroke:#000000;stroke-width:0.8;" x="57.6" xlink:href="#mf4e0d3bcff" y="295.488"/>
      </g>
     </g>
     <g id="text_7">
      <!-- 0.0 -->
      <g transform="translate(34.696875 299.287219)scale(0.1 -0.1)">
       <defs>
        <path d="M 684 794 
L 1344 794 
L 1344 0 
L 684 0 
L 684 794 
z
" id="DejaVuSans-2e" transform="scale(0.015625)"/>
       </defs>
       <use xlink:href="#DejaVuSans-30"/>
       <use x="63.623047" xlink:href="#DejaVuSans-2e"/>
       <use x="95.410156" xlink:href="#DejaVuSans-30"/>
      </g>
     </g>
    </g>
    <g id="ytick_2">
     <g id="line2d_7">
      <g>
       <use style="stroke:#000000;stroke-width:0.8;" x="57.6" xlink:href="#mf4e0d3bcff" y="244.818923"/>
      </g>
     </g>
     <g id="text_8">
      <!-- 0.2 -->
      <g transform="translate(34.696875 248.618141)scale(0.1 -0.1)">
       <use xlink:href="#DejaVuSans-30"/>
       <use x="63.623047" xlink:href="#DejaVuSans-2e"/>
       <use x="95.410156" xlink:href="#DejaVuSans-32"/>
      </g>
     </g>
    </g>
    <g id="ytick_3">
     <g id="line2d_8">
      <g>
       <use style="stroke:#000000;stroke-width:0.8;" x="57.6" xlink:href="#mf4e0d3bcff" y="194.149845"/>
      </g>
     </g>
     <g id="text_9">
      <!-- 0.4 -->
      <g transform="translate(34.696875 197.949064)scale(0.1 -0.1)">
       <use xlink:href="#DejaVuSans-30"/>
       <use x="63.623047" xlink:href="#DejaVuSans-2e"/>
       <use x="95.410156" xlink:href="#DejaVuSans-34"/>
      </g>
     </g>
    </g>
    <g id="ytick_4">
     <g id="line2d_9">
      <g>
       <use style="stroke:#000000;stroke-width:0.8;" x="57.6" xlink:href="#mf4e0d3bcff" y="143.480768"/>
      </g>
     </g>
     <g id="text_10">
      <!-- 0.6 -->
      <g transform="translate(34.696875 147.279987)scale(0.1 -0.1)">
       <use xlink:href="#DejaVuSans-30"/>
       <use x="63.623047" xlink:href="#DejaVuSans-2e"/>
       <use x="95.410156" xlink:href="#DejaVuSans-36"/>
      </g>
     </g>
    </g>
    <g id="ytick_5">
     <g id="line2d_10">
      <g>
       <use style="stroke:#000000;stroke-width:0.8;" x="57.6" xlink:href="#mf4e0d3bcff" y="92.81169"/>
      </g>
     </g>
     <g id="text_11">
      <!-- 0.8 -->
      <g transform="translate(34.696875 96.610909)scale(0.1 -0.1)">
       <use xlink:href="#DejaVuSans-30"/>
       <use x="63.623047" xlink:href="#DejaVuSans-2e"/>
       <use x="95.410156" xlink:href="#DejaVuSans-38"/>
      </g>
     </g>
    </g>
    <g id="ytick_6">
     <g id="line2d_11">
      <g>
       <use style="stroke:#000000;stroke-width:0.8;" x="57.6" xlink:href="#mf4e0d3bcff" y="42.142613"/>
      </g>
     </g>
     <g id="text_12">
      <!-- 1.0 -->
      <g transform="translate(34.696875 45.941832)scale(0.1 -0.1)">
       <defs>
        <path d="M 794 531 
L 1825 531 
L 1825 4091 
L 703 3866 
L 703 4441 
L 1819 4666 
L 2450 4666 
L 2450 531 
L 3481 531 
L 3481 0 
L 794 0 
L 794 531 
z
" id="DejaVuSans-31" transform="scale(0.015625)"/>
       </defs>
       <use xlink:href="#DejaVuSans-31"/>
       <use x="63.623047" xlink:href="#DejaVuSans-2e"/>
       <use x="95.410156" xlink:href="#DejaVuSans-30"/>
      </g>
     </g>
    </g>
    <g id="text_13">
     <!-- Accuracy -->
     <g transform="translate(28.617187 197.356125)rotate(-90)scale(0.1 -0.1)">
      <defs>
       <path d="M 2188 4044 
L 1331 1722 
L 3047 1722 
L 2188 4044 
z
M 1831 4666 
L 2547 4666 
L 4325 0 
L 3669 0 
L 3244 1197 
L 1141 1197 
L 716 0 
L 50 0 
L 1831 4666 
z
" id="DejaVuSans-41" transform="scale(0.015625)"/>
       <path d="M 3122 3366 
L 3122 2828 
Q 2878 2963 2633 3030 
Q 2388 3097 2138 3097 
Q 1578 3097 1268 2742 
Q 959 2388 959 1747 
Q 959 1106 1268 751 
Q 1578 397 2138 397 
Q 2388 397 2633 464 
Q 2878 531 3122 666 
L 3122 134 
Q 2881 22 2623 -34 
Q 2366 -91 2075 -91 
Q 1284 -91 818 406 
Q 353 903 353 1747 
Q 353 2603 823 3093 
Q 1294 3584 2113 3584 
Q 2378 3584 2631 3529 
Q 2884 3475 3122 3366 
z
" id="DejaVuSans-63" transform="scale(0.015625)"/>
       <path d="M 544 1381 
L 544 3500 
L 1119 3500 
L 1119 1403 
Q 1119 906 1312 657 
Q 1506 409 1894 409 
Q 2359 409 2629 706 
Q 2900 1003 2900 1516 
L 2900 3500 
L 3475 3500 
L 3475 0 
L 2900 0 
L 2900 538 
Q 2691 219 2414 64 
Q 2138 -91 1772 -91 
Q 1169 -91 856 284 
Q 544 659 544 1381 
z
M 1991 3584 
L 1991 3584 
z
" id="DejaVuSans-75" transform="scale(0.015625)"/>
       <path d="M 2631 2963 
Q 2534 3019 2420 3045 
Q 2306 3072 2169 3072 
Q 1681 3072 1420 2755 
Q 1159 2438 1159 1844 
L 1159 0 
L 581 0 
L 581 3500 
L 1159 3500 
L 1159 2956 
Q 1341 3275 1631 3429 
Q 1922 3584 2338 3584 
Q 2397 3584 2469 3576 
Q 2541 3569 2628 3553 
L 2631 2963 
z
" id="DejaVuSans-72" transform="scale(0.015625)"/>
       <path d="M 2194 1759 
Q 1497 1759 1228 1600 
Q 959 1441 959 1056 
Q 959 750 1161 570 
Q 1363 391 1709 391 
Q 2188 391 2477 730 
Q 2766 1069 2766 1631 
L 2766 1759 
L 2194 1759 
z
M 3341 1997 
L 3341 0 
L 2766 0 
L 2766 531 
Q 2569 213 2275 61 
Q 1981 -91 1556 -91 
Q 1019 -91 701 211 
Q 384 513 384 1019 
Q 384 1609 779 1909 
Q 1175 2209 1959 2209 
L 2766 2209 
L 2766 2266 
Q 2766 2663 2505 2880 
Q 2244 3097 1772 3097 
Q 1472 3097 1187 3025 
Q 903 2953 641 2809 
L 641 3341 
Q 956 3463 1253 3523 
Q 1550 3584 1831 3584 
Q 2591 3584 2966 3190 
Q 3341 2797 3341 1997 
z
" id="DejaVuSans-61" transform="scale(0.015625)"/>
       <path d="M 2059 -325 
Q 1816 -950 1584 -1140 
Q 1353 -1331 966 -1331 
L 506 -1331 
L 506 -850 
L 844 -850 
Q 1081 -850 1212 -737 
Q 1344 -625 1503 -206 
L 1606 56 
L 191 3500 
L 800 3500 
L 1894 763 
L 2988 3500 
L 3597 3500 
L 2059 -325 
z
" id="DejaVuSans-79" transform="scale(0.015625)"/>
      </defs>
      <use xlink:href="#DejaVuSans-41"/>
      <use x="66.658203" xlink:href="#DejaVuSans-63"/>
      <use x="121.638672" xlink:href="#DejaVuSans-63"/>
      <use x="176.619141" xlink:href="#DejaVuSans-75"/>
      <use x="239.998047" xlink:href="#DejaVuSans-72"/>
      <use x="281.111328" xlink:href="#DejaVuSans-61"/>
      <use x="342.390625" xlink:href="#DejaVuSans-63"/>
      <use x="397.371094" xlink:href="#DejaVuSans-79"/>
     </g>
    </g>
   </g>
   <g id="line2d_12">
    <path clip-path="url(#pb8ce521cd2)" d="M 73.832727 262.86771 
L 90.919809 177.756905 
L 108.00689 128.41251 
L 125.093971 79.896041 
L 142.181053 68.470664 
L 159.268134 67.477153 
L 176.355215 66.318059 
L 193.442297 65.324547 
L 210.529378 66.649229 
L 227.616459 63.834278 
L 244.703541 63.337525 
L 261.790622 62.012843 
L 278.877703 62.178426 
L 295.964785 61.019332 
L 313.051866 63.834283 
L 330.138947 60.688162 
L 347.226029 62.344014 
L 364.31311 61.681673 
L 381.400191 59.69465 
L 398.487273 59.529068 
" style="fill:none;stroke:#1f77b4;stroke-linecap:square;stroke-width:1.5;"/>
    <defs>
     <path d="M 0 3 
C 0.795609 3 1.55874 2.683901 2.12132 2.12132 
C 2.683901 1.55874 3 0.795609 3 0 
C 3 -0.795609 2.683901 -1.55874 2.12132 -2.12132 
C 1.55874 -2.683901 0.795609 -3 0 -3 
C -0.795609 -3 -1.55874 -2.683901 -2.12132 -2.12132 
C -2.683901 -1.55874 -3 -0.795609 -3 0 
C -3 0.795609 -2.683901 1.55874 -2.12132 2.12132 
C -1.55874 2.683901 -0.795609 3 0 3 
z
" id="mcd7bcf653a" style="stroke:#ffffff;stroke-width:0.75;"/>
    </defs>
    <g clip-path="url(#pb8ce521cd2)">
     <use style="fill:#1f77b4;stroke:#ffffff;stroke-width:0.75;" x="73.832727" xlink:href="#mcd7bcf653a" y="262.86771"/>
     <use style="fill:#1f77b4;stroke:#ffffff;stroke-width:0.75;" x="90.919809" xlink:href="#mcd7bcf653a" y="177.756905"/>
     <use style="fill:#1f77b4;stroke:#ffffff;stroke-width:0.75;" x="108.00689" xlink:href="#mcd7bcf653a" y="128.41251"/>
     <use style="fill:#1f77b4;stroke:#ffffff;stroke-width:0.75;" x="125.093971" xlink:href="#mcd7bcf653a" y="79.896041"/>
     <use style="fill:#1f77b4;stroke:#ffffff;stroke-width:0.75;" x="142.181053" xlink:href="#mcd7bcf653a" y="68.470664"/>
     <use style="fill:#1f77b4;stroke:#ffffff;stroke-width:0.75;" x="159.268134" xlink:href="#mcd7bcf653a" y="67.477153"/>
     <use style="fill:#1f77b4;stroke:#ffffff;stroke-width:0.75;" x="176.355215" xlink:href="#mcd7bcf653a" y="66.318059"/>
     <use style="fill:#1f77b4;stroke:#ffffff;stroke-width:0.75;" x="193.442297" xlink:href="#mcd7bcf653a" y="65.324547"/>
     <use style="fill:#1f77b4;stroke:#ffffff;stroke-width:0.75;" x="210.529378" xlink:href="#mcd7bcf653a" y="66.649229"/>
     <use style="fill:#1f77b4;stroke:#ffffff;stroke-width:0.75;" x="227.616459" xlink:href="#mcd7bcf653a" y="63.834278"/>
     <use style="fill:#1f77b4;stroke:#ffffff;stroke-width:0.75;" x="244.703541" xlink:href="#mcd7bcf653a" y="63.337525"/>
     <use style="fill:#1f77b4;stroke:#ffffff;stroke-width:0.75;" x="261.790622" xlink:href="#mcd7bcf653a" y="62.012843"/>
     <use style="fill:#1f77b4;stroke:#ffffff;stroke-width:0.75;" x="278.877703" xlink:href="#mcd7bcf653a" y="62.178426"/>
     <use style="fill:#1f77b4;stroke:#ffffff;stroke-width:0.75;" x="295.964785" xlink:href="#mcd7bcf653a" y="61.019332"/>
     <use style="fill:#1f77b4;stroke:#ffffff;stroke-width:0.75;" x="313.051866" xlink:href="#mcd7bcf653a" y="63.834283"/>
     <use style="fill:#1f77b4;stroke:#ffffff;stroke-width:0.75;" x="330.138947" xlink:href="#mcd7bcf653a" y="60.688162"/>
     <use style="fill:#1f77b4;stroke:#ffffff;stroke-width:0.75;" x="347.226029" xlink:href="#mcd7bcf653a" y="62.344014"/>
     <use style="fill:#1f77b4;stroke:#ffffff;stroke-width:0.75;" x="364.31311" xlink:href="#mcd7bcf653a" y="61.681673"/>
     <use style="fill:#1f77b4;stroke:#ffffff;stroke-width:0.75;" x="381.400191" xlink:href="#mcd7bcf653a" y="59.69465"/>
     <use style="fill:#1f77b4;stroke:#ffffff;stroke-width:0.75;" x="398.487273" xlink:href="#mcd7bcf653a" y="59.529068"/>
    </g>
   </g>
   <g id="line2d_13">
    <path clip-path="url(#pb8ce521cd2)" d="M 73.832727 225.611036 
L 90.919809 121.457936 
L 108.00689 68.801834 
L 125.093971 62.675184 
L 142.181053 62.840767 
L 159.268134 60.522574 
L 176.355215 60.191408 
L 193.442297 61.516085 
L 210.529378 61.516085 
L 227.616459 60.853744 
L 244.703541 59.529063 
L 261.790622 59.032309 
L 278.877703 59.860233 
L 295.964785 62.012843 
L 313.051866 59.197892 
L 330.138947 61.516085 
L 347.226029 58.701134 
L 364.31311 60.688156 
L 381.400191 58.369969 
L 398.487273 63.006354 
" style="fill:none;stroke:#ff7f0e;stroke-linecap:square;stroke-width:1.5;"/>
    <defs>
     <path d="M -1.5 3 
L 0 1.5 
L 1.5 3 
L 3 1.5 
L 1.5 0 
L 3 -1.5 
L 1.5 -3 
L 0 -1.5 
L -1.5 -3 
L -3 -1.5 
L -1.5 0 
L -3 1.5 
z
" id="me8b1501b80" style="stroke:#ffffff;stroke-linejoin:miter;stroke-width:0.75;"/>
    </defs>
    <g clip-path="url(#pb8ce521cd2)">
     <use style="fill:#ff7f0e;stroke:#ffffff;stroke-linejoin:miter;stroke-width:0.75;" x="73.832727" xlink:href="#me8b1501b80" y="225.611036"/>
     <use style="fill:#ff7f0e;stroke:#ffffff;stroke-linejoin:miter;stroke-width:0.75;" x="90.919809" xlink:href="#me8b1501b80" y="121.457936"/>
     <use style="fill:#ff7f0e;stroke:#ffffff;stroke-linejoin:miter;stroke-width:0.75;" x="108.00689" xlink:href="#me8b1501b80" y="68.801834"/>
     <use style="fill:#ff7f0e;stroke:#ffffff;stroke-linejoin:miter;stroke-width:0.75;" x="125.093971" xlink:href="#me8b1501b80" y="62.675184"/>
     <use style="fill:#ff7f0e;stroke:#ffffff;stroke-linejoin:miter;stroke-width:0.75;" x="142.181053" xlink:href="#me8b1501b80" y="62.840767"/>
     <use style="fill:#ff7f0e;stroke:#ffffff;stroke-linejoin:miter;stroke-width:0.75;" x="159.268134" xlink:href="#me8b1501b80" y="60.522574"/>
     <use style="fill:#ff7f0e;stroke:#ffffff;stroke-linejoin:miter;stroke-width:0.75;" x="176.355215" xlink:href="#me8b1501b80" y="60.191408"/>
     <use style="fill:#ff7f0e;stroke:#ffffff;stroke-linejoin:miter;stroke-width:0.75;" x="193.442297" xlink:href="#me8b1501b80" y="61.516085"/>
     <use style="fill:#ff7f0e;stroke:#ffffff;stroke-linejoin:miter;stroke-width:0.75;" x="210.529378" xlink:href="#me8b1501b80" y="61.516085"/>
     <use style="fill:#ff7f0e;stroke:#ffffff;stroke-linejoin:miter;stroke-width:0.75;" x="227.616459" xlink:href="#me8b1501b80" y="60.853744"/>
     <use style="fill:#ff7f0e;stroke:#ffffff;stroke-linejoin:miter;stroke-width:0.75;" x="244.703541" xlink:href="#me8b1501b80" y="59.529063"/>
     <use style="fill:#ff7f0e;stroke:#ffffff;stroke-linejoin:miter;stroke-width:0.75;" x="261.790622" xlink:href="#me8b1501b80" y="59.032309"/>
     <use style="fill:#ff7f0e;stroke:#ffffff;stroke-linejoin:miter;stroke-width:0.75;" x="278.877703" xlink:href="#me8b1501b80" y="59.860233"/>
     <use style="fill:#ff7f0e;stroke:#ffffff;stroke-linejoin:miter;stroke-width:0.75;" x="295.964785" xlink:href="#me8b1501b80" y="62.012843"/>
     <use style="fill:#ff7f0e;stroke:#ffffff;stroke-linejoin:miter;stroke-width:0.75;" x="313.051866" xlink:href="#me8b1501b80" y="59.197892"/>
     <use style="fill:#ff7f0e;stroke:#ffffff;stroke-linejoin:miter;stroke-width:0.75;" x="330.138947" xlink:href="#me8b1501b80" y="61.516085"/>
     <use style="fill:#ff7f0e;stroke:#ffffff;stroke-linejoin:miter;stroke-width:0.75;" x="347.226029" xlink:href="#me8b1501b80" y="58.701134"/>
     <use style="fill:#ff7f0e;stroke:#ffffff;stroke-linejoin:miter;stroke-width:0.75;" x="364.31311" xlink:href="#me8b1501b80" y="60.688156"/>
     <use style="fill:#ff7f0e;stroke:#ffffff;stroke-linejoin:miter;stroke-width:0.75;" x="381.400191" xlink:href="#me8b1501b80" y="58.369969"/>
     <use style="fill:#ff7f0e;stroke:#ffffff;stroke-linejoin:miter;stroke-width:0.75;" x="398.487273" xlink:href="#me8b1501b80" y="63.006354"/>
    </g>
   </g>
   <g id="line2d_14">
    <path clip-path="url(#pb8ce521cd2)" d="M 73.832727 271.312557 
L 90.919809 141.328159 
L 108.00689 87.016207 
L 125.093971 67.808323 
L 142.181053 66.483646 
L 159.268134 63.006354 
L 176.355215 63.503108 
L 193.442297 63.834278 
L 210.529378 62.509596 
L 227.616459 65.49013 
L 244.703541 62.344014 
L 261.790622 62.344014 
L 278.877703 63.171937 
L 295.964785 64.496624 
L 313.051866 59.860233 
L 330.138947 63.171942 
L 347.226029 65.490135 
L 364.31311 62.344009 
L 381.400191 61.681673 
L 398.487273 62.178426 
" style="fill:none;stroke:#2ca02c;stroke-linecap:square;stroke-width:1.5;"/>
    <defs>
     <path d="M -2.12132 -2.12132 
L -2.12132 2.12132 
L 2.12132 2.12132 
L 2.12132 -2.12132 
z
" id="mc73e297981" style="stroke:#ffffff;stroke-linejoin:miter;stroke-width:0.75;"/>
    </defs>
    <g clip-path="url(#pb8ce521cd2)">
     <use style="fill:#2ca02c;stroke:#ffffff;stroke-linejoin:miter;stroke-width:0.75;" x="73.832727" xlink:href="#mc73e297981" y="271.312557"/>
     <use style="fill:#2ca02c;stroke:#ffffff;stroke-linejoin:miter;stroke-width:0.75;" x="90.919809" xlink:href="#mc73e297981" y="141.328159"/>
     <use style="fill:#2ca02c;stroke:#ffffff;stroke-linejoin:miter;stroke-width:0.75;" x="108.00689" xlink:href="#mc73e297981" y="87.016207"/>
     <use style="fill:#2ca02c;stroke:#ffffff;stroke-linejoin:miter;stroke-width:0.75;" x="125.093971" xlink:href="#mc73e297981" y="67.808323"/>
     <use style="fill:#2ca02c;stroke:#ffffff;stroke-linejoin:miter;stroke-width:0.75;" x="142.181053" xlink:href="#mc73e297981" y="66.483646"/>
     <use style="fill:#2ca02c;stroke:#ffffff;stroke-linejoin:miter;stroke-width:0.75;" x="159.268134" xlink:href="#mc73e297981" y="63.006354"/>
     <use style="fill:#2ca02c;stroke:#ffffff;stroke-linejoin:miter;stroke-width:0.75;" x="176.355215" xlink:href="#mc73e297981" y="63.503108"/>
     <use style="fill:#2ca02c;stroke:#ffffff;stroke-linejoin:miter;stroke-width:0.75;" x="193.442297" xlink:href="#mc73e297981" y="63.834278"/>
     <use style="fill:#2ca02c;stroke:#ffffff;stroke-linejoin:miter;stroke-width:0.75;" x="210.529378" xlink:href="#mc73e297981" y="62.509596"/>
     <use style="fill:#2ca02c;stroke:#ffffff;stroke-linejoin:miter;stroke-width:0.75;" x="227.616459" xlink:href="#mc73e297981" y="65.49013"/>
     <use style="fill:#2ca02c;stroke:#ffffff;stroke-linejoin:miter;stroke-width:0.75;" x="244.703541" xlink:href="#mc73e297981" y="62.344014"/>
     <use style="fill:#2ca02c;stroke:#ffffff;stroke-linejoin:miter;stroke-width:0.75;" x="261.790622" xlink:href="#mc73e297981" y="62.344014"/>
     <use style="fill:#2ca02c;stroke:#ffffff;stroke-linejoin:miter;stroke-width:0.75;" x="278.877703" xlink:href="#mc73e297981" y="63.171937"/>
     <use style="fill:#2ca02c;stroke:#ffffff;stroke-linejoin:miter;stroke-width:0.75;" x="295.964785" xlink:href="#mc73e297981" y="64.496624"/>
     <use style="fill:#2ca02c;stroke:#ffffff;stroke-linejoin:miter;stroke-width:0.75;" x="313.051866" xlink:href="#mc73e297981" y="59.860233"/>
     <use style="fill:#2ca02c;stroke:#ffffff;stroke-linejoin:miter;stroke-width:0.75;" x="330.138947" xlink:href="#mc73e297981" y="63.171942"/>
     <use style="fill:#2ca02c;stroke:#ffffff;stroke-linejoin:miter;stroke-width:0.75;" x="347.226029" xlink:href="#mc73e297981" y="65.490135"/>
     <use style="fill:#2ca02c;stroke:#ffffff;stroke-linejoin:miter;stroke-width:0.75;" x="364.31311" xlink:href="#mc73e297981" y="62.344009"/>
     <use style="fill:#2ca02c;stroke:#ffffff;stroke-linejoin:miter;stroke-width:0.75;" x="381.400191" xlink:href="#mc73e297981" y="61.681673"/>
     <use style="fill:#2ca02c;stroke:#ffffff;stroke-linejoin:miter;stroke-width:0.75;" x="398.487273" xlink:href="#mc73e297981" y="62.178426"/>
    </g>
   </g>
   <g id="line2d_15">
    <path clip-path="url(#pb8ce521cd2)" d="M 73.832727 269.15995 
L 90.919809 184.380316 
L 108.00689 115.000111 
L 125.093971 97.448078 
L 142.181053 87.016207 
L 159.268134 76.418754 
L 176.355215 72.775884 
L 193.442297 72.113544 
L 210.529378 72.775879 
L 227.616459 68.967417 
L 244.703541 65.986888 
L 261.790622 62.840772 
L 278.877703 69.795346 
L 295.964785 70.788862 
L 313.051866 67.808323 
L 330.138947 67.642735 
L 347.226029 65.986888 
L 364.31311 64.827789 
L 381.400191 65.15896 
L 398.487273 60.025821 
" style="fill:none;stroke:#d62728;stroke-linecap:square;stroke-width:1.5;"/>
    <defs>
     <path d="M -1 3 
L 1 3 
L 1 1 
L 3 1 
L 3 -1 
L 1 -1 
L 1 -3 
L -1 -3 
L -1 -1 
L -3 -1 
L -3 1 
L -1 1 
z
" id="m164a4d61dc" style="stroke:#ffffff;stroke-linejoin:miter;stroke-width:0.75;"/>
    </defs>
    <g clip-path="url(#pb8ce521cd2)">
     <use style="fill:#d62728;stroke:#ffffff;stroke-linejoin:miter;stroke-width:0.75;" x="73.832727" xlink:href="#m164a4d61dc" y="269.15995"/>
     <use style="fill:#d62728;stroke:#ffffff;stroke-linejoin:miter;stroke-width:0.75;" x="90.919809" xlink:href="#m164a4d61dc" y="184.380316"/>
     <use style="fill:#d62728;stroke:#ffffff;stroke-linejoin:miter;stroke-width:0.75;" x="108.00689" xlink:href="#m164a4d61dc" y="115.000111"/>
     <use style="fill:#d62728;stroke:#ffffff;stroke-linejoin:miter;stroke-width:0.75;" x="125.093971" xlink:href="#m164a4d61dc" y="97.448078"/>
     <use style="fill:#d62728;stroke:#ffffff;stroke-linejoin:miter;stroke-width:0.75;" x="142.181053" xlink:href="#m164a4d61dc" y="87.016207"/>
     <use style="fill:#d62728;stroke:#ffffff;stroke-linejoin:miter;stroke-width:0.75;" x="159.268134" xlink:href="#m164a4d61dc" y="76.418754"/>
     <use style="fill:#d62728;stroke:#ffffff;stroke-linejoin:miter;stroke-width:0.75;" x="176.355215" xlink:href="#m164a4d61dc" y="72.775884"/>
     <use style="fill:#d62728;stroke:#ffffff;stroke-linejoin:miter;stroke-width:0.75;" x="193.442297" xlink:href="#m164a4d61dc" y="72.113544"/>
     <use style="fill:#d62728;stroke:#ffffff;stroke-linejoin:miter;stroke-width:0.75;" x="210.529378" xlink:href="#m164a4d61dc" y="72.775879"/>
     <use style="fill:#d62728;stroke:#ffffff;stroke-linejoin:miter;stroke-width:0.75;" x="227.616459" xlink:href="#m164a4d61dc" y="68.967417"/>
     <use style="fill:#d62728;stroke:#ffffff;stroke-linejoin:miter;stroke-width:0.75;" x="244.703541" xlink:href="#m164a4d61dc" y="65.986888"/>
     <use style="fill:#d62728;stroke:#ffffff;stroke-linejoin:miter;stroke-width:0.75;" x="261.790622" xlink:href="#m164a4d61dc" y="62.840772"/>
     <use style="fill:#d62728;stroke:#ffffff;stroke-linejoin:miter;stroke-width:0.75;" x="278.877703" xlink:href="#m164a4d61dc" y="69.795346"/>
     <use style="fill:#d62728;stroke:#ffffff;stroke-linejoin:miter;stroke-width:0.75;" x="295.964785" xlink:href="#m164a4d61dc" y="70.788862"/>
     <use style="fill:#d62728;stroke:#ffffff;stroke-linejoin:miter;stroke-width:0.75;" x="313.051866" xlink:href="#m164a4d61dc" y="67.808323"/>
     <use style="fill:#d62728;stroke:#ffffff;stroke-linejoin:miter;stroke-width:0.75;" x="330.138947" xlink:href="#m164a4d61dc" y="67.642735"/>
     <use style="fill:#d62728;stroke:#ffffff;stroke-linejoin:miter;stroke-width:0.75;" x="347.226029" xlink:href="#m164a4d61dc" y="65.986888"/>
     <use style="fill:#d62728;stroke:#ffffff;stroke-linejoin:miter;stroke-width:0.75;" x="364.31311" xlink:href="#m164a4d61dc" y="64.827789"/>
     <use style="fill:#d62728;stroke:#ffffff;stroke-linejoin:miter;stroke-width:0.75;" x="381.400191" xlink:href="#m164a4d61dc" y="65.15896"/>
     <use style="fill:#d62728;stroke:#ffffff;stroke-linejoin:miter;stroke-width:0.75;" x="398.487273" xlink:href="#m164a4d61dc" y="60.025821"/>
    </g>
   </g>
   <g id="line2d_16"/>
   <g id="line2d_17"/>
   <g id="line2d_18"/>
   <g id="line2d_19"/>
   <g id="patch_3">
    <path d="M 57.6 307.584 
L 57.6 41.472 
" style="fill:none;stroke:#000000;stroke-linecap:square;stroke-linejoin:miter;stroke-width:0.8;"/>
   </g>
   <g id="patch_4">
    <path d="M 414.72 307.584 
L 414.72 41.472 
" style="fill:none;stroke:#000000;stroke-linecap:square;stroke-linejoin:miter;stroke-width:0.8;"/>
   </g>
   <g id="patch_5">
    <path d="M 57.6 307.584 
L 414.72 307.584 
" style="fill:none;stroke:#000000;stroke-linecap:square;stroke-linejoin:miter;stroke-width:0.8;"/>
   </g>
   <g id="patch_6">
    <path d="M 57.6 41.472 
L 414.72 41.472 
" style="fill:none;stroke:#000000;stroke-linecap:square;stroke-linejoin:miter;stroke-width:0.8;"/>
   </g>
   <g id="legend_1">
    <g id="patch_7">
     <path d="M 333.834063 302.584 
L 407.72 302.584 
Q 409.72 302.584 409.72 300.584 
L 409.72 228.193375 
Q 409.72 226.193375 407.72 226.193375 
L 333.834063 226.193375 
Q 331.834063 226.193375 331.834063 228.193375 
L 331.834063 300.584 
Q 331.834063 302.584 333.834063 302.584 
z
" style="fill:#ffffff;opacity:0.8;stroke:#cccccc;stroke-linejoin:miter;"/>
    </g>
    <g id="text_14">
     <!-- Agent -->
     <g transform="translate(355.977031 237.791812)scale(0.1 -0.1)">
      <defs>
       <path d="M 2906 1791 
Q 2906 2416 2648 2759 
Q 2391 3103 1925 3103 
Q 1463 3103 1205 2759 
Q 947 2416 947 1791 
Q 947 1169 1205 825 
Q 1463 481 1925 481 
Q 2391 481 2648 825 
Q 2906 1169 2906 1791 
z
M 3481 434 
Q 3481 -459 3084 -895 
Q 2688 -1331 1869 -1331 
Q 1566 -1331 1297 -1286 
Q 1028 -1241 775 -1147 
L 775 -588 
Q 1028 -725 1275 -790 
Q 1522 -856 1778 -856 
Q 2344 -856 2625 -561 
Q 2906 -266 2906 331 
L 2906 616 
Q 2728 306 2450 153 
Q 2172 0 1784 0 
Q 1141 0 747 490 
Q 353 981 353 1791 
Q 353 2603 747 3093 
Q 1141 3584 1784 3584 
Q 2172 3584 2450 3431 
Q 2728 3278 2906 2969 
L 2906 3500 
L 3481 3500 
L 3481 434 
z
" id="DejaVuSans-67" transform="scale(0.015625)"/>
       <path d="M 3513 2113 
L 3513 0 
L 2938 0 
L 2938 2094 
Q 2938 2591 2744 2837 
Q 2550 3084 2163 3084 
Q 1697 3084 1428 2787 
Q 1159 2491 1159 1978 
L 1159 0 
L 581 0 
L 581 3500 
L 1159 3500 
L 1159 2956 
Q 1366 3272 1645 3428 
Q 1925 3584 2291 3584 
Q 2894 3584 3203 3211 
Q 3513 2838 3513 2113 
z
" id="DejaVuSans-6e" transform="scale(0.015625)"/>
      </defs>
      <use xlink:href="#DejaVuSans-41"/>
      <use x="68.408203" xlink:href="#DejaVuSans-67"/>
      <use x="131.884766" xlink:href="#DejaVuSans-65"/>
      <use x="193.408203" xlink:href="#DejaVuSans-6e"/>
      <use x="256.787109" xlink:href="#DejaVuSans-74"/>
     </g>
    </g>
    <g id="line2d_20">
     <path d="M 335.834063 248.969937 
L 355.834063 248.969937 
" style="fill:none;stroke:#1f77b4;stroke-linecap:square;stroke-width:1.5;"/>
    </g>
    <g id="line2d_21">
     <defs>
      <path d="M 0 3 
C 0.795609 3 1.55874 2.683901 2.12132 2.12132 
C 2.683901 1.55874 3 0.795609 3 0 
C 3 -0.795609 2.683901 -1.55874 2.12132 -2.12132 
C 1.55874 -2.683901 0.795609 -3 0 -3 
C -0.795609 -3 -1.55874 -2.683901 -2.12132 -2.12132 
C -2.683901 -1.55874 -3 -0.795609 -3 0 
C -3 0.795609 -2.683901 1.55874 -2.12132 2.12132 
C -1.55874 2.683901 -0.795609 3 0 3 
z
" id="m0c9e170396" style="stroke:#1f77b4;"/>
     </defs>
     <g>
      <use style="fill:#1f77b4;stroke:#1f77b4;" x="345.834063" xlink:href="#m0c9e170396" y="248.969937"/>
     </g>
    </g>
    <g id="text_15">
     <!-- A -->
     <g transform="translate(363.834063 252.469937)scale(0.1 -0.1)">
      <use xlink:href="#DejaVuSans-41"/>
     </g>
    </g>
    <g id="line2d_22">
     <path d="M 335.834063 263.648062 
L 355.834063 263.648062 
" style="fill:none;stroke:#ff7f0e;stroke-linecap:square;stroke-width:1.5;"/>
    </g>
    <g id="line2d_23">
     <defs>
      <path d="M -1.5 3 
L 0 1.5 
L 1.5 3 
L 3 1.5 
L 1.5 0 
L 3 -1.5 
L 1.5 -3 
L 0 -1.5 
L -1.5 -3 
L -3 -1.5 
L -1.5 0 
L -3 1.5 
z
" id="m993439bf53" style="stroke:#ff7f0e;stroke-linejoin:miter;"/>
     </defs>
     <g>
      <use style="fill:#ff7f0e;stroke:#ff7f0e;stroke-linejoin:miter;" x="345.834063" xlink:href="#m993439bf53" y="263.648062"/>
     </g>
    </g>
    <g id="text_16">
     <!-- B -->
     <g transform="translate(363.834063 267.148062)scale(0.1 -0.1)">
      <defs>
       <path d="M 1259 2228 
L 1259 519 
L 2272 519 
Q 2781 519 3026 730 
Q 3272 941 3272 1375 
Q 3272 1813 3026 2020 
Q 2781 2228 2272 2228 
L 1259 2228 
z
M 1259 4147 
L 1259 2741 
L 2194 2741 
Q 2656 2741 2882 2914 
Q 3109 3088 3109 3444 
Q 3109 3797 2882 3972 
Q 2656 4147 2194 4147 
L 1259 4147 
z
M 628 4666 
L 2241 4666 
Q 2963 4666 3353 4366 
Q 3744 4066 3744 3513 
Q 3744 3084 3544 2831 
Q 3344 2578 2956 2516 
Q 3422 2416 3680 2098 
Q 3938 1781 3938 1306 
Q 3938 681 3513 340 
Q 3088 0 2303 0 
L 628 0 
L 628 4666 
z
" id="DejaVuSans-42" transform="scale(0.015625)"/>
      </defs>
      <use xlink:href="#DejaVuSans-42"/>
     </g>
    </g>
    <g id="line2d_24">
     <path d="M 335.834063 278.326188 
L 355.834063 278.326188 
" style="fill:none;stroke:#2ca02c;stroke-linecap:square;stroke-width:1.5;"/>
    </g>
    <g id="line2d_25">
     <defs>
      <path d="M -2.12132 -2.12132 
L -2.12132 2.12132 
L 2.12132 2.12132 
L 2.12132 -2.12132 
z
" id="me8a3c92fe8" style="stroke:#2ca02c;stroke-linejoin:miter;"/>
     </defs>
     <g>
      <use style="fill:#2ca02c;stroke:#2ca02c;stroke-linejoin:miter;" x="345.834063" xlink:href="#me8a3c92fe8" y="278.326188"/>
     </g>
    </g>
    <g id="text_17">
     <!-- C -->
     <g transform="translate(363.834063 281.826188)scale(0.1 -0.1)">
      <defs>
       <path d="M 4122 4306 
L 4122 3641 
Q 3803 3938 3442 4084 
Q 3081 4231 2675 4231 
Q 1875 4231 1450 3742 
Q 1025 3253 1025 2328 
Q 1025 1406 1450 917 
Q 1875 428 2675 428 
Q 3081 428 3442 575 
Q 3803 722 4122 1019 
L 4122 359 
Q 3791 134 3420 21 
Q 3050 -91 2638 -91 
Q 1578 -91 968 557 
Q 359 1206 359 2328 
Q 359 3453 968 4101 
Q 1578 4750 2638 4750 
Q 3056 4750 3426 4639 
Q 3797 4528 4122 4306 
z
" id="DejaVuSans-43" transform="scale(0.015625)"/>
      </defs>
      <use xlink:href="#DejaVuSans-43"/>
     </g>
    </g>
    <g id="line2d_26">
     <path d="M 335.834063 293.004312 
L 355.834063 293.004312 
" style="fill:none;stroke:#d62728;stroke-linecap:square;stroke-width:1.5;"/>
    </g>
    <g id="line2d_27">
     <defs>
      <path d="M -1 3 
L 1 3 
L 1 1 
L 3 1 
L 3 -1 
L 1 -1 
L 1 -3 
L -1 -3 
L -1 -1 
L -3 -1 
L -3 1 
L -1 1 
z
" id="m04baeaeaef" style="stroke:#d62728;stroke-linejoin:miter;"/>
     </defs>
     <g>
      <use style="fill:#d62728;stroke:#d62728;stroke-linejoin:miter;" x="345.834063" xlink:href="#m04baeaeaef" y="293.004312"/>
     </g>
    </g>
    <g id="text_18">
     <!-- baseline -->
     <g transform="translate(363.834063 296.504312)scale(0.1 -0.1)">
      <defs>
       <path d="M 3116 1747 
Q 3116 2381 2855 2742 
Q 2594 3103 2138 3103 
Q 1681 3103 1420 2742 
Q 1159 2381 1159 1747 
Q 1159 1113 1420 752 
Q 1681 391 2138 391 
Q 2594 391 2855 752 
Q 3116 1113 3116 1747 
z
M 1159 2969 
Q 1341 3281 1617 3432 
Q 1894 3584 2278 3584 
Q 2916 3584 3314 3078 
Q 3713 2572 3713 1747 
Q 3713 922 3314 415 
Q 2916 -91 2278 -91 
Q 1894 -91 1617 61 
Q 1341 213 1159 525 
L 1159 0 
L 581 0 
L 581 4863 
L 1159 4863 
L 1159 2969 
z
" id="DejaVuSans-62" transform="scale(0.015625)"/>
       <path d="M 2834 3397 
L 2834 2853 
Q 2591 2978 2328 3040 
Q 2066 3103 1784 3103 
Q 1356 3103 1142 2972 
Q 928 2841 928 2578 
Q 928 2378 1081 2264 
Q 1234 2150 1697 2047 
L 1894 2003 
Q 2506 1872 2764 1633 
Q 3022 1394 3022 966 
Q 3022 478 2636 193 
Q 2250 -91 1575 -91 
Q 1294 -91 989 -36 
Q 684 19 347 128 
L 347 722 
Q 666 556 975 473 
Q 1284 391 1588 391 
Q 1994 391 2212 530 
Q 2431 669 2431 922 
Q 2431 1156 2273 1281 
Q 2116 1406 1581 1522 
L 1381 1569 
Q 847 1681 609 1914 
Q 372 2147 372 2553 
Q 372 3047 722 3315 
Q 1072 3584 1716 3584 
Q 2034 3584 2315 3537 
Q 2597 3491 2834 3397 
z
" id="DejaVuSans-73" transform="scale(0.015625)"/>
       <path d="M 603 4863 
L 1178 4863 
L 1178 0 
L 603 0 
L 603 4863 
z
" id="DejaVuSans-6c" transform="scale(0.015625)"/>
       <path d="M 603 3500 
L 1178 3500 
L 1178 0 
L 603 0 
L 603 3500 
z
M 603 4863 
L 1178 4863 
L 1178 4134 
L 603 4134 
L 603 4863 
z
" id="DejaVuSans-69" transform="scale(0.015625)"/>
      </defs>
      <use xlink:href="#DejaVuSans-62"/>
      <use x="63.476562" xlink:href="#DejaVuSans-61"/>
      <use x="124.755859" xlink:href="#DejaVuSans-73"/>
      <use x="176.855469" xlink:href="#DejaVuSans-65"/>
      <use x="238.378906" xlink:href="#DejaVuSans-6c"/>
      <use x="266.162109" xlink:href="#DejaVuSans-69"/>
      <use x="293.945312" xlink:href="#DejaVuSans-6e"/>
      <use x="357.324219" xlink:href="#DejaVuSans-65"/>
     </g>
    </g>
   </g>
  </g>
 </g>
 <defs>
  <clipPath id="pb8ce521cd2">
   <rect height="266.112" width="357.12" x="57.6" y="41.472"/>
  </clipPath>
 </defs>
</svg>
