<?xml version="1.0" encoding="utf-8" standalone="no"?>
<!DOCTYPE svg PUBLIC "-//W3C//DTD SVG 1.1//EN"
  "http://www.w3.org/Graphics/SVG/1.1/DTD/svg11.dtd">
<svg height="447.12pt" version="1.1" viewBox="0 0 644.4 447.12" width="644.4pt" xmlns="http://www.w3.org/2000/svg" xmlns:xlink="http://www.w3.org/1999/xlink">
 <metadata>
  <rdf:RDF xmlns:cc="http://creativecommons.org/ns#" xmlns:dc="http://purl.org/dc/elements/1.1/" xmlns:rdf="http://www.w3.org/1999/02/22-rdf-syntax-ns#">
   <cc:Work>
    <dc:type rdf:resource="http://purl.org/dc/dcmitype/StillImage"/>
    <dc:date>2021-04-19T13:12:11.513082</dc:date>
    <dc:format>image/svg+xml</dc:format>
    <dc:creator>
     <cc:Agent>
      <dc:title>Matplotlib v3.4.0, https://matplotlib.org/</dc:title>
     </cc:Agent>
    </dc:creator>
   </cc:Work>
  </rdf:RDF>
 </metadata>
 <defs>
  <style type="text/css">*{stroke-linecap:butt;stroke-linejoin:round;}</style>
 </defs>
 <g id="figure_1">
  <g id="patch_1">
   <path d="M 0 447.12 
L 644.4 447.12 
L 644.4 0 
L 0 0 
z
" style="fill:#ffffff;"/>
  </g>
  <g id="axes_1">
   <g id="patch_2">
    <path d="M 80.55 397.9368 
L 579.96 397.9368 
L 579.96 53.6544 
L 80.55 53.6544 
z
" style="fill:#ffffff;"/>
   </g>
   <g id="PolyCollection_1">
    <defs>
     <path d="M 103.250455 -155.449951 
L 103.250455 -64.8324 
L 127.14567 -135.526941 
L 151.040885 -245.424815 
L 174.9361 -336.68504 
L 198.831316 -345.68252 
L 222.726531 -346.967875 
L 246.621746 -362.392138 
L 270.516962 -357.893404 
L 294.412177 -349.538586 
L 318.307392 -345.68252 
L 342.202608 -359.178759 
L 366.097823 -356.608049 
L 389.993038 -363.227619 
L 413.888254 -354.680006 
L 437.783469 -362.392138 
L 461.678684 -364.32018 
L 485.5739 -363.034825 
L 509.469115 -359.178759 
L 533.36433 -359.178759 
L 557.259545 -361.74947 
L 557.259545 -372.032311 
L 557.259545 -372.032311 
L 533.36433 -375.888377 
L 509.469115 -370.746956 
L 485.5739 -372.032311 
L 461.678684 -366.890891 
L 437.783469 -369.461601 
L 413.888254 -370.104269 
L 389.993038 -377.173732 
L 366.097823 -366.890891 
L 342.202608 -370.746956 
L 318.307392 -367.533558 
L 294.412177 -375.24569 
L 270.516962 -368.176246 
L 246.621746 -370.104269 
L 222.726531 -369.461601 
L 198.831316 -362.392138 
L 174.9361 -345.039852 
L 151.040885 -319.975416 
L 127.14567 -252.494278 
L 103.250455 -155.449951 
z
" id="m114d0e7f06" style="stroke:#1f77b4;stroke-opacity:0.2;"/>
    </defs>
    <g clip-path="url(#pf39e831416)">
     <use style="fill:#1f77b4;fill-opacity:0.2;stroke:#1f77b4;stroke-opacity:0.2;" x="0" xlink:href="#m114d0e7f06" y="447.12"/>
    </g>
   </g>
   <g id="PolyCollection_2">
    <defs>
     <path d="M 103.250455 -196.581317 
L 103.250455 -96.966282 
L 127.14567 -274.987984 
L 151.040885 -357.250717 
L 174.9361 -368.818914 
L 198.831316 -358.536072 
L 222.726531 -367.533558 
L 246.621746 -368.818914 
L 270.516962 -366.248203 
L 294.412177 -368.176246 
L 318.307392 -364.32018 
L 342.202608 -368.818914 
L 366.097823 -368.818914 
L 389.993038 -368.818914 
L 413.888254 -368.176246 
L 437.783469 -368.818914 
L 461.678684 -367.533558 
L 485.5739 -359.178759 
L 509.469115 -364.32018 
L 533.36433 -367.533558 
L 557.259545 -366.890891 
L 557.259545 -375.888377 
L 557.259545 -375.888377 
L 533.36433 -371.389624 
L 509.469115 -371.389624 
L 485.5739 -363.677493 
L 461.678684 -370.746956 
L 437.783469 -372.032311 
L 413.888254 -368.818914 
L 389.993038 -370.746956 
L 366.097823 -374.603022 
L 342.202608 -371.389624 
L 318.307392 -369.461601 
L 294.412177 -377.8164 
L 270.516962 -373.317667 
L 246.621746 -372.674979 
L 222.726531 -373.317667 
L 198.831316 -366.890891 
L 174.9361 -371.389624 
L 151.040885 -363.034825 
L 127.14567 -312.905972 
L 103.250455 -196.581317 
z
" id="m8f819d8825" style="stroke:#ff7f0e;stroke-opacity:0.2;"/>
    </defs>
    <g clip-path="url(#pf39e831416)">
     <use style="fill:#ff7f0e;fill-opacity:0.2;stroke:#ff7f0e;stroke-opacity:0.2;" x="0" xlink:href="#m8f819d8825" y="447.12"/>
    </g>
   </g>
   <g id="PolyCollection_3">
    <defs>
     <path d="M 103.250455 -158.020661 
L 103.250455 -64.8324 
L 127.14567 -172.159569 
L 151.040885 -306.479196 
L 174.9361 -357.250717 
L 198.831316 -357.893404 
L 222.726531 -355.965362 
L 246.621746 -363.034825 
L 270.516962 -355.322694 
L 294.412177 -359.178759 
L 318.307392 -360.464115 
L 342.202608 -356.608049 
L 366.097823 -364.962848 
L 389.993038 -364.32018 
L 413.888254 -363.034825 
L 437.783469 -355.322694 
L 461.678684 -363.034825 
L 485.5739 -361.106782 
L 509.469115 -361.74947 
L 533.36433 -359.821427 
L 557.259545 -361.74947 
L 557.259545 -370.746956 
L 557.259545 -370.746956 
L 533.36433 -367.533558 
L 509.469115 -368.176246 
L 485.5739 -370.746956 
L 461.678684 -368.192306 
L 437.783469 -366.890891 
L 413.888254 -373.960334 
L 389.993038 -372.674979 
L 366.097823 -375.888377 
L 342.202608 -366.248203 
L 318.307392 -372.032311 
L 294.412177 -372.674979 
L 270.516962 -362.392138 
L 246.621746 -371.389624 
L 222.726531 -371.389624 
L 198.831316 -365.605535 
L 174.9361 -358.536072 
L 151.040885 -349.538586 
L 127.14567 -313.54864 
L 103.250455 -158.020661 
z
" id="ma39b98ee73" style="stroke:#2ca02c;stroke-opacity:0.2;"/>
    </defs>
    <g clip-path="url(#pf39e831416)">
     <use style="fill:#2ca02c;fill-opacity:0.2;stroke:#2ca02c;stroke-opacity:0.2;" x="0" xlink:href="#ma39b98ee73" y="447.12"/>
    </g>
   </g>
   <g id="PolyCollection_4">
    <defs>
     <path d="M 103.250455 -144.524427 
L 103.250455 -74.472565 
L 127.14567 -191.439897 
L 151.040885 -287.841536 
L 174.9361 -314.833995 
L 198.831316 -319.332748 
L 222.726531 -339.255744 
L 246.621746 -342.469142 
L 270.516962 -354.680006 
L 294.412177 -351.466628 
L 318.307392 -352.109296 
L 342.202608 -358.536072 
L 366.097823 -358.536072 
L 389.993038 -360.464115 
L 413.888254 -357.893404 
L 437.783469 -357.250717 
L 461.678684 -361.74947 
L 485.5739 -359.821427 
L 509.469115 -363.677493 
L 533.36433 -361.106782 
L 557.259545 -365.605535 
L 557.259545 -368.818914 
L 557.259545 -368.818914 
L 533.36433 -368.176246 
L 509.469115 -372.674979 
L 485.5739 -364.561181 
L 461.678684 -364.962848 
L 437.783469 -364.32018 
L 413.888254 -364.962848 
L 389.993038 -363.034825 
L 366.097823 -368.818914 
L 342.202608 -360.464115 
L 318.307392 -363.677493 
L 294.412177 -355.965362 
L 270.516962 -355.965362 
L 246.621746 -358.536072 
L 222.726531 -354.680006 
L 198.831316 -345.039852 
L 174.9361 -327.687547 
L 151.040885 -306.479196 
L 127.14567 -233.21395 
L 103.250455 -144.524427 
z
" id="m20404b92f2" style="stroke:#d62728;stroke-opacity:0.2;"/>
    </defs>
    <g clip-path="url(#pf39e831416)">
     <use style="fill:#d62728;fill-opacity:0.2;stroke:#d62728;stroke-opacity:0.2;" x="0" xlink:href="#m20404b92f2" y="447.12"/>
    </g>
   </g>
   <g id="matplotlib.axis_1">
    <g id="xtick_1">
     <g id="line2d_1">
      <defs>
       <path d="M 0 0 
L 0 3.5 
" id="m07230784cf" style="stroke:#000000;stroke-width:0.8;"/>
      </defs>
      <g>
       <use style="stroke:#000000;stroke-width:0.8;" x="103.250455" xlink:href="#m07230784cf" y="397.9368"/>
      </g>
     </g>
     <g id="text_1">
      <!-- 0 -->
      <g transform="translate(100.069205 412.535237)scale(0.1 -0.1)">
       <defs>
        <path d="M 2034 4250 
Q 1547 4250 1301 3770 
Q 1056 3291 1056 2328 
Q 1056 1369 1301 889 
Q 1547 409 2034 409 
Q 2525 409 2770 889 
Q 3016 1369 3016 2328 
Q 3016 3291 2770 3770 
Q 2525 4250 2034 4250 
z
M 2034 4750 
Q 2819 4750 3233 4129 
Q 3647 3509 3647 2328 
Q 3647 1150 3233 529 
Q 2819 -91 2034 -91 
Q 1250 -91 836 529 
Q 422 1150 422 2328 
Q 422 3509 836 4129 
Q 1250 4750 2034 4750 
z
" id="DejaVuSans-30" transform="scale(0.015625)"/>
       </defs>
       <use xlink:href="#DejaVuSans-30"/>
      </g>
     </g>
    </g>
    <g id="xtick_2">
     <g id="line2d_2">
      <g>
       <use style="stroke:#000000;stroke-width:0.8;" x="198.831316" xlink:href="#m07230784cf" y="397.9368"/>
      </g>
     </g>
     <g id="text_2">
      <!-- 200 -->
      <g transform="translate(189.287566 412.535237)scale(0.1 -0.1)">
       <defs>
        <path d="M 1228 531 
L 3431 531 
L 3431 0 
L 469 0 
L 469 531 
Q 828 903 1448 1529 
Q 2069 2156 2228 2338 
Q 2531 2678 2651 2914 
Q 2772 3150 2772 3378 
Q 2772 3750 2511 3984 
Q 2250 4219 1831 4219 
Q 1534 4219 1204 4116 
Q 875 4013 500 3803 
L 500 4441 
Q 881 4594 1212 4672 
Q 1544 4750 1819 4750 
Q 2544 4750 2975 4387 
Q 3406 4025 3406 3419 
Q 3406 3131 3298 2873 
Q 3191 2616 2906 2266 
Q 2828 2175 2409 1742 
Q 1991 1309 1228 531 
z
" id="DejaVuSans-32" transform="scale(0.015625)"/>
       </defs>
       <use xlink:href="#DejaVuSans-32"/>
       <use x="63.623047" xlink:href="#DejaVuSans-30"/>
       <use x="127.246094" xlink:href="#DejaVuSans-30"/>
      </g>
     </g>
    </g>
    <g id="xtick_3">
     <g id="line2d_3">
      <g>
       <use style="stroke:#000000;stroke-width:0.8;" x="294.412177" xlink:href="#m07230784cf" y="397.9368"/>
      </g>
     </g>
     <g id="text_3">
      <!-- 400 -->
      <g transform="translate(284.868427 412.535237)scale(0.1 -0.1)">
       <defs>
        <path d="M 2419 4116 
L 825 1625 
L 2419 1625 
L 2419 4116 
z
M 2253 4666 
L 3047 4666 
L 3047 1625 
L 3713 1625 
L 3713 1100 
L 3047 1100 
L 3047 0 
L 2419 0 
L 2419 1100 
L 313 1100 
L 313 1709 
L 2253 4666 
z
" id="DejaVuSans-34" transform="scale(0.015625)"/>
       </defs>
       <use xlink:href="#DejaVuSans-34"/>
       <use x="63.623047" xlink:href="#DejaVuSans-30"/>
       <use x="127.246094" xlink:href="#DejaVuSans-30"/>
      </g>
     </g>
    </g>
    <g id="xtick_4">
     <g id="line2d_4">
      <g>
       <use style="stroke:#000000;stroke-width:0.8;" x="389.993038" xlink:href="#m07230784cf" y="397.9368"/>
      </g>
     </g>
     <g id="text_4">
      <!-- 600 -->
      <g transform="translate(380.449288 412.535237)scale(0.1 -0.1)">
       <defs>
        <path d="M 2113 2584 
Q 1688 2584 1439 2293 
Q 1191 2003 1191 1497 
Q 1191 994 1439 701 
Q 1688 409 2113 409 
Q 2538 409 2786 701 
Q 3034 994 3034 1497 
Q 3034 2003 2786 2293 
Q 2538 2584 2113 2584 
z
M 3366 4563 
L 3366 3988 
Q 3128 4100 2886 4159 
Q 2644 4219 2406 4219 
Q 1781 4219 1451 3797 
Q 1122 3375 1075 2522 
Q 1259 2794 1537 2939 
Q 1816 3084 2150 3084 
Q 2853 3084 3261 2657 
Q 3669 2231 3669 1497 
Q 3669 778 3244 343 
Q 2819 -91 2113 -91 
Q 1303 -91 875 529 
Q 447 1150 447 2328 
Q 447 3434 972 4092 
Q 1497 4750 2381 4750 
Q 2619 4750 2861 4703 
Q 3103 4656 3366 4563 
z
" id="DejaVuSans-36" transform="scale(0.015625)"/>
       </defs>
       <use xlink:href="#DejaVuSans-36"/>
       <use x="63.623047" xlink:href="#DejaVuSans-30"/>
       <use x="127.246094" xlink:href="#DejaVuSans-30"/>
      </g>
     </g>
    </g>
    <g id="xtick_5">
     <g id="line2d_5">
      <g>
       <use style="stroke:#000000;stroke-width:0.8;" x="485.5739" xlink:href="#m07230784cf" y="397.9368"/>
      </g>
     </g>
     <g id="text_5">
      <!-- 800 -->
      <g transform="translate(476.03015 412.535237)scale(0.1 -0.1)">
       <defs>
        <path d="M 2034 2216 
Q 1584 2216 1326 1975 
Q 1069 1734 1069 1313 
Q 1069 891 1326 650 
Q 1584 409 2034 409 
Q 2484 409 2743 651 
Q 3003 894 3003 1313 
Q 3003 1734 2745 1975 
Q 2488 2216 2034 2216 
z
M 1403 2484 
Q 997 2584 770 2862 
Q 544 3141 544 3541 
Q 544 4100 942 4425 
Q 1341 4750 2034 4750 
Q 2731 4750 3128 4425 
Q 3525 4100 3525 3541 
Q 3525 3141 3298 2862 
Q 3072 2584 2669 2484 
Q 3125 2378 3379 2068 
Q 3634 1759 3634 1313 
Q 3634 634 3220 271 
Q 2806 -91 2034 -91 
Q 1263 -91 848 271 
Q 434 634 434 1313 
Q 434 1759 690 2068 
Q 947 2378 1403 2484 
z
M 1172 3481 
Q 1172 3119 1398 2916 
Q 1625 2713 2034 2713 
Q 2441 2713 2670 2916 
Q 2900 3119 2900 3481 
Q 2900 3844 2670 4047 
Q 2441 4250 2034 4250 
Q 1625 4250 1398 4047 
Q 1172 3844 1172 3481 
z
" id="DejaVuSans-38" transform="scale(0.015625)"/>
       </defs>
       <use xlink:href="#DejaVuSans-38"/>
       <use x="63.623047" xlink:href="#DejaVuSans-30"/>
       <use x="127.246094" xlink:href="#DejaVuSans-30"/>
      </g>
     </g>
    </g>
    <g id="text_6">
     <!-- Step -->
     <g transform="translate(318.869844 426.213363)scale(0.1 -0.1)">
      <defs>
       <path d="M 3425 4513 
L 3425 3897 
Q 3066 4069 2747 4153 
Q 2428 4238 2131 4238 
Q 1616 4238 1336 4038 
Q 1056 3838 1056 3469 
Q 1056 3159 1242 3001 
Q 1428 2844 1947 2747 
L 2328 2669 
Q 3034 2534 3370 2195 
Q 3706 1856 3706 1288 
Q 3706 609 3251 259 
Q 2797 -91 1919 -91 
Q 1588 -91 1214 -16 
Q 841 59 441 206 
L 441 856 
Q 825 641 1194 531 
Q 1563 422 1919 422 
Q 2459 422 2753 634 
Q 3047 847 3047 1241 
Q 3047 1584 2836 1778 
Q 2625 1972 2144 2069 
L 1759 2144 
Q 1053 2284 737 2584 
Q 422 2884 422 3419 
Q 422 4038 858 4394 
Q 1294 4750 2059 4750 
Q 2388 4750 2728 4690 
Q 3069 4631 3425 4513 
z
" id="DejaVuSans-53" transform="scale(0.015625)"/>
       <path d="M 1172 4494 
L 1172 3500 
L 2356 3500 
L 2356 3053 
L 1172 3053 
L 1172 1153 
Q 1172 725 1289 603 
Q 1406 481 1766 481 
L 2356 481 
L 2356 0 
L 1766 0 
Q 1100 0 847 248 
Q 594 497 594 1153 
L 594 3053 
L 172 3053 
L 172 3500 
L 594 3500 
L 594 4494 
L 1172 4494 
z
" id="DejaVuSans-74" transform="scale(0.015625)"/>
       <path d="M 3597 1894 
L 3597 1613 
L 953 1613 
Q 991 1019 1311 708 
Q 1631 397 2203 397 
Q 2534 397 2845 478 
Q 3156 559 3463 722 
L 3463 178 
Q 3153 47 2828 -22 
Q 2503 -91 2169 -91 
Q 1331 -91 842 396 
Q 353 884 353 1716 
Q 353 2575 817 3079 
Q 1281 3584 2069 3584 
Q 2775 3584 3186 3129 
Q 3597 2675 3597 1894 
z
M 3022 2063 
Q 3016 2534 2758 2815 
Q 2500 3097 2075 3097 
Q 1594 3097 1305 2825 
Q 1016 2553 972 2059 
L 3022 2063 
z
" id="DejaVuSans-65" transform="scale(0.015625)"/>
       <path d="M 1159 525 
L 1159 -1331 
L 581 -1331 
L 581 3500 
L 1159 3500 
L 1159 2969 
Q 1341 3281 1617 3432 
Q 1894 3584 2278 3584 
Q 2916 3584 3314 3078 
Q 3713 2572 3713 1747 
Q 3713 922 3314 415 
Q 2916 -91 2278 -91 
Q 1894 -91 1617 61 
Q 1341 213 1159 525 
z
M 3116 1747 
Q 3116 2381 2855 2742 
Q 2594 3103 2138 3103 
Q 1681 3103 1420 2742 
Q 1159 2381 1159 1747 
Q 1159 1113 1420 752 
Q 1681 391 2138 391 
Q 2594 391 2855 752 
Q 3116 1113 3116 1747 
z
" id="DejaVuSans-70" transform="scale(0.015625)"/>
      </defs>
      <use xlink:href="#DejaVuSans-53"/>
      <use x="63.476562" xlink:href="#DejaVuSans-74"/>
      <use x="102.685547" xlink:href="#DejaVuSans-65"/>
      <use x="164.208984" xlink:href="#DejaVuSans-70"/>
     </g>
    </g>
   </g>
   <g id="matplotlib.axis_2">
    <g id="ytick_1">
     <g id="line2d_6">
      <defs>
       <path d="M 0 0 
L -3.5 0 
" id="maa64a94ae9" style="stroke:#000000;stroke-width:0.8;"/>
      </defs>
      <g>
       <use style="stroke:#000000;stroke-width:0.8;" x="80.55" xlink:href="#maa64a94ae9" y="382.2876"/>
      </g>
     </g>
     <g id="text_7">
      <!-- 0.0 -->
      <g transform="translate(57.646875 386.086819)scale(0.1 -0.1)">
       <defs>
        <path d="M 684 794 
L 1344 794 
L 1344 0 
L 684 0 
L 684 794 
z
" id="DejaVuSans-2e" transform="scale(0.015625)"/>
       </defs>
       <use xlink:href="#DejaVuSans-30"/>
       <use x="63.623047" xlink:href="#DejaVuSans-2e"/>
       <use x="95.410156" xlink:href="#DejaVuSans-30"/>
      </g>
     </g>
    </g>
    <g id="ytick_2">
     <g id="line2d_7">
      <g>
       <use style="stroke:#000000;stroke-width:0.8;" x="80.55" xlink:href="#maa64a94ae9" y="316.734481"/>
      </g>
     </g>
     <g id="text_8">
      <!-- 0.2 -->
      <g transform="translate(57.646875 320.5337)scale(0.1 -0.1)">
       <use xlink:href="#DejaVuSans-30"/>
       <use x="63.623047" xlink:href="#DejaVuSans-2e"/>
       <use x="95.410156" xlink:href="#DejaVuSans-32"/>
      </g>
     </g>
    </g>
    <g id="ytick_3">
     <g id="line2d_8">
      <g>
       <use style="stroke:#000000;stroke-width:0.8;" x="80.55" xlink:href="#maa64a94ae9" y="251.181362"/>
      </g>
     </g>
     <g id="text_9">
      <!-- 0.4 -->
      <g transform="translate(57.646875 254.980581)scale(0.1 -0.1)">
       <use xlink:href="#DejaVuSans-30"/>
       <use x="63.623047" xlink:href="#DejaVuSans-2e"/>
       <use x="95.410156" xlink:href="#DejaVuSans-34"/>
      </g>
     </g>
    </g>
    <g id="ytick_4">
     <g id="line2d_9">
      <g>
       <use style="stroke:#000000;stroke-width:0.8;" x="80.55" xlink:href="#maa64a94ae9" y="185.628243"/>
      </g>
     </g>
     <g id="text_10">
      <!-- 0.6 -->
      <g transform="translate(57.646875 189.427462)scale(0.1 -0.1)">
       <use xlink:href="#DejaVuSans-30"/>
       <use x="63.623047" xlink:href="#DejaVuSans-2e"/>
       <use x="95.410156" xlink:href="#DejaVuSans-36"/>
      </g>
     </g>
    </g>
    <g id="ytick_5">
     <g id="line2d_10">
      <g>
       <use style="stroke:#000000;stroke-width:0.8;" x="80.55" xlink:href="#maa64a94ae9" y="120.075124"/>
      </g>
     </g>
     <g id="text_11">
      <!-- 0.8 -->
      <g transform="translate(57.646875 123.874343)scale(0.1 -0.1)">
       <use xlink:href="#DejaVuSans-30"/>
       <use x="63.623047" xlink:href="#DejaVuSans-2e"/>
       <use x="95.410156" xlink:href="#DejaVuSans-38"/>
      </g>
     </g>
    </g>
    <g id="ytick_6">
     <g id="line2d_11">
      <g>
       <use style="stroke:#000000;stroke-width:0.8;" x="80.55" xlink:href="#maa64a94ae9" y="54.522005"/>
      </g>
     </g>
     <g id="text_12">
      <!-- 1.0 -->
      <g transform="translate(57.646875 58.321224)scale(0.1 -0.1)">
       <defs>
        <path d="M 794 531 
L 1825 531 
L 1825 4091 
L 703 3866 
L 703 4441 
L 1819 4666 
L 2450 4666 
L 2450 531 
L 3481 531 
L 3481 0 
L 794 0 
L 794 531 
z
" id="DejaVuSans-31" transform="scale(0.015625)"/>
       </defs>
       <use xlink:href="#DejaVuSans-31"/>
       <use x="63.623047" xlink:href="#DejaVuSans-2e"/>
       <use x="95.410156" xlink:href="#DejaVuSans-30"/>
      </g>
     </g>
    </g>
    <g id="text_13">
     <!-- Accuracy -->
     <g transform="translate(51.567187 248.623725)rotate(-90)scale(0.1 -0.1)">
      <defs>
       <path d="M 2188 4044 
L 1331 1722 
L 3047 1722 
L 2188 4044 
z
M 1831 4666 
L 2547 4666 
L 4325 0 
L 3669 0 
L 3244 1197 
L 1141 1197 
L 716 0 
L 50 0 
L 1831 4666 
z
" id="DejaVuSans-41" transform="scale(0.015625)"/>
       <path d="M 3122 3366 
L 3122 2828 
Q 2878 2963 2633 3030 
Q 2388 3097 2138 3097 
Q 1578 3097 1268 2742 
Q 959 2388 959 1747 
Q 959 1106 1268 751 
Q 1578 397 2138 397 
Q 2388 397 2633 464 
Q 2878 531 3122 666 
L 3122 134 
Q 2881 22 2623 -34 
Q 2366 -91 2075 -91 
Q 1284 -91 818 406 
Q 353 903 353 1747 
Q 353 2603 823 3093 
Q 1294 3584 2113 3584 
Q 2378 3584 2631 3529 
Q 2884 3475 3122 3366 
z
" id="DejaVuSans-63" transform="scale(0.015625)"/>
       <path d="M 544 1381 
L 544 3500 
L 1119 3500 
L 1119 1403 
Q 1119 906 1312 657 
Q 1506 409 1894 409 
Q 2359 409 2629 706 
Q 2900 1003 2900 1516 
L 2900 3500 
L 3475 3500 
L 3475 0 
L 2900 0 
L 2900 538 
Q 2691 219 2414 64 
Q 2138 -91 1772 -91 
Q 1169 -91 856 284 
Q 544 659 544 1381 
z
M 1991 3584 
L 1991 3584 
z
" id="DejaVuSans-75" transform="scale(0.015625)"/>
       <path d="M 2631 2963 
Q 2534 3019 2420 3045 
Q 2306 3072 2169 3072 
Q 1681 3072 1420 2755 
Q 1159 2438 1159 1844 
L 1159 0 
L 581 0 
L 581 3500 
L 1159 3500 
L 1159 2956 
Q 1341 3275 1631 3429 
Q 1922 3584 2338 3584 
Q 2397 3584 2469 3576 
Q 2541 3569 2628 3553 
L 2631 2963 
z
" id="DejaVuSans-72" transform="scale(0.015625)"/>
       <path d="M 2194 1759 
Q 1497 1759 1228 1600 
Q 959 1441 959 1056 
Q 959 750 1161 570 
Q 1363 391 1709 391 
Q 2188 391 2477 730 
Q 2766 1069 2766 1631 
L 2766 1759 
L 2194 1759 
z
M 3341 1997 
L 3341 0 
L 2766 0 
L 2766 531 
Q 2569 213 2275 61 
Q 1981 -91 1556 -91 
Q 1019 -91 701 211 
Q 384 513 384 1019 
Q 384 1609 779 1909 
Q 1175 2209 1959 2209 
L 2766 2209 
L 2766 2266 
Q 2766 2663 2505 2880 
Q 2244 3097 1772 3097 
Q 1472 3097 1187 3025 
Q 903 2953 641 2809 
L 641 3341 
Q 956 3463 1253 3523 
Q 1550 3584 1831 3584 
Q 2591 3584 2966 3190 
Q 3341 2797 3341 1997 
z
" id="DejaVuSans-61" transform="scale(0.015625)"/>
       <path d="M 2059 -325 
Q 1816 -950 1584 -1140 
Q 1353 -1331 966 -1331 
L 506 -1331 
L 506 -850 
L 844 -850 
Q 1081 -850 1212 -737 
Q 1344 -625 1503 -206 
L 1606 56 
L 191 3500 
L 800 3500 
L 1894 763 
L 2988 3500 
L 3597 3500 
L 2059 -325 
z
" id="DejaVuSans-79" transform="scale(0.015625)"/>
      </defs>
      <use xlink:href="#DejaVuSans-41"/>
      <use x="66.658203" xlink:href="#DejaVuSans-63"/>
      <use x="121.638672" xlink:href="#DejaVuSans-63"/>
      <use x="176.619141" xlink:href="#DejaVuSans-75"/>
      <use x="239.998047" xlink:href="#DejaVuSans-72"/>
      <use x="281.111328" xlink:href="#DejaVuSans-61"/>
      <use x="342.390625" xlink:href="#DejaVuSans-63"/>
      <use x="397.371094" xlink:href="#DejaVuSans-79"/>
     </g>
    </g>
   </g>
   <g id="line2d_12">
    <path clip-path="url(#pf39e831416)" d="M 103.250455 336.871712 
L 127.14567 237.685129 
L 151.040885 164.205655 
L 174.9361 107.435798 
L 198.831316 92.439994 
L 222.726531 86.22744 
L 246.621746 80.657568 
L 270.516962 83.014049 
L 294.412177 83.442507 
L 318.307392 89.440831 
L 342.202608 83.228272 
L 366.097823 84.513627 
L 389.993038 78.943761 
L 413.888254 82.371375 
L 437.783469 80.443339 
L 461.678684 81.942916 
L 485.5739 80.443339 
L 509.469115 80.443339 
L 533.36433 79.157983 
L 557.259545 81.086013 
" style="fill:none;stroke:#1f77b4;stroke-linecap:square;stroke-width:1.5;"/>
    <defs>
     <path d="M 0 3 
C 0.795609 3 1.55874 2.683901 2.12132 2.12132 
C 2.683901 1.55874 3 0.795609 3 0 
C 3 -0.795609 2.683901 -1.55874 2.12132 -2.12132 
C 1.55874 -2.683901 0.795609 -3 0 -3 
C -0.795609 -3 -1.55874 -2.683901 -2.12132 -2.12132 
C -2.683901 -1.55874 -3 -0.795609 -3 0 
C -3 0.795609 -2.683901 1.55874 -2.12132 2.12132 
C -1.55874 2.683901 -0.795609 3 0 3 
z
" id="mb9d7a2d5db" style="stroke:#ffffff;stroke-width:0.75;"/>
    </defs>
    <g clip-path="url(#pf39e831416)">
     <use style="fill:#1f77b4;stroke:#ffffff;stroke-width:0.75;" x="103.250455" xlink:href="#mb9d7a2d5db" y="336.871712"/>
     <use style="fill:#1f77b4;stroke:#ffffff;stroke-width:0.75;" x="127.14567" xlink:href="#mb9d7a2d5db" y="237.685129"/>
     <use style="fill:#1f77b4;stroke:#ffffff;stroke-width:0.75;" x="151.040885" xlink:href="#mb9d7a2d5db" y="164.205655"/>
     <use style="fill:#1f77b4;stroke:#ffffff;stroke-width:0.75;" x="174.9361" xlink:href="#mb9d7a2d5db" y="107.435798"/>
     <use style="fill:#1f77b4;stroke:#ffffff;stroke-width:0.75;" x="198.831316" xlink:href="#mb9d7a2d5db" y="92.439994"/>
     <use style="fill:#1f77b4;stroke:#ffffff;stroke-width:0.75;" x="222.726531" xlink:href="#mb9d7a2d5db" y="86.22744"/>
     <use style="fill:#1f77b4;stroke:#ffffff;stroke-width:0.75;" x="246.621746" xlink:href="#mb9d7a2d5db" y="80.657568"/>
     <use style="fill:#1f77b4;stroke:#ffffff;stroke-width:0.75;" x="270.516962" xlink:href="#mb9d7a2d5db" y="83.014049"/>
     <use style="fill:#1f77b4;stroke:#ffffff;stroke-width:0.75;" x="294.412177" xlink:href="#mb9d7a2d5db" y="83.442507"/>
     <use style="fill:#1f77b4;stroke:#ffffff;stroke-width:0.75;" x="318.307392" xlink:href="#mb9d7a2d5db" y="89.440831"/>
     <use style="fill:#1f77b4;stroke:#ffffff;stroke-width:0.75;" x="342.202608" xlink:href="#mb9d7a2d5db" y="83.228272"/>
     <use style="fill:#1f77b4;stroke:#ffffff;stroke-width:0.75;" x="366.097823" xlink:href="#mb9d7a2d5db" y="84.513627"/>
     <use style="fill:#1f77b4;stroke:#ffffff;stroke-width:0.75;" x="389.993038" xlink:href="#mb9d7a2d5db" y="78.943761"/>
     <use style="fill:#1f77b4;stroke:#ffffff;stroke-width:0.75;" x="413.888254" xlink:href="#mb9d7a2d5db" y="82.371375"/>
     <use style="fill:#1f77b4;stroke:#ffffff;stroke-width:0.75;" x="437.783469" xlink:href="#mb9d7a2d5db" y="80.443339"/>
     <use style="fill:#1f77b4;stroke:#ffffff;stroke-width:0.75;" x="461.678684" xlink:href="#mb9d7a2d5db" y="81.942916"/>
     <use style="fill:#1f77b4;stroke:#ffffff;stroke-width:0.75;" x="485.5739" xlink:href="#mb9d7a2d5db" y="80.443339"/>
     <use style="fill:#1f77b4;stroke:#ffffff;stroke-width:0.75;" x="509.469115" xlink:href="#mb9d7a2d5db" y="80.443339"/>
     <use style="fill:#1f77b4;stroke:#ffffff;stroke-width:0.75;" x="533.36433" xlink:href="#mb9d7a2d5db" y="79.157983"/>
     <use style="fill:#1f77b4;stroke:#ffffff;stroke-width:0.75;" x="557.259545" xlink:href="#mb9d7a2d5db" y="81.086013"/>
    </g>
   </g>
   <g id="line2d_13">
    <path clip-path="url(#pf39e831416)" d="M 103.250455 290.813148 
L 127.14567 157.993102 
L 151.040885 87.512795 
L 174.9361 77.229954 
L 198.831316 84.085181 
L 222.726531 77.444176 
L 246.621746 76.587279 
L 270.516962 76.37305 
L 294.412177 75.301918 
L 318.307392 80.229109 
L 342.202608 77.229954 
L 366.097823 75.730369 
L 389.993038 77.444176 
L 413.888254 78.515309 
L 437.783469 77.015725 
L 461.678684 78.30108 
L 485.5739 84.942085 
L 509.469115 78.30108 
L 533.36433 77.015731 
L 557.259545 76.158821 
" style="fill:none;stroke:#ff7f0e;stroke-linecap:square;stroke-width:1.5;"/>
    <defs>
     <path d="M -1.5 3 
L 0 1.5 
L 1.5 3 
L 3 1.5 
L 1.5 0 
L 3 -1.5 
L 1.5 -3 
L 0 -1.5 
L -1.5 -3 
L -3 -1.5 
L -1.5 0 
L -3 1.5 
z
" id="mf2779c9f50" style="stroke:#ffffff;stroke-linejoin:miter;stroke-width:0.75;"/>
    </defs>
    <g clip-path="url(#pf39e831416)">
     <use style="fill:#ff7f0e;stroke:#ffffff;stroke-linejoin:miter;stroke-width:0.75;" x="103.250455" xlink:href="#mf2779c9f50" y="290.813148"/>
     <use style="fill:#ff7f0e;stroke:#ffffff;stroke-linejoin:miter;stroke-width:0.75;" x="127.14567" xlink:href="#mf2779c9f50" y="157.993102"/>
     <use style="fill:#ff7f0e;stroke:#ffffff;stroke-linejoin:miter;stroke-width:0.75;" x="151.040885" xlink:href="#mf2779c9f50" y="87.512795"/>
     <use style="fill:#ff7f0e;stroke:#ffffff;stroke-linejoin:miter;stroke-width:0.75;" x="174.9361" xlink:href="#mf2779c9f50" y="77.229954"/>
     <use style="fill:#ff7f0e;stroke:#ffffff;stroke-linejoin:miter;stroke-width:0.75;" x="198.831316" xlink:href="#mf2779c9f50" y="84.085181"/>
     <use style="fill:#ff7f0e;stroke:#ffffff;stroke-linejoin:miter;stroke-width:0.75;" x="222.726531" xlink:href="#mf2779c9f50" y="77.444176"/>
     <use style="fill:#ff7f0e;stroke:#ffffff;stroke-linejoin:miter;stroke-width:0.75;" x="246.621746" xlink:href="#mf2779c9f50" y="76.587279"/>
     <use style="fill:#ff7f0e;stroke:#ffffff;stroke-linejoin:miter;stroke-width:0.75;" x="270.516962" xlink:href="#mf2779c9f50" y="76.37305"/>
     <use style="fill:#ff7f0e;stroke:#ffffff;stroke-linejoin:miter;stroke-width:0.75;" x="294.412177" xlink:href="#mf2779c9f50" y="75.301918"/>
     <use style="fill:#ff7f0e;stroke:#ffffff;stroke-linejoin:miter;stroke-width:0.75;" x="318.307392" xlink:href="#mf2779c9f50" y="80.229109"/>
     <use style="fill:#ff7f0e;stroke:#ffffff;stroke-linejoin:miter;stroke-width:0.75;" x="342.202608" xlink:href="#mf2779c9f50" y="77.229954"/>
     <use style="fill:#ff7f0e;stroke:#ffffff;stroke-linejoin:miter;stroke-width:0.75;" x="366.097823" xlink:href="#mf2779c9f50" y="75.730369"/>
     <use style="fill:#ff7f0e;stroke:#ffffff;stroke-linejoin:miter;stroke-width:0.75;" x="389.993038" xlink:href="#mf2779c9f50" y="77.444176"/>
     <use style="fill:#ff7f0e;stroke:#ffffff;stroke-linejoin:miter;stroke-width:0.75;" x="413.888254" xlink:href="#mf2779c9f50" y="78.515309"/>
     <use style="fill:#ff7f0e;stroke:#ffffff;stroke-linejoin:miter;stroke-width:0.75;" x="437.783469" xlink:href="#mf2779c9f50" y="77.015725"/>
     <use style="fill:#ff7f0e;stroke:#ffffff;stroke-linejoin:miter;stroke-width:0.75;" x="461.678684" xlink:href="#mf2779c9f50" y="78.30108"/>
     <use style="fill:#ff7f0e;stroke:#ffffff;stroke-linejoin:miter;stroke-width:0.75;" x="485.5739" xlink:href="#mf2779c9f50" y="84.942085"/>
     <use style="fill:#ff7f0e;stroke:#ffffff;stroke-linejoin:miter;stroke-width:0.75;" x="509.469115" xlink:href="#mf2779c9f50" y="78.30108"/>
     <use style="fill:#ff7f0e;stroke:#ffffff;stroke-linejoin:miter;stroke-width:0.75;" x="533.36433" xlink:href="#mf2779c9f50" y="77.015731"/>
     <use style="fill:#ff7f0e;stroke:#ffffff;stroke-linejoin:miter;stroke-width:0.75;" x="557.259545" xlink:href="#mf2779c9f50" y="76.158821"/>
    </g>
   </g>
   <g id="line2d_14">
    <path clip-path="url(#pf39e831416)" d="M 103.250455 351.224846 
L 127.14567 183.271761 
L 151.040885 112.791448 
L 174.9361 89.440831 
L 198.831316 84.727856 
L 222.726531 82.585604 
L 246.621746 80.657568 
L 270.516962 89.012373 
L 294.412177 81.728694 
L 318.307392 80.657561 
L 342.202608 84.085181 
L 366.097823 77.872628 
L 389.993038 80.014887 
L 413.888254 79.372212 
L 437.783469 84.299404 
L 461.678684 80.87179 
L 485.5739 79.586435 
L 509.469115 81.300242 
L 533.36433 82.157152 
L 557.259545 80.87179 
" style="fill:none;stroke:#2ca02c;stroke-linecap:square;stroke-width:1.5;"/>
    <defs>
     <path d="M -2.12132 -2.12132 
L -2.12132 2.12132 
L 2.12132 2.12132 
L 2.12132 -2.12132 
z
" id="m96afd90124" style="stroke:#ffffff;stroke-linejoin:miter;stroke-width:0.75;"/>
    </defs>
    <g clip-path="url(#pf39e831416)">
     <use style="fill:#2ca02c;stroke:#ffffff;stroke-linejoin:miter;stroke-width:0.75;" x="103.250455" xlink:href="#m96afd90124" y="351.224846"/>
     <use style="fill:#2ca02c;stroke:#ffffff;stroke-linejoin:miter;stroke-width:0.75;" x="127.14567" xlink:href="#m96afd90124" y="183.271761"/>
     <use style="fill:#2ca02c;stroke:#ffffff;stroke-linejoin:miter;stroke-width:0.75;" x="151.040885" xlink:href="#m96afd90124" y="112.791448"/>
     <use style="fill:#2ca02c;stroke:#ffffff;stroke-linejoin:miter;stroke-width:0.75;" x="174.9361" xlink:href="#m96afd90124" y="89.440831"/>
     <use style="fill:#2ca02c;stroke:#ffffff;stroke-linejoin:miter;stroke-width:0.75;" x="198.831316" xlink:href="#m96afd90124" y="84.727856"/>
     <use style="fill:#2ca02c;stroke:#ffffff;stroke-linejoin:miter;stroke-width:0.75;" x="222.726531" xlink:href="#m96afd90124" y="82.585604"/>
     <use style="fill:#2ca02c;stroke:#ffffff;stroke-linejoin:miter;stroke-width:0.75;" x="246.621746" xlink:href="#m96afd90124" y="80.657568"/>
     <use style="fill:#2ca02c;stroke:#ffffff;stroke-linejoin:miter;stroke-width:0.75;" x="270.516962" xlink:href="#m96afd90124" y="89.012373"/>
     <use style="fill:#2ca02c;stroke:#ffffff;stroke-linejoin:miter;stroke-width:0.75;" x="294.412177" xlink:href="#m96afd90124" y="81.728694"/>
     <use style="fill:#2ca02c;stroke:#ffffff;stroke-linejoin:miter;stroke-width:0.75;" x="318.307392" xlink:href="#m96afd90124" y="80.657561"/>
     <use style="fill:#2ca02c;stroke:#ffffff;stroke-linejoin:miter;stroke-width:0.75;" x="342.202608" xlink:href="#m96afd90124" y="84.085181"/>
     <use style="fill:#2ca02c;stroke:#ffffff;stroke-linejoin:miter;stroke-width:0.75;" x="366.097823" xlink:href="#m96afd90124" y="77.872628"/>
     <use style="fill:#2ca02c;stroke:#ffffff;stroke-linejoin:miter;stroke-width:0.75;" x="389.993038" xlink:href="#m96afd90124" y="80.014887"/>
     <use style="fill:#2ca02c;stroke:#ffffff;stroke-linejoin:miter;stroke-width:0.75;" x="413.888254" xlink:href="#m96afd90124" y="79.372212"/>
     <use style="fill:#2ca02c;stroke:#ffffff;stroke-linejoin:miter;stroke-width:0.75;" x="437.783469" xlink:href="#m96afd90124" y="84.299404"/>
     <use style="fill:#2ca02c;stroke:#ffffff;stroke-linejoin:miter;stroke-width:0.75;" x="461.678684" xlink:href="#m96afd90124" y="80.87179"/>
     <use style="fill:#2ca02c;stroke:#ffffff;stroke-linejoin:miter;stroke-width:0.75;" x="485.5739" xlink:href="#m96afd90124" y="79.586435"/>
     <use style="fill:#2ca02c;stroke:#ffffff;stroke-linejoin:miter;stroke-width:0.75;" x="509.469115" xlink:href="#m96afd90124" y="81.300242"/>
     <use style="fill:#2ca02c;stroke:#ffffff;stroke-linejoin:miter;stroke-width:0.75;" x="533.36433" xlink:href="#m96afd90124" y="82.157152"/>
     <use style="fill:#2ca02c;stroke:#ffffff;stroke-linejoin:miter;stroke-width:0.75;" x="557.259545" xlink:href="#m96afd90124" y="80.87179"/>
    </g>
   </g>
   <g id="line2d_15">
    <path clip-path="url(#pf39e831416)" d="M 103.250455 346.726104 
L 127.14567 231.901029 
L 151.040885 150.4952 
L 174.9361 126.930355 
L 198.831316 111.506086 
L 222.726531 99.080992 
L 246.621746 97.367185 
L 270.516962 91.58309 
L 294.412177 93.51112 
L 318.307392 89.01238 
L 342.202608 87.512795 
L 366.097823 83.014055 
L 389.993038 85.37053 
L 413.888254 85.584759 
L 437.783469 86.013211 
L 461.678684 84.085181 
L 485.5739 84.513633 
L 509.469115 80.014893 
L 533.36433 82.157145 
L 557.259545 79.586435 
" style="fill:none;stroke:#d62728;stroke-linecap:square;stroke-width:1.5;"/>
    <defs>
     <path d="M -1 3 
L 1 3 
L 1 1 
L 3 1 
L 3 -1 
L 1 -1 
L 1 -3 
L -1 -3 
L -1 -1 
L -3 -1 
L -3 1 
L -1 1 
z
" id="m8ee3fdec02" style="stroke:#ffffff;stroke-linejoin:miter;stroke-width:0.75;"/>
    </defs>
    <g clip-path="url(#pf39e831416)">
     <use style="fill:#d62728;stroke:#ffffff;stroke-linejoin:miter;stroke-width:0.75;" x="103.250455" xlink:href="#m8ee3fdec02" y="346.726104"/>
     <use style="fill:#d62728;stroke:#ffffff;stroke-linejoin:miter;stroke-width:0.75;" x="127.14567" xlink:href="#m8ee3fdec02" y="231.901029"/>
     <use style="fill:#d62728;stroke:#ffffff;stroke-linejoin:miter;stroke-width:0.75;" x="151.040885" xlink:href="#m8ee3fdec02" y="150.4952"/>
     <use style="fill:#d62728;stroke:#ffffff;stroke-linejoin:miter;stroke-width:0.75;" x="174.9361" xlink:href="#m8ee3fdec02" y="126.930355"/>
     <use style="fill:#d62728;stroke:#ffffff;stroke-linejoin:miter;stroke-width:0.75;" x="198.831316" xlink:href="#m8ee3fdec02" y="111.506086"/>
     <use style="fill:#d62728;stroke:#ffffff;stroke-linejoin:miter;stroke-width:0.75;" x="222.726531" xlink:href="#m8ee3fdec02" y="99.080992"/>
     <use style="fill:#d62728;stroke:#ffffff;stroke-linejoin:miter;stroke-width:0.75;" x="246.621746" xlink:href="#m8ee3fdec02" y="97.367185"/>
     <use style="fill:#d62728;stroke:#ffffff;stroke-linejoin:miter;stroke-width:0.75;" x="270.516962" xlink:href="#m8ee3fdec02" y="91.58309"/>
     <use style="fill:#d62728;stroke:#ffffff;stroke-linejoin:miter;stroke-width:0.75;" x="294.412177" xlink:href="#m8ee3fdec02" y="93.51112"/>
     <use style="fill:#d62728;stroke:#ffffff;stroke-linejoin:miter;stroke-width:0.75;" x="318.307392" xlink:href="#m8ee3fdec02" y="89.01238"/>
     <use style="fill:#d62728;stroke:#ffffff;stroke-linejoin:miter;stroke-width:0.75;" x="342.202608" xlink:href="#m8ee3fdec02" y="87.512795"/>
     <use style="fill:#d62728;stroke:#ffffff;stroke-linejoin:miter;stroke-width:0.75;" x="366.097823" xlink:href="#m8ee3fdec02" y="83.014055"/>
     <use style="fill:#d62728;stroke:#ffffff;stroke-linejoin:miter;stroke-width:0.75;" x="389.993038" xlink:href="#m8ee3fdec02" y="85.37053"/>
     <use style="fill:#d62728;stroke:#ffffff;stroke-linejoin:miter;stroke-width:0.75;" x="413.888254" xlink:href="#m8ee3fdec02" y="85.584759"/>
     <use style="fill:#d62728;stroke:#ffffff;stroke-linejoin:miter;stroke-width:0.75;" x="437.783469" xlink:href="#m8ee3fdec02" y="86.013211"/>
     <use style="fill:#d62728;stroke:#ffffff;stroke-linejoin:miter;stroke-width:0.75;" x="461.678684" xlink:href="#m8ee3fdec02" y="84.085181"/>
     <use style="fill:#d62728;stroke:#ffffff;stroke-linejoin:miter;stroke-width:0.75;" x="485.5739" xlink:href="#m8ee3fdec02" y="84.513633"/>
     <use style="fill:#d62728;stroke:#ffffff;stroke-linejoin:miter;stroke-width:0.75;" x="509.469115" xlink:href="#m8ee3fdec02" y="80.014893"/>
     <use style="fill:#d62728;stroke:#ffffff;stroke-linejoin:miter;stroke-width:0.75;" x="533.36433" xlink:href="#m8ee3fdec02" y="82.157145"/>
     <use style="fill:#d62728;stroke:#ffffff;stroke-linejoin:miter;stroke-width:0.75;" x="557.259545" xlink:href="#m8ee3fdec02" y="79.586435"/>
    </g>
   </g>
   <g id="line2d_16"/>
   <g id="line2d_17"/>
   <g id="line2d_18"/>
   <g id="line2d_19"/>
   <g id="patch_3">
    <path d="M 80.55 397.9368 
L 80.55 53.6544 
" style="fill:none;stroke:#000000;stroke-linecap:square;stroke-linejoin:miter;stroke-width:0.8;"/>
   </g>
   <g id="patch_4">
    <path d="M 579.96 397.9368 
L 579.96 53.6544 
" style="fill:none;stroke:#000000;stroke-linecap:square;stroke-linejoin:miter;stroke-width:0.8;"/>
   </g>
   <g id="patch_5">
    <path d="M 80.55 397.9368 
L 579.96 397.9368 
" style="fill:none;stroke:#000000;stroke-linecap:square;stroke-linejoin:miter;stroke-width:0.8;"/>
   </g>
   <g id="patch_6">
    <path d="M 80.55 53.6544 
L 579.96 53.6544 
" style="fill:none;stroke:#000000;stroke-linecap:square;stroke-linejoin:miter;stroke-width:0.8;"/>
   </g>
   <g id="legend_1">
    <g id="patch_7">
     <path d="M 499.074063 392.9368 
L 572.96 392.9368 
Q 574.96 392.9368 574.96 390.9368 
L 574.96 318.546175 
Q 574.96 316.546175 572.96 316.546175 
L 499.074063 316.546175 
Q 497.074063 316.546175 497.074063 318.546175 
L 497.074063 390.9368 
Q 497.074063 392.9368 499.074063 392.9368 
z
" style="fill:#ffffff;opacity:0.8;stroke:#cccccc;stroke-linejoin:miter;"/>
    </g>
    <g id="text_14">
     <!-- Agent -->
     <g transform="translate(521.217031 328.144612)scale(0.1 -0.1)">
      <defs>
       <path d="M 2906 1791 
Q 2906 2416 2648 2759 
Q 2391 3103 1925 3103 
Q 1463 3103 1205 2759 
Q 947 2416 947 1791 
Q 947 1169 1205 825 
Q 1463 481 1925 481 
Q 2391 481 2648 825 
Q 2906 1169 2906 1791 
z
M 3481 434 
Q 3481 -459 3084 -895 
Q 2688 -1331 1869 -1331 
Q 1566 -1331 1297 -1286 
Q 1028 -1241 775 -1147 
L 775 -588 
Q 1028 -725 1275 -790 
Q 1522 -856 1778 -856 
Q 2344 -856 2625 -561 
Q 2906 -266 2906 331 
L 2906 616 
Q 2728 306 2450 153 
Q 2172 0 1784 0 
Q 1141 0 747 490 
Q 353 981 353 1791 
Q 353 2603 747 3093 
Q 1141 3584 1784 3584 
Q 2172 3584 2450 3431 
Q 2728 3278 2906 2969 
L 2906 3500 
L 3481 3500 
L 3481 434 
z
" id="DejaVuSans-67" transform="scale(0.015625)"/>
       <path d="M 3513 2113 
L 3513 0 
L 2938 0 
L 2938 2094 
Q 2938 2591 2744 2837 
Q 2550 3084 2163 3084 
Q 1697 3084 1428 2787 
Q 1159 2491 1159 1978 
L 1159 0 
L 581 0 
L 581 3500 
L 1159 3500 
L 1159 2956 
Q 1366 3272 1645 3428 
Q 1925 3584 2291 3584 
Q 2894 3584 3203 3211 
Q 3513 2838 3513 2113 
z
" id="DejaVuSans-6e" transform="scale(0.015625)"/>
      </defs>
      <use xlink:href="#DejaVuSans-41"/>
      <use x="68.408203" xlink:href="#DejaVuSans-67"/>
      <use x="131.884766" xlink:href="#DejaVuSans-65"/>
      <use x="193.408203" xlink:href="#DejaVuSans-6e"/>
      <use x="256.787109" xlink:href="#DejaVuSans-74"/>
     </g>
    </g>
    <g id="line2d_20">
     <path d="M 501.074063 339.322738 
L 521.074063 339.322738 
" style="fill:none;stroke:#1f77b4;stroke-linecap:square;stroke-width:1.5;"/>
    </g>
    <g id="line2d_21">
     <defs>
      <path d="M 0 3 
C 0.795609 3 1.55874 2.683901 2.12132 2.12132 
C 2.683901 1.55874 3 0.795609 3 0 
C 3 -0.795609 2.683901 -1.55874 2.12132 -2.12132 
C 1.55874 -2.683901 0.795609 -3 0 -3 
C -0.795609 -3 -1.55874 -2.683901 -2.12132 -2.12132 
C -2.683901 -1.55874 -3 -0.795609 -3 0 
C -3 0.795609 -2.683901 1.55874 -2.12132 2.12132 
C -1.55874 2.683901 -0.795609 3 0 3 
z
" id="mfc99b82f82" style="stroke:#1f77b4;"/>
     </defs>
     <g>
      <use style="fill:#1f77b4;stroke:#1f77b4;" x="511.074063" xlink:href="#mfc99b82f82" y="339.322738"/>
     </g>
    </g>
    <g id="text_15">
     <!-- A -->
     <g transform="translate(529.074063 342.822738)scale(0.1 -0.1)">
      <use xlink:href="#DejaVuSans-41"/>
     </g>
    </g>
    <g id="line2d_22">
     <path d="M 501.074063 354.000863 
L 521.074063 354.000863 
" style="fill:none;stroke:#ff7f0e;stroke-linecap:square;stroke-width:1.5;"/>
    </g>
    <g id="line2d_23">
     <defs>
      <path d="M -1.5 3 
L 0 1.5 
L 1.5 3 
L 3 1.5 
L 1.5 0 
L 3 -1.5 
L 1.5 -3 
L 0 -1.5 
L -1.5 -3 
L -3 -1.5 
L -1.5 0 
L -3 1.5 
z
" id="mfdc4b9bc4a" style="stroke:#ff7f0e;stroke-linejoin:miter;"/>
     </defs>
     <g>
      <use style="fill:#ff7f0e;stroke:#ff7f0e;stroke-linejoin:miter;" x="511.074063" xlink:href="#mfdc4b9bc4a" y="354.000863"/>
     </g>
    </g>
    <g id="text_16">
     <!-- B -->
     <g transform="translate(529.074063 357.500863)scale(0.1 -0.1)">
      <defs>
       <path d="M 1259 2228 
L 1259 519 
L 2272 519 
Q 2781 519 3026 730 
Q 3272 941 3272 1375 
Q 3272 1813 3026 2020 
Q 2781 2228 2272 2228 
L 1259 2228 
z
M 1259 4147 
L 1259 2741 
L 2194 2741 
Q 2656 2741 2882 2914 
Q 3109 3088 3109 3444 
Q 3109 3797 2882 3972 
Q 2656 4147 2194 4147 
L 1259 4147 
z
M 628 4666 
L 2241 4666 
Q 2963 4666 3353 4366 
Q 3744 4066 3744 3513 
Q 3744 3084 3544 2831 
Q 3344 2578 2956 2516 
Q 3422 2416 3680 2098 
Q 3938 1781 3938 1306 
Q 3938 681 3513 340 
Q 3088 0 2303 0 
L 628 0 
L 628 4666 
z
" id="DejaVuSans-42" transform="scale(0.015625)"/>
      </defs>
      <use xlink:href="#DejaVuSans-42"/>
     </g>
    </g>
    <g id="line2d_24">
     <path d="M 501.074063 368.678988 
L 521.074063 368.678988 
" style="fill:none;stroke:#2ca02c;stroke-linecap:square;stroke-width:1.5;"/>
    </g>
    <g id="line2d_25">
     <defs>
      <path d="M -2.12132 -2.12132 
L -2.12132 2.12132 
L 2.12132 2.12132 
L 2.12132 -2.12132 
z
" id="m7175f7f7fa" style="stroke:#2ca02c;stroke-linejoin:miter;"/>
     </defs>
     <g>
      <use style="fill:#2ca02c;stroke:#2ca02c;stroke-linejoin:miter;" x="511.074063" xlink:href="#m7175f7f7fa" y="368.678988"/>
     </g>
    </g>
    <g id="text_17">
     <!-- C -->
     <g transform="translate(529.074063 372.178988)scale(0.1 -0.1)">
      <defs>
       <path d="M 4122 4306 
L 4122 3641 
Q 3803 3938 3442 4084 
Q 3081 4231 2675 4231 
Q 1875 4231 1450 3742 
Q 1025 3253 1025 2328 
Q 1025 1406 1450 917 
Q 1875 428 2675 428 
Q 3081 428 3442 575 
Q 3803 722 4122 1019 
L 4122 359 
Q 3791 134 3420 21 
Q 3050 -91 2638 -91 
Q 1578 -91 968 557 
Q 359 1206 359 2328 
Q 359 3453 968 4101 
Q 1578 4750 2638 4750 
Q 3056 4750 3426 4639 
Q 3797 4528 4122 4306 
z
" id="DejaVuSans-43" transform="scale(0.015625)"/>
      </defs>
      <use xlink:href="#DejaVuSans-43"/>
     </g>
    </g>
    <g id="line2d_26">
     <path d="M 501.074063 383.357113 
L 521.074063 383.357113 
" style="fill:none;stroke:#d62728;stroke-linecap:square;stroke-width:1.5;"/>
    </g>
    <g id="line2d_27">
     <defs>
      <path d="M -1 3 
L 1 3 
L 1 1 
L 3 1 
L 3 -1 
L 1 -1 
L 1 -3 
L -1 -3 
L -1 -1 
L -3 -1 
L -3 1 
L -1 1 
z
" id="me1ae691d29" style="stroke:#d62728;stroke-linejoin:miter;"/>
     </defs>
     <g>
      <use style="fill:#d62728;stroke:#d62728;stroke-linejoin:miter;" x="511.074063" xlink:href="#me1ae691d29" y="383.357113"/>
     </g>
    </g>
    <g id="text_18">
     <!-- baseline -->
     <g transform="translate(529.074063 386.857113)scale(0.1 -0.1)">
      <defs>
       <path d="M 3116 1747 
Q 3116 2381 2855 2742 
Q 2594 3103 2138 3103 
Q 1681 3103 1420 2742 
Q 1159 2381 1159 1747 
Q 1159 1113 1420 752 
Q 1681 391 2138 391 
Q 2594 391 2855 752 
Q 3116 1113 3116 1747 
z
M 1159 2969 
Q 1341 3281 1617 3432 
Q 1894 3584 2278 3584 
Q 2916 3584 3314 3078 
Q 3713 2572 3713 1747 
Q 3713 922 3314 415 
Q 2916 -91 2278 -91 
Q 1894 -91 1617 61 
Q 1341 213 1159 525 
L 1159 0 
L 581 0 
L 581 4863 
L 1159 4863 
L 1159 2969 
z
" id="DejaVuSans-62" transform="scale(0.015625)"/>
       <path d="M 2834 3397 
L 2834 2853 
Q 2591 2978 2328 3040 
Q 2066 3103 1784 3103 
Q 1356 3103 1142 2972 
Q 928 2841 928 2578 
Q 928 2378 1081 2264 
Q 1234 2150 1697 2047 
L 1894 2003 
Q 2506 1872 2764 1633 
Q 3022 1394 3022 966 
Q 3022 478 2636 193 
Q 2250 -91 1575 -91 
Q 1294 -91 989 -36 
Q 684 19 347 128 
L 347 722 
Q 666 556 975 473 
Q 1284 391 1588 391 
Q 1994 391 2212 530 
Q 2431 669 2431 922 
Q 2431 1156 2273 1281 
Q 2116 1406 1581 1522 
L 1381 1569 
Q 847 1681 609 1914 
Q 372 2147 372 2553 
Q 372 3047 722 3315 
Q 1072 3584 1716 3584 
Q 2034 3584 2315 3537 
Q 2597 3491 2834 3397 
z
" id="DejaVuSans-73" transform="scale(0.015625)"/>
       <path d="M 603 4863 
L 1178 4863 
L 1178 0 
L 603 0 
L 603 4863 
z
" id="DejaVuSans-6c" transform="scale(0.015625)"/>
       <path d="M 603 3500 
L 1178 3500 
L 1178 0 
L 603 0 
L 603 3500 
z
M 603 4863 
L 1178 4863 
L 1178 4134 
L 603 4134 
L 603 4863 
z
" id="DejaVuSans-69" transform="scale(0.015625)"/>
      </defs>
      <use xlink:href="#DejaVuSans-62"/>
      <use x="63.476562" xlink:href="#DejaVuSans-61"/>
      <use x="124.755859" xlink:href="#DejaVuSans-73"/>
      <use x="176.855469" xlink:href="#DejaVuSans-65"/>
      <use x="238.378906" xlink:href="#DejaVuSans-6c"/>
      <use x="266.162109" xlink:href="#DejaVuSans-69"/>
      <use x="293.945312" xlink:href="#DejaVuSans-6e"/>
      <use x="357.324219" xlink:href="#DejaVuSans-65"/>
     </g>
    </g>
   </g>
  </g>
 </g>
 <defs>
  <clipPath id="pf39e831416">
   <rect height="344.2824" width="499.41" x="80.55" y="53.6544"/>
  </clipPath>
 </defs>
</svg>
